G04 Layer_Physical_Order=1*
G04 Layer_Color=255*
%FSLAX25Y25*%
%MOIN*%
G70*
G01*
G75*
%ADD10C,0.01181*%
%ADD11C,0.01575*%
%ADD12C,0.02000*%
%ADD13C,0.01000*%
%ADD14R,0.02559X0.02559*%
%ADD15R,0.02559X0.02559*%
G04:AMPARAMS|DCode=16|XSize=25.59mil|YSize=98.43mil|CornerRadius=1.28mil|HoleSize=0mil|Usage=FLASHONLY|Rotation=0.000|XOffset=0mil|YOffset=0mil|HoleType=Round|Shape=RoundedRectangle|*
%AMROUNDEDRECTD16*
21,1,0.02559,0.09587,0,0,0.0*
21,1,0.02303,0.09843,0,0,0.0*
1,1,0.00256,0.01152,-0.04793*
1,1,0.00256,-0.01152,-0.04793*
1,1,0.00256,-0.01152,0.04793*
1,1,0.00256,0.01152,0.04793*
%
%ADD16ROUNDEDRECTD16*%
G04:AMPARAMS|DCode=17|XSize=98.43mil|YSize=25.59mil|CornerRadius=1.28mil|HoleSize=0mil|Usage=FLASHONLY|Rotation=0.000|XOffset=0mil|YOffset=0mil|HoleType=Round|Shape=RoundedRectangle|*
%AMROUNDEDRECTD17*
21,1,0.09843,0.02303,0,0,0.0*
21,1,0.09587,0.02559,0,0,0.0*
1,1,0.00256,0.04793,-0.01152*
1,1,0.00256,-0.04793,-0.01152*
1,1,0.00256,-0.04793,0.01152*
1,1,0.00256,0.04793,0.01152*
%
%ADD17ROUNDEDRECTD17*%
G04:AMPARAMS|DCode=18|XSize=11.81mil|YSize=31.5mil|CornerRadius=0mil|HoleSize=0mil|Usage=FLASHONLY|Rotation=225.000|XOffset=0mil|YOffset=0mil|HoleType=Round|Shape=Rectangle|*
%AMROTATEDRECTD18*
4,1,4,-0.00696,0.01531,0.01531,-0.00696,0.00696,-0.01531,-0.01531,0.00696,-0.00696,0.01531,0.0*
%
%ADD18ROTATEDRECTD18*%

G04:AMPARAMS|DCode=19|XSize=11.81mil|YSize=39.37mil|CornerRadius=0mil|HoleSize=0mil|Usage=FLASHONLY|Rotation=225.000|XOffset=0mil|YOffset=0mil|HoleType=Round|Shape=Rectangle|*
%AMROTATEDRECTD19*
4,1,4,-0.00974,0.01810,0.01810,-0.00974,0.00974,-0.01810,-0.01810,0.00974,-0.00974,0.01810,0.0*
%
%ADD19ROTATEDRECTD19*%

G04:AMPARAMS|DCode=20|XSize=11.81mil|YSize=31.5mil|CornerRadius=0mil|HoleSize=0mil|Usage=FLASHONLY|Rotation=135.000|XOffset=0mil|YOffset=0mil|HoleType=Round|Shape=Rectangle|*
%AMROTATEDRECTD20*
4,1,4,0.01531,0.00696,-0.00696,-0.01531,-0.01531,-0.00696,0.00696,0.01531,0.01531,0.00696,0.0*
%
%ADD20ROTATEDRECTD20*%

G04:AMPARAMS|DCode=21|XSize=11.81mil|YSize=39.37mil|CornerRadius=0mil|HoleSize=0mil|Usage=FLASHONLY|Rotation=135.000|XOffset=0mil|YOffset=0mil|HoleType=Round|Shape=Rectangle|*
%AMROTATEDRECTD21*
4,1,4,0.01810,0.00974,-0.00974,-0.01810,-0.01810,-0.00974,0.00974,0.01810,0.01810,0.00974,0.0*
%
%ADD21ROTATEDRECTD21*%

%ADD22P,0.18374X4X180.0*%
%ADD23R,0.04331X0.03937*%
%ADD24R,0.02441X0.02441*%
%ADD25P,0.03619X4X350.0*%
%ADD26P,0.03619X4X385.0*%
%ADD27P,0.03619X4X215.0*%
%ADD28P,0.03619X4X180.0*%
%ADD29P,0.03619X4X320.0*%
%ADD30P,0.03619X4X273.0*%
%ADD31P,0.03619X4X85.0*%
%ADD32R,0.03937X0.04331*%
%ADD33P,0.03619X4X190.0*%
%ADD34P,0.03619X4X100.0*%
%ADD35P,0.03452X4X180.0*%
%ADD36R,0.03543X0.03937*%
%ADD37R,0.04528X0.05709*%
%ADD38R,0.03543X0.03150*%
%ADD39R,0.07480X0.07480*%
%ADD40R,0.07087X0.07480*%
%ADD41R,0.08268X0.06299*%
%ADD42R,0.01575X0.05315*%
%ADD43R,0.02441X0.02441*%
G04:AMPARAMS|DCode=44|XSize=39.37mil|YSize=70.87mil|CornerRadius=9.84mil|HoleSize=0mil|Usage=FLASHONLY|Rotation=180.000|XOffset=0mil|YOffset=0mil|HoleType=Round|Shape=RoundedRectangle|*
%AMROUNDEDRECTD44*
21,1,0.03937,0.05118,0,0,180.0*
21,1,0.01969,0.07087,0,0,180.0*
1,1,0.01969,-0.00984,0.02559*
1,1,0.01969,0.00984,0.02559*
1,1,0.01969,0.00984,-0.02559*
1,1,0.01969,-0.00984,-0.02559*
%
%ADD44ROUNDEDRECTD44*%
G04:AMPARAMS|DCode=45|XSize=9.84mil|YSize=19.69mil|CornerRadius=0mil|HoleSize=0mil|Usage=FLASHONLY|Rotation=45.000|XOffset=0mil|YOffset=0mil|HoleType=Round|Shape=Rectangle|*
%AMROTATEDRECTD45*
4,1,4,0.00348,-0.01044,-0.01044,0.00348,-0.00348,0.01044,0.01044,-0.00348,0.00348,-0.01044,0.0*
%
%ADD45ROTATEDRECTD45*%

%ADD46R,0.04331X0.05906*%
%ADD47P,0.03619X4X150.0*%
%ADD48R,0.01575X0.03347*%
G04:AMPARAMS|DCode=49|XSize=43.31mil|YSize=25.59mil|CornerRadius=0.64mil|HoleSize=0mil|Usage=FLASHONLY|Rotation=180.000|XOffset=0mil|YOffset=0mil|HoleType=Round|Shape=RoundedRectangle|*
%AMROUNDEDRECTD49*
21,1,0.04331,0.02431,0,0,180.0*
21,1,0.04203,0.02559,0,0,180.0*
1,1,0.00128,-0.02101,0.01216*
1,1,0.00128,0.02101,0.01216*
1,1,0.00128,0.02101,-0.01216*
1,1,0.00128,-0.02101,-0.01216*
%
%ADD49ROUNDEDRECTD49*%
G04:AMPARAMS|DCode=50|XSize=59.06mil|YSize=25.59mil|CornerRadius=0.64mil|HoleSize=0mil|Usage=FLASHONLY|Rotation=180.000|XOffset=0mil|YOffset=0mil|HoleType=Round|Shape=RoundedRectangle|*
%AMROUNDEDRECTD50*
21,1,0.05906,0.02431,0,0,180.0*
21,1,0.05778,0.02559,0,0,180.0*
1,1,0.00128,-0.02889,0.01216*
1,1,0.00128,0.02889,0.01216*
1,1,0.00128,0.02889,-0.01216*
1,1,0.00128,-0.02889,-0.01216*
%
%ADD50ROUNDEDRECTD50*%
G04:AMPARAMS|DCode=51|XSize=66.93mil|YSize=25.59mil|CornerRadius=0.64mil|HoleSize=0mil|Usage=FLASHONLY|Rotation=180.000|XOffset=0mil|YOffset=0mil|HoleType=Round|Shape=RoundedRectangle|*
%AMROUNDEDRECTD51*
21,1,0.06693,0.02431,0,0,180.0*
21,1,0.06565,0.02559,0,0,180.0*
1,1,0.00128,-0.03283,0.01216*
1,1,0.00128,0.03283,0.01216*
1,1,0.00128,0.03283,-0.01216*
1,1,0.00128,-0.03283,-0.01216*
%
%ADD51ROUNDEDRECTD51*%
G04:AMPARAMS|DCode=52|XSize=35.43mil|YSize=157.48mil|CornerRadius=1.77mil|HoleSize=0mil|Usage=FLASHONLY|Rotation=180.000|XOffset=0mil|YOffset=0mil|HoleType=Round|Shape=RoundedRectangle|*
%AMROUNDEDRECTD52*
21,1,0.03543,0.15394,0,0,180.0*
21,1,0.03189,0.15748,0,0,180.0*
1,1,0.00354,-0.01595,0.07697*
1,1,0.00354,0.01595,0.07697*
1,1,0.00354,0.01595,-0.07697*
1,1,0.00354,-0.01595,-0.07697*
%
%ADD52ROUNDEDRECTD52*%
%ADD53P,0.03619X4X270.0*%
%ADD54R,0.05118X0.05118*%
G04:AMPARAMS|DCode=55|XSize=21.26mil|YSize=21.65mil|CornerRadius=5.32mil|HoleSize=0mil|Usage=FLASHONLY|Rotation=180.000|XOffset=0mil|YOffset=0mil|HoleType=Round|Shape=RoundedRectangle|*
%AMROUNDEDRECTD55*
21,1,0.02126,0.01102,0,0,180.0*
21,1,0.01063,0.02165,0,0,180.0*
1,1,0.01063,-0.00532,0.00551*
1,1,0.01063,0.00532,0.00551*
1,1,0.01063,0.00532,-0.00551*
1,1,0.01063,-0.00532,-0.00551*
%
%ADD55ROUNDEDRECTD55*%
G04:AMPARAMS|DCode=56|XSize=21.26mil|YSize=21.65mil|CornerRadius=5.32mil|HoleSize=0mil|Usage=FLASHONLY|Rotation=180.000|XOffset=0mil|YOffset=0mil|HoleType=Round|Shape=RoundedRectangle|*
%AMROUNDEDRECTD56*
21,1,0.02126,0.01102,0,0,180.0*
21,1,0.01063,0.02165,0,0,180.0*
1,1,0.01063,-0.00532,0.00551*
1,1,0.01063,0.00532,0.00551*
1,1,0.01063,0.00532,-0.00551*
1,1,0.01063,-0.00532,-0.00551*
%
%ADD56ROUNDEDRECTD56*%
G04:AMPARAMS|DCode=57|XSize=21.26mil|YSize=21.65mil|CornerRadius=5.32mil|HoleSize=0mil|Usage=FLASHONLY|Rotation=90.000|XOffset=0mil|YOffset=0mil|HoleType=Round|Shape=RoundedRectangle|*
%AMROUNDEDRECTD57*
21,1,0.02126,0.01102,0,0,90.0*
21,1,0.01063,0.02165,0,0,90.0*
1,1,0.01063,0.00551,0.00532*
1,1,0.01063,0.00551,-0.00532*
1,1,0.01063,-0.00551,-0.00532*
1,1,0.01063,-0.00551,0.00532*
%
%ADD57ROUNDEDRECTD57*%
G04:AMPARAMS|DCode=58|XSize=21.26mil|YSize=21.65mil|CornerRadius=5.32mil|HoleSize=0mil|Usage=FLASHONLY|Rotation=90.000|XOffset=0mil|YOffset=0mil|HoleType=Round|Shape=RoundedRectangle|*
%AMROUNDEDRECTD58*
21,1,0.02126,0.01102,0,0,90.0*
21,1,0.01063,0.02165,0,0,90.0*
1,1,0.01063,0.00551,0.00532*
1,1,0.01063,0.00551,-0.00532*
1,1,0.01063,-0.00551,-0.00532*
1,1,0.01063,-0.00551,0.00532*
%
%ADD58ROUNDEDRECTD58*%
G04:AMPARAMS|DCode=59|XSize=70.87mil|YSize=47.24mil|CornerRadius=2.36mil|HoleSize=0mil|Usage=FLASHONLY|Rotation=90.000|XOffset=0mil|YOffset=0mil|HoleType=Round|Shape=RoundedRectangle|*
%AMROUNDEDRECTD59*
21,1,0.07087,0.04252,0,0,90.0*
21,1,0.06614,0.04724,0,0,90.0*
1,1,0.00472,0.02126,0.03307*
1,1,0.00472,0.02126,-0.03307*
1,1,0.00472,-0.02126,-0.03307*
1,1,0.00472,-0.02126,0.03307*
%
%ADD59ROUNDEDRECTD59*%
%ADD60R,0.02756X0.03740*%
%ADD61R,0.03937X0.03543*%
%ADD62C,0.05000*%
G04:AMPARAMS|DCode=63|XSize=29.61mil|YSize=35.43mil|CornerRadius=7.4mil|HoleSize=0mil|Usage=FLASHONLY|Rotation=180.000|XOffset=0mil|YOffset=0mil|HoleType=Round|Shape=RoundedRectangle|*
%AMROUNDEDRECTD63*
21,1,0.02961,0.02063,0,0,180.0*
21,1,0.01480,0.03543,0,0,180.0*
1,1,0.01480,-0.00740,0.01032*
1,1,0.01480,0.00740,0.01032*
1,1,0.01480,0.00740,-0.01032*
1,1,0.01480,-0.00740,-0.01032*
%
%ADD63ROUNDEDRECTD63*%
G04:AMPARAMS|DCode=64|XSize=29.61mil|YSize=35.43mil|CornerRadius=7.4mil|HoleSize=0mil|Usage=FLASHONLY|Rotation=180.000|XOffset=0mil|YOffset=0mil|HoleType=Round|Shape=RoundedRectangle|*
%AMROUNDEDRECTD64*
21,1,0.02961,0.02063,0,0,180.0*
21,1,0.01480,0.03543,0,0,180.0*
1,1,0.01480,-0.00740,0.01032*
1,1,0.01480,0.00740,0.01032*
1,1,0.01480,0.00740,-0.01032*
1,1,0.01480,-0.00740,-0.01032*
%
%ADD64ROUNDEDRECTD64*%
G04:AMPARAMS|DCode=65|XSize=39.37mil|YSize=39.37mil|CornerRadius=5.91mil|HoleSize=0mil|Usage=FLASHONLY|Rotation=180.000|XOffset=0mil|YOffset=0mil|HoleType=Round|Shape=RoundedRectangle|*
%AMROUNDEDRECTD65*
21,1,0.03937,0.02756,0,0,180.0*
21,1,0.02756,0.03937,0,0,180.0*
1,1,0.01181,-0.01378,0.01378*
1,1,0.01181,0.01378,0.01378*
1,1,0.01181,0.01378,-0.01378*
1,1,0.01181,-0.01378,-0.01378*
%
%ADD65ROUNDEDRECTD65*%
%ADD66P,0.03619X4X260.0*%
%ADD67O,0.00984X0.03150*%
%ADD68O,0.03150X0.00984*%
%ADD69R,0.20079X0.20276*%
G04:AMPARAMS|DCode=70|XSize=39.37mil|YSize=140.55mil|CornerRadius=0.98mil|HoleSize=0mil|Usage=FLASHONLY|Rotation=270.000|XOffset=0mil|YOffset=0mil|HoleType=Round|Shape=RoundedRectangle|*
%AMROUNDEDRECTD70*
21,1,0.03937,0.13858,0,0,270.0*
21,1,0.03740,0.14055,0,0,270.0*
1,1,0.00197,-0.06929,-0.01870*
1,1,0.00197,-0.06929,0.01870*
1,1,0.00197,0.06929,0.01870*
1,1,0.00197,0.06929,-0.01870*
%
%ADD70ROUNDEDRECTD70*%
G04:AMPARAMS|DCode=71|XSize=39.37mil|YSize=140.55mil|CornerRadius=0.98mil|HoleSize=0mil|Usage=FLASHONLY|Rotation=180.000|XOffset=0mil|YOffset=0mil|HoleType=Round|Shape=RoundedRectangle|*
%AMROUNDEDRECTD71*
21,1,0.03937,0.13858,0,0,180.0*
21,1,0.03740,0.14055,0,0,180.0*
1,1,0.00197,-0.01870,0.06929*
1,1,0.00197,0.01870,0.06929*
1,1,0.00197,0.01870,-0.06929*
1,1,0.00197,-0.01870,-0.06929*
%
%ADD71ROUNDEDRECTD71*%
G04:AMPARAMS|DCode=72|XSize=39.37mil|YSize=127.56mil|CornerRadius=0.98mil|HoleSize=0mil|Usage=FLASHONLY|Rotation=180.000|XOffset=0mil|YOffset=0mil|HoleType=Round|Shape=RoundedRectangle|*
%AMROUNDEDRECTD72*
21,1,0.03937,0.12559,0,0,180.0*
21,1,0.03740,0.12756,0,0,180.0*
1,1,0.00197,-0.01870,0.06280*
1,1,0.00197,0.01870,0.06280*
1,1,0.00197,0.01870,-0.06280*
1,1,0.00197,-0.01870,-0.06280*
%
%ADD72ROUNDEDRECTD72*%
G04:AMPARAMS|DCode=73|XSize=39.37mil|YSize=127.56mil|CornerRadius=0.98mil|HoleSize=0mil|Usage=FLASHONLY|Rotation=90.000|XOffset=0mil|YOffset=0mil|HoleType=Round|Shape=RoundedRectangle|*
%AMROUNDEDRECTD73*
21,1,0.03937,0.12559,0,0,90.0*
21,1,0.03740,0.12756,0,0,90.0*
1,1,0.00197,0.06280,0.01870*
1,1,0.00197,0.06280,-0.01870*
1,1,0.00197,-0.06280,-0.01870*
1,1,0.00197,-0.06280,0.01870*
%
%ADD73ROUNDEDRECTD73*%
G04:AMPARAMS|DCode=74|XSize=39.37mil|YSize=149.61mil|CornerRadius=0.98mil|HoleSize=0mil|Usage=FLASHONLY|Rotation=90.000|XOffset=0mil|YOffset=0mil|HoleType=Round|Shape=RoundedRectangle|*
%AMROUNDEDRECTD74*
21,1,0.03937,0.14764,0,0,90.0*
21,1,0.03740,0.14961,0,0,90.0*
1,1,0.00197,0.07382,0.01870*
1,1,0.00197,0.07382,-0.01870*
1,1,0.00197,-0.07382,-0.01870*
1,1,0.00197,-0.07382,0.01870*
%
%ADD74ROUNDEDRECTD74*%
G04:AMPARAMS|DCode=75|XSize=39.37mil|YSize=149.61mil|CornerRadius=0.98mil|HoleSize=0mil|Usage=FLASHONLY|Rotation=0.000|XOffset=0mil|YOffset=0mil|HoleType=Round|Shape=RoundedRectangle|*
%AMROUNDEDRECTD75*
21,1,0.03937,0.14764,0,0,0.0*
21,1,0.03740,0.14961,0,0,0.0*
1,1,0.00197,0.01870,-0.07382*
1,1,0.00197,-0.01870,-0.07382*
1,1,0.00197,-0.01870,0.07382*
1,1,0.00197,0.01870,0.07382*
%
%ADD75ROUNDEDRECTD75*%
G04:AMPARAMS|DCode=76|XSize=78.74mil|YSize=78.74mil|CornerRadius=18.9mil|HoleSize=0mil|Usage=FLASHONLY|Rotation=180.000|XOffset=0mil|YOffset=0mil|HoleType=Round|Shape=RoundedRectangle|*
%AMROUNDEDRECTD76*
21,1,0.07874,0.04095,0,0,180.0*
21,1,0.04095,0.07874,0,0,180.0*
1,1,0.03780,-0.02047,0.02047*
1,1,0.03780,0.02047,0.02047*
1,1,0.03780,0.02047,-0.02047*
1,1,0.03780,-0.02047,-0.02047*
%
%ADD76ROUNDEDRECTD76*%
G04:AMPARAMS|DCode=77|XSize=78.74mil|YSize=78.74mil|CornerRadius=18.9mil|HoleSize=0mil|Usage=FLASHONLY|Rotation=90.000|XOffset=0mil|YOffset=0mil|HoleType=Round|Shape=RoundedRectangle|*
%AMROUNDEDRECTD77*
21,1,0.07874,0.04095,0,0,90.0*
21,1,0.04095,0.07874,0,0,90.0*
1,1,0.03780,0.02047,0.02047*
1,1,0.03780,0.02047,-0.02047*
1,1,0.03780,-0.02047,-0.02047*
1,1,0.03780,-0.02047,0.02047*
%
%ADD77ROUNDEDRECTD77*%
G04:AMPARAMS|DCode=78|XSize=78.74mil|YSize=78.74mil|CornerRadius=18.9mil|HoleSize=0mil|Usage=FLASHONLY|Rotation=90.000|XOffset=0mil|YOffset=0mil|HoleType=Round|Shape=RoundedRectangle|*
%AMROUNDEDRECTD78*
21,1,0.07874,0.04095,0,0,90.0*
21,1,0.04095,0.07874,0,0,90.0*
1,1,0.03780,0.02047,0.02047*
1,1,0.03780,0.02047,-0.02047*
1,1,0.03780,-0.02047,-0.02047*
1,1,0.03780,-0.02047,0.02047*
%
%ADD78ROUNDEDRECTD78*%
G04:AMPARAMS|DCode=79|XSize=78.74mil|YSize=78.74mil|CornerRadius=18.9mil|HoleSize=0mil|Usage=FLASHONLY|Rotation=90.000|XOffset=0mil|YOffset=0mil|HoleType=Round|Shape=RoundedRectangle|*
%AMROUNDEDRECTD79*
21,1,0.07874,0.04095,0,0,90.0*
21,1,0.04095,0.07874,0,0,90.0*
1,1,0.03780,0.02047,0.02047*
1,1,0.03780,0.02047,-0.02047*
1,1,0.03780,-0.02047,-0.02047*
1,1,0.03780,-0.02047,0.02047*
%
%ADD79ROUNDEDRECTD79*%
%ADD80C,0.07091*%
%ADD81R,0.01811X0.01969*%
%ADD82R,0.03937X0.01969*%
G04:AMPARAMS|DCode=83|XSize=181.1mil|YSize=181.1mil|CornerRadius=4.53mil|HoleSize=0mil|Usage=FLASHONLY|Rotation=270.000|XOffset=0mil|YOffset=0mil|HoleType=Round|Shape=RoundedRectangle|*
%AMROUNDEDRECTD83*
21,1,0.18110,0.17205,0,0,270.0*
21,1,0.17205,0.18110,0,0,270.0*
1,1,0.00906,-0.08602,-0.08602*
1,1,0.00906,-0.08602,0.08602*
1,1,0.00906,0.08602,0.08602*
1,1,0.00906,0.08602,-0.08602*
%
%ADD83ROUNDEDRECTD83*%
%ADD84O,0.01181X0.03150*%
%ADD85O,0.03150X0.01181*%
%ADD86R,0.06102X0.04331*%
%ADD87R,0.03150X0.07874*%
%ADD88C,0.03937*%
%ADD89R,0.03347X0.02362*%
%ADD90R,0.00984X0.01969*%
%ADD91R,0.01969X0.05709*%
%ADD92C,0.01200*%
%ADD93C,0.01900*%
%ADD94C,0.03150*%
%ADD95C,0.00800*%
%ADD96C,0.00700*%
%ADD97C,0.02362*%
%ADD98C,0.02500*%
%ADD99C,0.02953*%
%ADD100C,0.01969*%
%ADD101R,0.06300X0.06000*%
%ADD102R,0.03937X0.03439*%
%ADD103R,0.01800X0.03339*%
%ADD104R,0.14374X0.01900*%
%ADD105C,0.09100*%
G04:AMPARAMS|DCode=106|XSize=86.61mil|YSize=173.23mil|CornerRadius=4.33mil|HoleSize=0mil|Usage=FLASHONLY|Rotation=180.000|XOffset=0mil|YOffset=0mil|HoleType=Round|Shape=RoundedRectangle|*
%AMROUNDEDRECTD106*
21,1,0.08661,0.16457,0,0,180.0*
21,1,0.07795,0.17323,0,0,180.0*
1,1,0.00866,-0.03898,0.08228*
1,1,0.00866,0.03898,0.08228*
1,1,0.00866,0.03898,-0.08228*
1,1,0.00866,-0.03898,-0.08228*
%
%ADD106ROUNDEDRECTD106*%
G04:AMPARAMS|DCode=107|XSize=129.92mil|YSize=314.96mil|CornerRadius=32.48mil|HoleSize=0mil|Usage=FLASHONLY|Rotation=0.000|XOffset=0mil|YOffset=0mil|HoleType=Round|Shape=RoundedRectangle|*
%AMROUNDEDRECTD107*
21,1,0.12992,0.25000,0,0,0.0*
21,1,0.06496,0.31496,0,0,0.0*
1,1,0.06496,0.03248,-0.12500*
1,1,0.06496,-0.03248,-0.12500*
1,1,0.06496,-0.03248,0.12500*
1,1,0.06496,0.03248,0.12500*
%
%ADD107ROUNDEDRECTD107*%
%ADD108C,0.03500*%
%ADD109C,0.03940*%
G36*
X58782Y42217D02*
X58782Y41104D01*
X57947Y41939D01*
X58504Y42496D01*
X58782Y42217D01*
D02*
G37*
G36*
X60453Y41939D02*
X59618Y41104D01*
X59618Y42217D01*
X59896Y42496D01*
X60453Y41939D01*
D02*
G37*
G36*
X49532Y48684D02*
X47433Y46585D01*
X48204Y45814D01*
X48416Y46026D01*
X52082Y42360D01*
X51740Y41995D01*
X50748D01*
X50366Y42566D01*
X49556Y43108D01*
X48600Y43298D01*
X47644Y43108D01*
X46834Y42566D01*
X46292Y41756D01*
X46102Y40800D01*
X46292Y39844D01*
X46518Y39506D01*
X46282Y39065D01*
X41177D01*
X40220Y40022D01*
Y43015D01*
X40465Y43179D01*
X42639Y45353D01*
X43400Y45202D01*
X44356Y45392D01*
X45166Y45934D01*
X45708Y46744D01*
X45850Y47460D01*
X46382Y47636D01*
X46725Y47292D01*
X48825Y49391D01*
X49532Y48684D01*
D02*
G37*
G36*
X148590Y30524D02*
Y20529D01*
X148128Y20337D01*
X141123Y27343D01*
X140759Y27586D01*
X140330Y27672D01*
X140330Y27672D01*
X140315D01*
X133711Y34275D01*
X133902Y34737D01*
X135308D01*
Y33579D01*
X138551D01*
Y33279D01*
X140272D01*
Y35500D01*
X141272D01*
Y33279D01*
X142992D01*
Y35469D01*
X143454Y35660D01*
X148590Y30524D01*
D02*
G37*
G36*
X88948Y33928D02*
X88844Y33908D01*
X88034Y33366D01*
X87492Y32556D01*
X87302Y31600D01*
X87492Y30644D01*
X88034Y29834D01*
X88844Y29292D01*
X89800Y29102D01*
X89993Y29140D01*
X90239Y28680D01*
X88607Y27047D01*
X89824Y25831D01*
X91394Y27401D01*
X92101Y26694D01*
X90531Y25124D01*
X90909Y24746D01*
X90908Y24738D01*
X84736Y18566D01*
X84273Y18757D01*
Y30237D01*
X85056Y30392D01*
X85866Y30934D01*
X86408Y31744D01*
X86598Y32700D01*
X86408Y33656D01*
X86186Y33988D01*
X86422Y34428D01*
X88898D01*
X88948Y33928D01*
D02*
G37*
G36*
X48004Y30176D02*
X48434Y29534D01*
X49244Y28992D01*
X50200Y28802D01*
X51021Y28965D01*
X52629Y27356D01*
Y24540D01*
X52711Y24130D01*
X52943Y23783D01*
X53929Y22797D01*
Y21386D01*
X49296Y16752D01*
X48796Y16959D01*
Y17000D01*
X42852D01*
Y18000D01*
X48796D01*
Y18652D01*
X48708Y19092D01*
X48459Y19465D01*
X48086Y19714D01*
X47930Y19745D01*
Y20255D01*
X48086Y20286D01*
X48459Y20535D01*
X48708Y20908D01*
X48796Y21348D01*
Y22000D01*
X42852D01*
Y22500D01*
X42352D01*
Y24802D01*
X38059D01*
X37708Y25164D01*
X37685Y25591D01*
X39123Y27029D01*
X42100D01*
X42510Y27111D01*
X42857Y27343D01*
X44379Y28865D01*
X45200Y28702D01*
X46156Y28892D01*
X46966Y29434D01*
X47456Y30166D01*
X47459Y30167D01*
X47805Y30204D01*
X48004Y30176D01*
D02*
G37*
G36*
X233429Y68600D02*
X233511Y68190D01*
X233743Y67843D01*
X241543Y60043D01*
X241543Y60043D01*
X241890Y59811D01*
X242300Y59729D01*
X242300Y59729D01*
X273729D01*
Y-59729D01*
X242300D01*
X242300Y-59729D01*
X241890Y-59811D01*
X241543Y-60043D01*
X241543Y-60043D01*
X233743Y-67843D01*
X233511Y-68190D01*
X233429Y-68600D01*
Y-89229D01*
X221280D01*
X221089Y-88997D01*
Y-73603D01*
X221021Y-73261D01*
X220827Y-72971D01*
X220537Y-72777D01*
X220317Y-72733D01*
X220493Y-71393D01*
X221054Y-70039D01*
X221331Y-69678D01*
X223399Y-68230D01*
X223431Y-68275D01*
X226569Y-66078D01*
X226979Y-65791D01*
X227084Y-65717D01*
X230222Y-63520D01*
X230186Y-63469D01*
X233199Y-61360D01*
X233049Y-61145D01*
X237327Y-57996D01*
X237416Y-57899D01*
X237526Y-57826D01*
X239697Y-55655D01*
X239699Y-55657D01*
X240895Y-54256D01*
X241857Y-52686D01*
X242562Y-50985D01*
X242992Y-49194D01*
X243090Y-47945D01*
X243379D01*
Y-44114D01*
X243379Y-43614D01*
X243379Y-43486D01*
Y-39977D01*
X245413D01*
Y-38929D01*
X246021D01*
Y-39645D01*
X249979D01*
Y-38929D01*
X251396D01*
X251904Y-38828D01*
X252333Y-38541D01*
X253537Y-37337D01*
X253825Y-36907D01*
X253925Y-36400D01*
Y-35861D01*
X254366Y-35566D01*
X254908Y-34756D01*
X255098Y-33800D01*
X254908Y-32844D01*
X254366Y-32034D01*
X253556Y-31492D01*
X252600Y-31302D01*
X251644Y-31492D01*
X250834Y-32034D01*
X250780Y-32115D01*
X250279Y-31963D01*
Y-31055D01*
X248500D01*
Y-33335D01*
X248000D01*
Y-33835D01*
X245721D01*
Y-34858D01*
X245413Y-35230D01*
X242438D01*
Y-35230D01*
X240295D01*
Y-35230D01*
X237320D01*
Y-35455D01*
X234166D01*
X233908Y-34955D01*
X234308Y-34356D01*
X234498Y-33400D01*
X234308Y-32444D01*
X233766Y-31634D01*
X232956Y-31092D01*
X232000Y-30902D01*
X231044Y-31092D01*
X230234Y-31634D01*
X229803Y-32278D01*
X224945D01*
Y-31521D01*
X224845D01*
Y-27621D01*
X221014D01*
X220886Y-27621D01*
X220514D01*
X220386Y-27621D01*
X216555D01*
Y-29993D01*
X216550Y-29999D01*
X198010D01*
X198010Y-29999D01*
X197581Y-30084D01*
X197532Y-30117D01*
X196976Y-29887D01*
X196908Y-29544D01*
X196366Y-28734D01*
X195556Y-28192D01*
X194600Y-28002D01*
X193644Y-28192D01*
X193605Y-28218D01*
X191022Y-25635D01*
Y-22900D01*
X191022Y-22900D01*
X190936Y-22471D01*
X190693Y-22107D01*
X189914Y-21328D01*
X190118Y-20835D01*
X190228Y-20000D01*
X190118Y-19165D01*
X189795Y-18386D01*
X190201Y-18116D01*
X190748Y-18829D01*
X191601Y-19484D01*
X192020Y-19657D01*
Y-20779D01*
X191720Y-20851D01*
Y-22631D01*
X194000D01*
X196280D01*
Y-21430D01*
X196743Y-20945D01*
X199686D01*
X199814Y-20945D01*
X200314Y-20945D01*
X203684D01*
X203921Y-20945D01*
X203921Y-21258D01*
Y-22631D01*
X206200D01*
X208479D01*
Y-20851D01*
X208950Y-20779D01*
X211686D01*
X212186Y-20779D01*
X212314Y-20779D01*
X216145D01*
Y-20533D01*
X216901D01*
X216923Y-20566D01*
X217176Y-20735D01*
X217272Y-20754D01*
X217272Y-21264D01*
X217059Y-21307D01*
X216707Y-21542D01*
X216472Y-21894D01*
X216389Y-22309D01*
Y-23024D01*
X219576D01*
X222762D01*
Y-22309D01*
X222679Y-21894D01*
X222444Y-21542D01*
X222092Y-21307D01*
X221879Y-21264D01*
X221879Y-20754D01*
X221975Y-20735D01*
X222228Y-20566D01*
X222397Y-20314D01*
X222456Y-20016D01*
Y-17584D01*
X222397Y-17286D01*
X222228Y-17034D01*
X221975Y-16865D01*
X221879Y-16846D01*
Y-16336D01*
X222092Y-16293D01*
X222444Y-16058D01*
X222679Y-15706D01*
X222762Y-15291D01*
Y-14576D01*
X219576D01*
X216389D01*
Y-15291D01*
X216472Y-15706D01*
X216707Y-16058D01*
X217059Y-16293D01*
X217272Y-16336D01*
Y-16846D01*
X217176Y-16865D01*
X216923Y-17034D01*
X216901Y-17067D01*
X216145D01*
Y-16820D01*
X212314D01*
X211814Y-16820D01*
X211686Y-16820D01*
X207855D01*
Y-16820D01*
X204221D01*
X204145Y-16986D01*
X200314D01*
X200186Y-16986D01*
X199686Y-16986D01*
X195979D01*
Y-16820D01*
X192300D01*
X192122Y-16554D01*
X191998Y-15931D01*
X192001Y-15917D01*
Y-13062D01*
X192093Y-12598D01*
Y-10630D01*
X191993Y-10126D01*
X192244Y-9976D01*
X192269Y-9971D01*
X192750Y-9650D01*
X193071Y-9169D01*
X193076Y-9144D01*
X193226Y-8893D01*
X193730Y-8993D01*
X195698D01*
X196202Y-8893D01*
X196629Y-8608D01*
X196914Y-8181D01*
X197014Y-7677D01*
X196914Y-7174D01*
X196751Y-6929D01*
X196792Y-6300D01*
X196845Y-6265D01*
X197197Y-5739D01*
X197221Y-5618D01*
X194714D01*
Y-4618D01*
X197221D01*
X197197Y-4498D01*
X197135Y-4405D01*
X197402Y-3905D01*
X201955D01*
Y-6080D01*
Y-9780D01*
X202675D01*
Y-10739D01*
X202234Y-11034D01*
X201692Y-11844D01*
X201502Y-12800D01*
X201692Y-13756D01*
X202234Y-14566D01*
X203044Y-15108D01*
X204000Y-15298D01*
X204956Y-15108D01*
X205766Y-14566D01*
X206308Y-13756D01*
X206498Y-12800D01*
X206308Y-11844D01*
X205766Y-11034D01*
X205326Y-10739D01*
Y-9780D01*
X205914D01*
X205986Y-10080D01*
X207765D01*
Y-7800D01*
X208765D01*
Y-10080D01*
X209720D01*
Y-10245D01*
X211500D01*
Y-7965D01*
X212000D01*
Y-7465D01*
X214280D01*
Y-5686D01*
X213980Y-5614D01*
Y-1655D01*
X213326D01*
Y-1161D01*
X213766Y-866D01*
X214061Y-426D01*
X214620D01*
Y-745D01*
X218320D01*
Y-1345D01*
X220100D01*
Y935D01*
X220600D01*
Y1435D01*
X222880D01*
Y2399D01*
X223263Y2721D01*
X225901Y2255D01*
X226027Y2233D01*
X226393Y2169D01*
X230094Y1516D01*
X230128Y1457D01*
Y1457D01*
X233728Y147D01*
X233848Y103D01*
X234198Y-24D01*
X234318Y-68D01*
X237918Y-1378D01*
X237918Y-1378D01*
X238414Y-1476D01*
X239638Y-2700D01*
X239876Y-3100D01*
X240005Y-3583D01*
X240867Y-6800D01*
X240900Y-6924D01*
X241030Y-7407D01*
X242016Y-11088D01*
Y-14585D01*
X242320D01*
Y-18286D01*
X242320Y-18414D01*
X242320Y-18914D01*
Y-22621D01*
X242255D01*
Y-26579D01*
X242409D01*
Y-27450D01*
X241867D01*
Y-30123D01*
Y-32797D01*
X243154D01*
Y-32497D01*
X245220D01*
X245413Y-32497D01*
X245692Y-32835D01*
X247500D01*
Y-31055D01*
X245913D01*
X245721Y-31055D01*
X245413Y-30682D01*
Y-30270D01*
X245442Y-30123D01*
Y-26579D01*
X246214D01*
X246286Y-26880D01*
X248065D01*
Y-24600D01*
X248565D01*
Y-24100D01*
X250845D01*
Y-22321D01*
X250279D01*
Y-18914D01*
X250279Y-18414D01*
X250279Y-18286D01*
Y-14886D01*
X250606D01*
Y-13106D01*
X248326D01*
Y-12606D01*
X247826D01*
Y-10327D01*
X246707D01*
X246641Y-9826D01*
X249385Y-9091D01*
X248393Y-5391D01*
X248264Y-4908D01*
X248231Y-4784D01*
X247239Y-1084D01*
X243415Y-2109D01*
X243426Y-2149D01*
X242930Y-2282D01*
X242606Y-1594D01*
X243153Y-1046D01*
X243631Y-993D01*
X244889Y266D01*
X243278Y1878D01*
X241666Y3489D01*
X240622Y2446D01*
X240407Y2231D01*
X240354Y1753D01*
X239851Y1250D01*
X239030Y1677D01*
X239272Y2342D01*
X235672Y3653D01*
X235552Y3697D01*
X235202Y3824D01*
X235082Y3868D01*
X231482Y5178D01*
X231423Y5017D01*
X230939Y5147D01*
X230980Y5380D01*
X227207Y6045D01*
X227081Y6068D01*
X226715Y6132D01*
X226589Y6154D01*
X223378Y6720D01*
X223422Y7220D01*
X225255D01*
Y7120D01*
X229086D01*
X229214Y7120D01*
X229714Y7120D01*
X233279D01*
X233289Y6998D01*
X237233Y7344D01*
X237203Y7688D01*
X237594Y7739D01*
X237964Y7893D01*
X238697Y7019D01*
X238776Y7085D01*
X241097Y4319D01*
X244032Y6782D01*
X244415Y7103D01*
X244513Y7186D01*
X247448Y9648D01*
X244903Y12681D01*
X244824Y12615D01*
X244303Y13236D01*
X244737Y14048D01*
X245673Y13883D01*
X245692Y13575D01*
X247444Y13266D01*
X247840Y15511D01*
X248332Y15424D01*
X248419Y15916D01*
X250664Y15521D01*
X250973Y17273D01*
X250446Y17366D01*
X250480Y17755D01*
X250480D01*
Y21586D01*
X250480Y22086D01*
X250480Y22214D01*
Y25220D01*
X250845D01*
Y27000D01*
X248565D01*
Y27500D01*
X248065D01*
Y29779D01*
X246286D01*
X246214Y29480D01*
X245442D01*
Y31460D01*
X245413Y31606D01*
Y33833D01*
X243154D01*
Y34133D01*
X241867D01*
Y31460D01*
Y28787D01*
X242255D01*
Y25521D01*
X242320D01*
Y22214D01*
X242320Y22086D01*
Y21714D01*
X242320Y21586D01*
Y17755D01*
X242320D01*
X242333Y17740D01*
X241867Y15096D01*
X241757Y14889D01*
X241402Y14457D01*
X239568Y12918D01*
X239470Y12836D01*
X239087Y12514D01*
X237638Y11299D01*
X237166Y11555D01*
X237026Y13158D01*
X234755Y12959D01*
X232484Y12760D01*
X232599Y11448D01*
X232261Y11079D01*
X229714D01*
X229586Y11079D01*
X229086Y11079D01*
X225845D01*
Y11180D01*
X221886D01*
Y11180D01*
X221514D01*
Y11180D01*
X218935D01*
X218479Y11286D01*
X218479Y13065D01*
X216200D01*
Y13565D01*
X215700D01*
Y15845D01*
X213920D01*
Y15598D01*
X213421Y15331D01*
X212856Y15708D01*
X211900Y15898D01*
X210944Y15708D01*
X210134Y15166D01*
X209816Y14691D01*
X208279D01*
Y15314D01*
X208579Y15386D01*
Y17165D01*
X206300D01*
X204021D01*
Y15545D01*
X200621D01*
Y11714D01*
X200621Y11586D01*
Y11214D01*
X200621Y11086D01*
Y10747D01*
X199583Y10610D01*
X198528Y10173D01*
X197622Y9478D01*
X197622Y9478D01*
X197217Y9249D01*
X196955Y9196D01*
Y9194D01*
X193700D01*
X193580Y9170D01*
X193071Y9169D01*
X192750Y9650D01*
X192269Y9971D01*
X192244Y9976D01*
X191993Y10126D01*
X192093Y10630D01*
Y12598D01*
Y18777D01*
X192087Y18809D01*
X192229Y19525D01*
X192583Y20055D01*
X195855D01*
Y20020D01*
X199686D01*
X199814Y20020D01*
X200186D01*
X200314Y20020D01*
X203552D01*
X204021Y19945D01*
X204021Y19521D01*
Y18165D01*
X206300D01*
X208579D01*
X208579Y19945D01*
X209048Y20020D01*
X211386D01*
X211514Y20020D01*
X211886D01*
X212014Y20020D01*
X215845D01*
Y20483D01*
X217557D01*
X217723Y20234D01*
X217976Y20065D01*
X218072Y20046D01*
Y19536D01*
X217859Y19493D01*
X217507Y19258D01*
X217272Y18906D01*
X217189Y18491D01*
Y17776D01*
X220376D01*
X223562D01*
Y18491D01*
X223479Y18906D01*
X223244Y19258D01*
X222892Y19493D01*
X222679Y19536D01*
Y20046D01*
X222775Y20065D01*
X223028Y20234D01*
X223197Y20486D01*
X223256Y20785D01*
Y23216D01*
X223197Y23514D01*
X223028Y23766D01*
X222775Y23935D01*
X222679Y23954D01*
X222679Y24464D01*
X222892Y24507D01*
X223244Y24742D01*
X223479Y25094D01*
X223562Y25509D01*
Y26224D01*
X220376D01*
X217189D01*
Y25509D01*
X217272Y25094D01*
X217507Y24742D01*
X217859Y24507D01*
X218073Y24464D01*
X218073Y23954D01*
X217976Y23935D01*
X217723Y23766D01*
X217557Y23516D01*
X215845D01*
Y23979D01*
X212014D01*
X211886Y23979D01*
X211514D01*
X211386Y23979D01*
X208650D01*
X208179Y24051D01*
X208179Y24479D01*
Y25831D01*
X205900D01*
X203621D01*
X203621Y24051D01*
X203150Y23979D01*
X200314D01*
X200186Y23979D01*
X199814D01*
X199686Y23979D01*
X196935D01*
X196479Y24086D01*
X196479Y25865D01*
X194200D01*
X191920D01*
Y24390D01*
X191920Y24086D01*
X192220Y23710D01*
Y22948D01*
X191741Y22750D01*
X190791Y22021D01*
X190751Y21969D01*
X190343Y22258D01*
Y23970D01*
X188064D01*
Y24470D01*
X187564D01*
Y26750D01*
X185784D01*
Y26745D01*
X184800D01*
Y24465D01*
X183800D01*
Y26745D01*
X182916D01*
Y30499D01*
X183266Y30734D01*
X183775Y31495D01*
X185840Y33560D01*
X186343Y34312D01*
X186519Y35200D01*
Y42041D01*
X187502D01*
Y43081D01*
X187854D01*
X188741Y43257D01*
X189494Y43760D01*
X189560Y43859D01*
X189659Y43925D01*
X190012Y44278D01*
X200039D01*
X200230Y43817D01*
X195961Y39547D01*
X195200Y39698D01*
X194244Y39508D01*
X193434Y38966D01*
X192892Y38156D01*
X192702Y37200D01*
X192892Y36244D01*
X193434Y35434D01*
X194244Y34892D01*
X195200Y34702D01*
X196156Y34892D01*
X196966Y35434D01*
X197508Y36244D01*
X197698Y37200D01*
X197547Y37961D01*
X202365Y42778D01*
X205239D01*
X205430Y42316D01*
X202261Y39147D01*
X201500Y39298D01*
X200544Y39108D01*
X199734Y38566D01*
X199192Y37756D01*
X199002Y36800D01*
X199192Y35844D01*
X199734Y35034D01*
X200544Y34492D01*
X201500Y34302D01*
X202456Y34492D01*
X203266Y35034D01*
X203808Y35844D01*
X203998Y36800D01*
X203847Y37561D01*
X207565Y41278D01*
X214770D01*
X218855Y37193D01*
Y34821D01*
X222686D01*
X222814Y34821D01*
X223186D01*
X223314Y34821D01*
X227145D01*
Y35678D01*
X229343D01*
X229712Y35251D01*
X229602Y34700D01*
X229792Y33744D01*
X230334Y32934D01*
X231144Y32392D01*
X232100Y32202D01*
X233056Y32392D01*
X233866Y32934D01*
X234408Y33744D01*
X234598Y34700D01*
X234408Y35656D01*
X233874Y36455D01*
X233887Y36526D01*
X234035Y36955D01*
X237320D01*
Y36567D01*
X239879D01*
Y36567D01*
X245413D01*
Y37055D01*
X247293D01*
X248375Y35974D01*
X248363Y35956D01*
X248173Y35000D01*
X248363Y34044D01*
X248905Y33234D01*
X249715Y32692D01*
X250671Y32502D01*
X251627Y32692D01*
X252438Y33234D01*
X252979Y34044D01*
X253169Y35000D01*
X252979Y35956D01*
X252438Y36766D01*
X251627Y37308D01*
X250671Y37498D01*
X250130Y37390D01*
X248979Y38541D01*
Y41014D01*
X249279Y41086D01*
Y42865D01*
X247000D01*
X244721D01*
Y41313D01*
X243379D01*
Y44786D01*
X243380Y45286D01*
X243380Y45414D01*
Y49245D01*
X243256D01*
X243148Y49700D01*
X243148D01*
X242957Y51152D01*
X242396Y52505D01*
X241505Y53667D01*
X241505Y53667D01*
X241130Y53970D01*
X233028Y60716D01*
X233199Y60960D01*
X230295Y62993D01*
X229931Y63344D01*
X229931Y63344D01*
X229931Y63344D01*
X226793Y65541D01*
X226688Y65615D01*
X226278Y65902D01*
X223222Y68041D01*
X223284Y68130D01*
X221134Y69636D01*
X220961Y69861D01*
X220474Y71036D01*
X220318Y72222D01*
X220333Y72297D01*
Y72736D01*
X220537Y72777D01*
X220827Y72971D01*
X221021Y73261D01*
X221089Y73603D01*
Y88997D01*
X221280Y89229D01*
X233429D01*
Y68600D01*
D02*
G37*
G36*
X49596Y52796D02*
X49317Y52518D01*
X48204Y52518D01*
X49039Y53353D01*
X49596Y52796D01*
D02*
G37*
G36*
X70196Y52518D02*
X69083D01*
X68804Y52796D01*
X69361Y53353D01*
X70196Y52518D01*
D02*
G37*
G36*
X178181Y58279D02*
Y54331D01*
X183912D01*
Y57855D01*
X184373Y58047D01*
X189281Y53139D01*
Y50107D01*
X187928Y48755D01*
X187502Y48559D01*
Y48559D01*
X187502Y48559D01*
X181091D01*
X180716Y48859D01*
X180716Y48859D01*
X180716Y48859D01*
X177657D01*
Y45300D01*
Y41741D01*
X180716D01*
Y41741D01*
X180984Y42041D01*
X181881D01*
Y36161D01*
X180495Y34775D01*
X179734Y34266D01*
X179192Y33456D01*
X179002Y32500D01*
X179192Y31544D01*
X179734Y30734D01*
X180284Y30366D01*
Y26745D01*
X179334D01*
Y24465D01*
X178334D01*
Y26745D01*
X176931D01*
Y31829D01*
X176931Y31829D01*
X176846Y32258D01*
X176602Y32622D01*
X175931Y33293D01*
X175709Y33441D01*
Y36188D01*
X172544D01*
Y37188D01*
X175709D01*
Y40641D01*
X173839D01*
Y41741D01*
X176657D01*
Y44800D01*
X173598D01*
Y44302D01*
X172060D01*
Y42023D01*
X171060D01*
Y44302D01*
X169280D01*
X169208Y44002D01*
X167272D01*
X167229Y44011D01*
X167185Y44002D01*
X165249D01*
Y42066D01*
X165241Y42023D01*
Y40341D01*
X163380D01*
Y35169D01*
X162886Y35087D01*
X162643Y35450D01*
X162643Y35450D01*
X160322Y37772D01*
Y43735D01*
X163608Y47022D01*
X165295D01*
X165295Y47022D01*
X165724Y47107D01*
X166088Y47351D01*
X166790Y48053D01*
X166790Y48053D01*
X167033Y48417D01*
X167119Y48846D01*
X167119Y48846D01*
Y53579D01*
X167119Y53579D01*
X167033Y54008D01*
X166790Y54372D01*
X166790Y54372D01*
X165965Y55196D01*
X165916Y55229D01*
X166068Y55729D01*
X171488D01*
Y54331D01*
X177219D01*
Y58587D01*
X177681Y58778D01*
X178181Y58279D01*
D02*
G37*
G36*
X70196Y51682D02*
X69361Y50847D01*
X68804Y51404D01*
X69083Y51682D01*
X70196Y51682D01*
D02*
G37*
G36*
X82068Y55389D02*
X82347Y55215D01*
Y53268D01*
X82459Y52707D01*
X82778Y52230D01*
X83254Y51912D01*
X83816Y51800D01*
X85296D01*
X85858Y51912D01*
X86334Y52230D01*
X86653Y52707D01*
X86722Y53054D01*
X90780D01*
Y51928D01*
X93000D01*
X95221D01*
Y53054D01*
X97772D01*
X97772Y53054D01*
X98506Y53200D01*
X99128Y53615D01*
X100337Y54825D01*
X100726Y54506D01*
X100692Y54456D01*
X100502Y53500D01*
X100692Y52544D01*
X101234Y51734D01*
X101777Y51371D01*
Y50249D01*
X101870Y49780D01*
X102135Y49384D01*
X102385Y49134D01*
X102194Y48672D01*
X84685D01*
X84498Y48900D01*
X84308Y49856D01*
X83766Y50666D01*
X82956Y51208D01*
X82000Y51398D01*
X81668Y51332D01*
X81244Y51758D01*
Y53226D01*
X81253Y53268D01*
Y54827D01*
X81858Y55432D01*
X82068Y55389D01*
D02*
G37*
G36*
X150234Y53282D02*
X164708D01*
X164875Y53114D01*
Y49310D01*
X164830Y49265D01*
X163144D01*
X163144Y49265D01*
X162714Y49180D01*
X162351Y48937D01*
X158407Y44993D01*
X158164Y44629D01*
X158078Y44200D01*
X158078Y44200D01*
Y38547D01*
X157616Y38356D01*
X156679Y39293D01*
X156315Y39536D01*
X155886Y39622D01*
X155886Y39622D01*
X151150D01*
X150842Y39929D01*
Y51395D01*
X150842Y51395D01*
X150757Y51824D01*
X150514Y52188D01*
X150514Y52188D01*
X149855Y52847D01*
X150101Y53308D01*
X150234Y53282D01*
D02*
G37*
G36*
X49317Y51682D02*
X49596Y51404D01*
X49039Y50847D01*
X48204Y51682D01*
X49317Y51682D01*
D02*
G37*
G36*
X155278Y-15665D02*
Y-17276D01*
X155278Y-17276D01*
X155364Y-17705D01*
X155607Y-18069D01*
X159215Y-21677D01*
X158979Y-22118D01*
X158900Y-22102D01*
X157944Y-22292D01*
X157134Y-22834D01*
X156592Y-23644D01*
X156402Y-24600D01*
X156592Y-25556D01*
X157134Y-26366D01*
X157944Y-26908D01*
X158540Y-27027D01*
X160421Y-28907D01*
Y-30714D01*
X160421D01*
Y-31086D01*
X160421D01*
Y-31944D01*
X157351D01*
X157014Y-31607D01*
X156650Y-31364D01*
X156221Y-31278D01*
X156221Y-31278D01*
X151699D01*
X150844Y-30424D01*
Y-16123D01*
X150844Y-16123D01*
X150759Y-15694D01*
X150577Y-15421D01*
X150683Y-15088D01*
X150799Y-14921D01*
X154535D01*
X155278Y-15665D01*
D02*
G37*
G36*
X173124Y-9144D02*
X173129Y-9169D01*
X173450Y-9650D01*
X173931Y-9971D01*
X173835Y-10462D01*
X173801Y-10630D01*
Y-11114D01*
X175423D01*
Y-11614D01*
X175923D01*
Y-14121D01*
X176043Y-14097D01*
X176360Y-13885D01*
X176860Y-14141D01*
Y-16847D01*
X171721Y-21986D01*
X171148D01*
X169293Y-20131D01*
X168939Y-19777D01*
X166787Y-17625D01*
X166668Y-17392D01*
X166929Y-16907D01*
X168579D01*
Y-15127D01*
X166299D01*
Y-14127D01*
X168579D01*
Y-12348D01*
X168279Y-12276D01*
Y-10178D01*
X169463Y-8993D01*
X172470D01*
X172974Y-8893D01*
X173124Y-9144D01*
D02*
G37*
G36*
X159426Y3680D02*
X159406Y2993D01*
X158317Y1905D01*
X156925Y513D01*
X159307Y-1869D01*
X159431Y-1993D01*
X161813Y-4375D01*
X161888Y-4300D01*
X162276Y-4618D01*
X162192Y-4744D01*
X162002Y-5700D01*
X162192Y-6656D01*
X162734Y-7466D01*
X163184Y-7767D01*
Y-8497D01*
X163284Y-9001D01*
X163570Y-9428D01*
X164320Y-10178D01*
Y-12276D01*
X164020Y-12348D01*
Y-14223D01*
X163558Y-14414D01*
X161707Y-12563D01*
X161693Y-12543D01*
X161693Y-12543D01*
X157657Y-8507D01*
X157293Y-8264D01*
X156864Y-8178D01*
X156864Y-8178D01*
X152065D01*
X150853Y-6967D01*
Y11599D01*
X151315Y11791D01*
X159426Y3680D01*
D02*
G37*
G36*
X165813Y-28375D02*
X165813D01*
X166220Y-28598D01*
X166329Y-28670D01*
X166758Y-28755D01*
X172588D01*
X172835Y-29255D01*
X172681Y-29455D01*
X169621D01*
Y-33414D01*
X169621Y-33414D01*
Y-33786D01*
X169621D01*
X169621Y-33914D01*
Y-35378D01*
X164741D01*
X164380Y-35045D01*
Y-31086D01*
X164380D01*
Y-30714D01*
X164380D01*
Y-27595D01*
X164841Y-27403D01*
X165813Y-28375D01*
D02*
G37*
G36*
X120774Y-64695D02*
X148254D01*
Y-88987D01*
X47546D01*
Y-84223D01*
X112113D01*
Y-77136D01*
X108176D01*
Y-75160D01*
X104593Y-69963D01*
Y-61782D01*
X106404D01*
Y-69400D01*
X108455Y-72373D01*
X120774D01*
Y-77136D01*
X116837D01*
Y-80286D01*
X139672D01*
Y-69774D01*
X108176D01*
Y-61782D01*
X112113D01*
Y-64695D01*
X116837D01*
Y-61782D01*
X120774D01*
Y-64695D01*
D02*
G37*
G36*
X185134Y-27266D02*
X185944Y-27808D01*
X186900Y-27998D01*
X187661Y-27847D01*
X190628Y-30815D01*
Y-31681D01*
X190628Y-31681D01*
X190714Y-32110D01*
X190957Y-32474D01*
X192626Y-34143D01*
X192990Y-34386D01*
X193420Y-34472D01*
X193420Y-34472D01*
X194689D01*
X194880Y-34934D01*
X191735Y-38078D01*
X189086D01*
X185670Y-34663D01*
X185719Y-34165D01*
X185866Y-34066D01*
X186408Y-33256D01*
X186598Y-32300D01*
X186408Y-31344D01*
X185866Y-30534D01*
X185056Y-29992D01*
X184866Y-29954D01*
X184479Y-29680D01*
X184479Y-29539D01*
Y-27187D01*
X184979Y-27036D01*
X185134Y-27266D01*
D02*
G37*
G36*
X216655Y-35480D02*
X220486D01*
X220614Y-35480D01*
X220986D01*
X221114Y-35480D01*
X222614D01*
X223055Y-35620D01*
X223055Y-35980D01*
Y-37993D01*
X222970Y-38078D01*
X203765D01*
X202147Y-36461D01*
X202298Y-35700D01*
X202108Y-34744D01*
X201825Y-34322D01*
X202093Y-33822D01*
X216655D01*
Y-35480D01*
D02*
G37*
G36*
X32163Y32643D02*
X26508Y26988D01*
X26005Y26235D01*
X25828Y25348D01*
Y24496D01*
X23354D01*
X23031Y24431D01*
X22757Y24249D01*
X22574Y23975D01*
X22510Y23652D01*
Y21348D01*
X22574Y21025D01*
X22757Y20752D01*
X23031Y20569D01*
X23354Y20504D01*
X25828D01*
Y19496D01*
X23354D01*
X23031Y19432D01*
X22757Y19249D01*
X22574Y18975D01*
X22510Y18652D01*
Y16348D01*
X22574Y16025D01*
X22757Y15752D01*
X23031Y15568D01*
X23354Y15504D01*
X32941D01*
X33264Y15568D01*
X33429Y15679D01*
X33810Y15548D01*
X33929Y15458D01*
Y14542D01*
X33810Y14453D01*
X33429Y14321D01*
X33264Y14432D01*
X32941Y14496D01*
X23354D01*
X23031Y14432D01*
X22757Y14248D01*
X22646Y14082D01*
X21522D01*
X21466Y14166D01*
X20656Y14708D01*
X19700Y14898D01*
X18744Y14708D01*
X17934Y14166D01*
X17392Y13356D01*
X17202Y12400D01*
X17392Y11444D01*
X17934Y10634D01*
X18744Y10092D01*
X19700Y9902D01*
X19799Y9922D01*
X22510Y7211D01*
Y6348D01*
X22574Y6025D01*
X22757Y5751D01*
X23031Y5568D01*
X23354Y5504D01*
X32941D01*
X33264Y5568D01*
X33429Y5679D01*
X33810Y5548D01*
X33929Y5458D01*
Y4542D01*
X33810Y4453D01*
X33429Y4321D01*
X33264Y4431D01*
X32941Y4496D01*
X23354D01*
X23031Y4431D01*
X22757Y4248D01*
X22574Y3975D01*
X22510Y3652D01*
Y3522D01*
X21897D01*
X21466Y4166D01*
X20656Y4708D01*
X19700Y4898D01*
X18744Y4708D01*
X17934Y4166D01*
X17392Y3356D01*
X17202Y2400D01*
X17392Y1444D01*
X17934Y634D01*
X18744Y92D01*
X19700Y-98D01*
X20656Y92D01*
X21466Y634D01*
X21897Y1278D01*
X22524D01*
X22574Y1025D01*
X22757Y752D01*
X23031Y569D01*
X23354Y504D01*
X32941D01*
X33264Y569D01*
X33429Y679D01*
X33810Y548D01*
X33929Y458D01*
Y-357D01*
X33536Y-750D01*
X33264Y-569D01*
X32941Y-504D01*
X23354D01*
X23031Y-569D01*
X22757Y-752D01*
X22574Y-1025D01*
X22510Y-1348D01*
Y-3652D01*
X22574Y-3975D01*
X22757Y-4248D01*
X23031Y-4431D01*
X23354Y-4496D01*
X32941D01*
X33264Y-4431D01*
X33538Y-4248D01*
X33721Y-3975D01*
X33785Y-3652D01*
Y-3439D01*
X34057Y-3257D01*
X35757Y-1557D01*
X35989Y-1210D01*
X36071Y-800D01*
Y6257D01*
X36571Y6524D01*
X36590Y6511D01*
X37000Y6429D01*
X37273Y6056D01*
X37279Y6025D01*
X37462Y5751D01*
X37736Y5568D01*
X38059Y5504D01*
X47646D01*
X47969Y5568D01*
X48243Y5751D01*
X48426Y6025D01*
X48490Y6348D01*
Y8652D01*
X48426Y8975D01*
X48243Y9249D01*
X47969Y9431D01*
X47646Y9496D01*
X38059D01*
X37971Y9478D01*
X37576Y9740D01*
Y10260D01*
X37971Y10522D01*
X38059Y10504D01*
X47646D01*
X47969Y10569D01*
X48243Y10751D01*
X48426Y11025D01*
X48490Y11348D01*
Y11447D01*
X48810Y11511D01*
X49157Y11743D01*
X49617Y12202D01*
X50078Y12011D01*
Y5465D01*
X48845Y4232D01*
X48243Y4248D01*
X47969Y4431D01*
X47646Y4496D01*
X38059D01*
X37736Y4431D01*
X37462Y4248D01*
X37279Y3975D01*
X37215Y3652D01*
Y1348D01*
X37279Y1025D01*
X37462Y752D01*
X37736Y569D01*
X38059Y504D01*
X47646D01*
X47969Y569D01*
X48243Y752D01*
X48426Y1025D01*
X48700Y1378D01*
X49129Y1464D01*
X49493Y1707D01*
X51117Y3330D01*
X51578Y3139D01*
Y-135D01*
X50335Y-1378D01*
X48490D01*
Y-1348D01*
X48426Y-1025D01*
X48243Y-752D01*
X47969Y-569D01*
X47646Y-504D01*
X38059D01*
X37736Y-569D01*
X37462Y-752D01*
X37279Y-1025D01*
X37215Y-1348D01*
Y-3652D01*
X37121Y-4084D01*
X36757Y-4327D01*
X36757Y-4327D01*
X34706Y-6379D01*
X33785D01*
Y-6348D01*
X33721Y-6025D01*
X33538Y-5751D01*
X33264Y-5568D01*
X32941Y-5504D01*
X23354D01*
X23031Y-5568D01*
X22757Y-5751D01*
X22574Y-6025D01*
X22510Y-6348D01*
Y-8652D01*
X22574Y-8975D01*
X22757Y-9249D01*
X23031Y-9431D01*
X23354Y-9496D01*
X32941D01*
X33264Y-9431D01*
X33538Y-9249D01*
X33721Y-8975D01*
X33785Y-8652D01*
Y-8622D01*
X35171D01*
X35171Y-8622D01*
X35600Y-8536D01*
X35964Y-8293D01*
X36753Y-7504D01*
X37215Y-7695D01*
Y-8652D01*
X37121Y-9084D01*
X36757Y-9327D01*
X36757Y-9327D01*
X34706Y-11378D01*
X33785D01*
Y-11348D01*
X33721Y-11025D01*
X33538Y-10751D01*
X33264Y-10569D01*
X32941Y-10504D01*
X23354D01*
X23031Y-10569D01*
X22757Y-10751D01*
X22574Y-11025D01*
X22510Y-11348D01*
Y-13652D01*
X22574Y-13975D01*
X22757Y-14248D01*
X23031Y-14432D01*
X23354Y-14496D01*
X32941D01*
X33264Y-14432D01*
X33538Y-14248D01*
X33721Y-13975D01*
X33785Y-13652D01*
Y-13622D01*
X35171D01*
X35171Y-13622D01*
X35600Y-13536D01*
X35964Y-13293D01*
X36753Y-12504D01*
X37215Y-12695D01*
Y-13652D01*
X37121Y-14084D01*
X36757Y-14327D01*
X36757Y-14327D01*
X34706Y-16378D01*
X33785D01*
Y-16348D01*
X33721Y-16025D01*
X33538Y-15752D01*
X33264Y-15568D01*
X32941Y-15504D01*
X23354D01*
X23031Y-15568D01*
X22757Y-15752D01*
X22574Y-16025D01*
X22510Y-16348D01*
Y-18652D01*
X22574Y-18975D01*
X22757Y-19249D01*
X23031Y-19432D01*
X23354Y-19496D01*
X32941D01*
X33264Y-19432D01*
X33538Y-19249D01*
X33721Y-18975D01*
X33785Y-18652D01*
Y-18621D01*
X35171D01*
X35171Y-18622D01*
X35600Y-18536D01*
X35964Y-18293D01*
X36753Y-17504D01*
X37215Y-17695D01*
Y-18652D01*
X37121Y-19084D01*
X36757Y-19327D01*
X36757Y-19327D01*
X34706Y-21378D01*
X33785D01*
Y-21348D01*
X33721Y-21025D01*
X33538Y-20752D01*
X33264Y-20569D01*
X32941Y-20504D01*
X23354D01*
X23031Y-20569D01*
X22757Y-20752D01*
X22574Y-21025D01*
X22510Y-21348D01*
Y-23652D01*
X22574Y-23975D01*
X22757Y-24249D01*
X23031Y-24431D01*
X23354Y-24496D01*
X32941D01*
X33264Y-24431D01*
X33538Y-24249D01*
X33721Y-23975D01*
X33785Y-23652D01*
Y-23621D01*
X35171D01*
X35171Y-23622D01*
X35600Y-23536D01*
X35964Y-23293D01*
X36753Y-22504D01*
X37215Y-22695D01*
Y-23652D01*
X37279Y-23975D01*
X37462Y-24249D01*
X37736Y-24431D01*
X38059Y-24496D01*
X47646D01*
X47969Y-24431D01*
X48243Y-24249D01*
X48426Y-23975D01*
X48490Y-23652D01*
Y-23621D01*
X49021D01*
X49021Y-23622D01*
X49450Y-23536D01*
X49814Y-23293D01*
X65493Y-7614D01*
X65493Y-7614D01*
X65736Y-7250D01*
X65822Y-6821D01*
Y-3255D01*
X66162Y-2976D01*
X70414D01*
X70779Y-2903D01*
X71089Y-2696D01*
X71296Y-2386D01*
X71368Y-2021D01*
Y2781D01*
X74210Y5622D01*
X74598Y5304D01*
X74446Y5076D01*
X74350Y4593D01*
Y1786D01*
X77237D01*
Y5854D01*
X75611D01*
X75128Y5758D01*
X74900Y5605D01*
X74581Y5994D01*
X75965Y7377D01*
X75965Y7377D01*
X76033Y7480D01*
X77092D01*
Y9734D01*
X77636Y10278D01*
X85839D01*
X86030Y9816D01*
X81807Y5593D01*
X81564Y5229D01*
X81535Y5085D01*
X81044Y5076D01*
X81024Y5080D01*
X80754Y5485D01*
X80345Y5758D01*
X79862Y5854D01*
X78237D01*
Y1286D01*
Y-3281D01*
X79862D01*
X80345Y-3185D01*
X80754Y-2912D01*
X80768Y-2891D01*
X81399Y-2827D01*
X81478Y-2900D01*
X81564Y-3329D01*
X81807Y-3693D01*
X82860Y-4746D01*
X82669Y-5208D01*
X82579D01*
Y-7009D01*
X79389Y-10200D01*
X75611D01*
X75245Y-10273D01*
X74936Y-10480D01*
X74729Y-10790D01*
X74656Y-11155D01*
Y-17769D01*
X74729Y-18134D01*
X74936Y-18444D01*
X75245Y-18651D01*
X75611Y-18723D01*
X79862D01*
X80228Y-18651D01*
X80537Y-18444D01*
X80744Y-18134D01*
X80817Y-17769D01*
Y-11944D01*
X81818Y-10944D01*
X82279Y-11135D01*
Y-12892D01*
X84000D01*
Y-10672D01*
X84500D01*
Y-10172D01*
X86721D01*
Y-8451D01*
X86421D01*
Y-5208D01*
X85905D01*
X85622Y-4800D01*
X85536Y-4371D01*
X85293Y-4007D01*
X85293Y-4007D01*
X83722Y-2435D01*
Y4335D01*
X90808Y11422D01*
X91270Y11230D01*
Y8854D01*
X90970D01*
Y7134D01*
X93190D01*
Y6634D01*
X93690D01*
Y4413D01*
X95411D01*
Y4413D01*
X95864Y4410D01*
Y4410D01*
X95909Y4410D01*
X97584D01*
Y6630D01*
X98084D01*
Y7130D01*
X100304D01*
Y8851D01*
X100004D01*
Y12094D01*
X98960D01*
X98808Y12594D01*
X99466Y13034D01*
X100008Y13844D01*
X100198Y14800D01*
X100008Y15756D01*
X99466Y16566D01*
X99462Y16614D01*
X99831Y17020D01*
X101477D01*
X101517Y17029D01*
X102559D01*
X102737Y17064D01*
X103151Y16650D01*
X103116Y16472D01*
Y14307D01*
X103116Y14306D01*
X102556Y7511D01*
X101324Y1760D01*
X100764Y1532D01*
X100725Y1559D01*
X100245Y1654D01*
X99875D01*
X99561Y1717D01*
X96968D01*
Y1920D01*
X93724D01*
Y2220D01*
X92004D01*
Y-1D01*
Y-2221D01*
X93724D01*
Y-1921D01*
X96968D01*
Y-1718D01*
X98502D01*
X98662Y-1825D01*
X99142Y-1920D01*
X100245D01*
X100628Y-1844D01*
X101128Y-2111D01*
Y-2981D01*
X100925D01*
Y-6822D01*
Y-10365D01*
X103737D01*
Y-12169D01*
X102411D01*
Y-14390D01*
Y-16610D01*
X103744D01*
Y-18167D01*
X103668Y-18549D01*
Y-19651D01*
X103763Y-20132D01*
X104035Y-20539D01*
Y-20811D01*
X103763Y-21218D01*
X103668Y-21699D01*
Y-22801D01*
X103751Y-23219D01*
Y-24707D01*
X102414D01*
Y-26928D01*
Y-29148D01*
X103728D01*
Y-30721D01*
X103668Y-31023D01*
Y-32126D01*
X103763Y-32606D01*
X104036Y-33014D01*
Y-33285D01*
X103763Y-33693D01*
X103668Y-34173D01*
Y-35276D01*
X103735Y-35611D01*
Y-37479D01*
X100008D01*
Y-37683D01*
X82811D01*
X82607Y-36659D01*
X81924Y-35011D01*
X80934Y-33528D01*
X79672Y-32266D01*
X78189Y-31275D01*
X76541Y-30593D01*
X74792Y-30245D01*
X73008D01*
X71259Y-30593D01*
X69611Y-31275D01*
X68128Y-32266D01*
X66866Y-33528D01*
X65876Y-35011D01*
X65193Y-36659D01*
X64845Y-38408D01*
Y-40192D01*
X65193Y-41941D01*
X65876Y-43589D01*
X66866Y-45072D01*
X68128Y-46334D01*
X69611Y-47324D01*
X71259Y-48007D01*
X73008Y-48355D01*
X74792D01*
X76541Y-48007D01*
X78189Y-47324D01*
X79672Y-46334D01*
X80934Y-45072D01*
X81924Y-43589D01*
X82607Y-41941D01*
X82771Y-41117D01*
X100008D01*
Y-41320D01*
X103531D01*
Y-44867D01*
X103724D01*
Y-46749D01*
X103665Y-47049D01*
Y-48151D01*
X103760Y-48632D01*
X104033Y-49039D01*
Y-49310D01*
X103760Y-49718D01*
X103665Y-50198D01*
Y-51301D01*
X103760Y-51781D01*
X103925Y-52028D01*
Y-56080D01*
X103908D01*
Y-59113D01*
X103893D01*
Y-59867D01*
X103886Y-59900D01*
Y-61746D01*
X103879Y-61782D01*
Y-61900D01*
X41014D01*
X39157Y-60043D01*
X38810Y-59811D01*
X38400Y-59729D01*
X8619D01*
X8519Y-59229D01*
X9199Y-58948D01*
X10358Y-58058D01*
X11248Y-56899D01*
X11807Y-55549D01*
X11932Y-54600D01*
X6400D01*
Y-54100D01*
X5900D01*
Y-48568D01*
X4951Y-48693D01*
X3601Y-49252D01*
X2442Y-50142D01*
X1571Y-51277D01*
X1540Y-51279D01*
X1071Y-51016D01*
Y-39920D01*
X1571Y-39821D01*
X1741Y-40233D01*
X2422Y-41120D01*
X3310Y-41801D01*
X4343Y-42229D01*
X5452Y-42375D01*
X6700D01*
Y-25591D01*
Y-8806D01*
X5452D01*
X4343Y-8952D01*
X3310Y-9380D01*
X2422Y-10061D01*
X1741Y-10948D01*
X1571Y-11360D01*
X1071Y-11261D01*
Y0D01*
Y12293D01*
X1571Y12326D01*
X1606Y12060D01*
X2003Y11100D01*
X2636Y10275D01*
X3461Y9642D01*
X4421Y9244D01*
X5452Y9109D01*
X11948D01*
X12979Y9244D01*
X13939Y9642D01*
X14764Y10275D01*
X15397Y11100D01*
X15794Y12060D01*
X15930Y13091D01*
Y29541D01*
X19495Y33105D01*
X31972D01*
X32163Y32643D01*
D02*
G37*
G36*
X154728Y31708D02*
Y12257D01*
X154228Y12050D01*
X150833Y15445D01*
Y30988D01*
X150833Y30988D01*
X150748Y31417D01*
X150505Y31781D01*
X150505Y31781D01*
X150168Y32118D01*
X150359Y32581D01*
X153856D01*
X154728Y31708D01*
D02*
G37*
G36*
X81663Y32395D02*
X81792Y31744D01*
X81833Y31683D01*
X81827Y31650D01*
Y17829D01*
X81284Y17466D01*
X80742Y16656D01*
X80552Y15700D01*
X80742Y14744D01*
X81284Y13934D01*
X82094Y13392D01*
X83050Y13202D01*
X84006Y13392D01*
X84816Y13934D01*
X85358Y14744D01*
X85548Y15700D01*
X85512Y15882D01*
X90142Y20512D01*
X90924Y19731D01*
X92494Y21301D01*
X93201Y20594D01*
X91631Y19024D01*
X92284Y18370D01*
X86435Y12522D01*
X77172D01*
X77172Y12522D01*
X76743Y12436D01*
X76379Y12193D01*
X76379Y12193D01*
X75506Y11321D01*
X73849D01*
Y11620D01*
X72128D01*
Y9400D01*
Y6729D01*
X72133Y6718D01*
X70846Y5430D01*
X70779Y5475D01*
X70414Y5548D01*
X66162D01*
X65822Y5827D01*
Y9035D01*
X73643Y16857D01*
X73886Y17221D01*
X73972Y17650D01*
X73972Y17650D01*
Y25411D01*
X81120Y32560D01*
X81663Y32395D01*
D02*
G37*
G36*
X164960Y23632D02*
X167239D01*
Y23132D01*
X167739D01*
Y20853D01*
X168660D01*
X168812Y20353D01*
X168234Y19966D01*
X167692Y19156D01*
X167502Y18200D01*
X167692Y17244D01*
X168234Y16434D01*
X169044Y15892D01*
X170000Y15702D01*
X170956Y15892D01*
X171766Y16434D01*
X171878Y16601D01*
X172376Y16650D01*
X174301Y14724D01*
Y13243D01*
X174207Y13102D01*
X174107Y12598D01*
Y10630D01*
X174207Y10126D01*
X173956Y9976D01*
X173931Y9971D01*
X173450Y9650D01*
X173129Y9169D01*
X173124Y9144D01*
X172974Y8893D01*
X172470Y8993D01*
X171069D01*
X169525Y10537D01*
X169575Y10587D01*
X167193Y12969D01*
X167193D01*
X167069Y13093D01*
X164687Y15475D01*
X164637Y15425D01*
X162972Y17090D01*
Y24012D01*
X163080Y24468D01*
X164960D01*
Y23632D01*
D02*
G37*
G36*
X103921Y382D02*
X101760Y383D01*
X103263Y7406D01*
X103837Y14370D01*
X104823Y14372D01*
X103921Y382D01*
D02*
G37*
G36*
X107382Y7406D02*
X109082Y385D01*
X106650D01*
X105813Y14381D01*
X106786D01*
X107382Y7406D01*
D02*
G37*
G36*
X127756Y17029D02*
X128341D01*
X132335Y13035D01*
X132492Y12244D01*
X133034Y11434D01*
X133475Y11139D01*
Y9892D01*
X132879D01*
Y6649D01*
X132580D01*
Y4928D01*
X134800D01*
Y4428D01*
X135300D01*
Y2208D01*
X136528D01*
Y-5085D01*
X135735Y-5878D01*
X134870D01*
X134440Y-5964D01*
X134076Y-6207D01*
X134076Y-6207D01*
X132057Y-8226D01*
X131814Y-8590D01*
X131728Y-9020D01*
X131728Y-9020D01*
Y-13852D01*
X131686Y-13881D01*
X131414Y-14288D01*
X131318Y-14769D01*
Y-15832D01*
X131414Y-16312D01*
X131686Y-16719D01*
X132094Y-16992D01*
X132574Y-17087D01*
X132801D01*
X134486Y-18772D01*
X134417Y-19410D01*
X133934Y-19734D01*
X133392Y-20544D01*
X133202Y-21500D01*
X133392Y-22456D01*
X133675Y-22878D01*
X133407Y-23379D01*
X126779D01*
X126349Y-23464D01*
X125986Y-23707D01*
X125986Y-23707D01*
X121907Y-27786D01*
X121664Y-28150D01*
X121662Y-28157D01*
X121548D01*
X121225Y-28221D01*
X120951Y-28404D01*
X120768Y-28678D01*
X120704Y-29001D01*
Y-38588D01*
X120768Y-38911D01*
X120951Y-39185D01*
X121225Y-39368D01*
X121548Y-39432D01*
X123452D01*
X123609Y-39700D01*
X123452Y-39968D01*
X121548D01*
X121225Y-40032D01*
X120951Y-40215D01*
X120768Y-40489D01*
X120704Y-40812D01*
Y-50399D01*
X120768Y-50722D01*
X120951Y-50996D01*
X121225Y-51179D01*
X121548Y-51243D01*
X123852D01*
X124175Y-51179D01*
X124449Y-50996D01*
X124632Y-50722D01*
X124696Y-50399D01*
Y-45368D01*
X124898Y-45212D01*
X125398Y-45459D01*
Y-50399D01*
X125486Y-50839D01*
X125735Y-51212D01*
X126108Y-51461D01*
X126548Y-51549D01*
X127200D01*
Y-45605D01*
X128200D01*
Y-51549D01*
X128852D01*
X129292Y-51461D01*
X129665Y-51212D01*
X129914Y-50839D01*
X129945Y-50683D01*
X130455D01*
X130486Y-50839D01*
X130735Y-51212D01*
X131108Y-51461D01*
X131548Y-51549D01*
X132200D01*
Y-45605D01*
X132700D01*
Y-45105D01*
X135002D01*
Y-40812D01*
X134914Y-40372D01*
X134665Y-39999D01*
X134368Y-39800D01*
X134325Y-39456D01*
X134349Y-39251D01*
X134449Y-39185D01*
X134632Y-38911D01*
X134696Y-38588D01*
Y-29001D01*
X135130Y-28622D01*
X135270D01*
X135704Y-29001D01*
Y-38588D01*
X135768Y-38911D01*
X135951Y-39185D01*
X136225Y-39368D01*
X136548Y-39432D01*
X138852D01*
X139175Y-39368D01*
X139448Y-39185D01*
X139631Y-38911D01*
X139696Y-38588D01*
Y-29001D01*
X139631Y-28678D01*
X139448Y-28404D01*
X139175Y-28221D01*
X138852Y-28157D01*
X137725D01*
X137534Y-27695D01*
X140310Y-24918D01*
X140444Y-25008D01*
X141400Y-25198D01*
X141452Y-25188D01*
X141753Y-25638D01*
X141664Y-25771D01*
X141578Y-26200D01*
X141578Y-26200D01*
Y-28157D01*
X141548D01*
X141225Y-28221D01*
X140952Y-28404D01*
X140769Y-28678D01*
X140704Y-29001D01*
Y-38588D01*
X140769Y-38911D01*
X140952Y-39185D01*
X141051Y-39251D01*
X141075Y-39456D01*
X141033Y-39800D01*
X140735Y-39999D01*
X140486Y-40372D01*
X140398Y-40812D01*
Y-45105D01*
X145002D01*
Y-40812D01*
X144914Y-40372D01*
X144665Y-39999D01*
X144368Y-39800D01*
X144325Y-39456D01*
X144349Y-39251D01*
X144448Y-39185D01*
X144632Y-38911D01*
X144696Y-38588D01*
Y-36317D01*
X145192Y-36249D01*
X145734Y-37060D01*
X146544Y-37601D01*
X147500Y-37791D01*
X148456Y-37601D01*
X149266Y-37060D01*
X149626Y-36522D01*
X153835D01*
X156252Y-38938D01*
X156252Y-38938D01*
X156616Y-39181D01*
X157045Y-39266D01*
X157045Y-39266D01*
X173376D01*
X173376Y-39266D01*
X173806Y-39181D01*
X174170Y-38938D01*
X176093Y-37014D01*
X176093Y-37014D01*
X176336Y-36650D01*
X176422Y-36221D01*
Y-35270D01*
X176642Y-35068D01*
X177134Y-34966D01*
X177944Y-35508D01*
X178900Y-35698D01*
X179856Y-35508D01*
X180615Y-35001D01*
X187107Y-41493D01*
X187107Y-41493D01*
X187471Y-41736D01*
X187900Y-41822D01*
X222955D01*
Y-43580D01*
X226786D01*
X226914Y-43580D01*
X227286D01*
X227414Y-43580D01*
X231245D01*
Y-39621D01*
X231345Y-39579D01*
Y-38960D01*
X233269D01*
X233328Y-39460D01*
X233221Y-39486D01*
Y-41265D01*
X235500D01*
X237779D01*
Y-39977D01*
X239421D01*
Y-43486D01*
X239420Y-43986D01*
X239420Y-44114D01*
Y-47945D01*
X239420D01*
X239611Y-48156D01*
X239531Y-48975D01*
X239059Y-50530D01*
X238293Y-51964D01*
X237312Y-53159D01*
X237245Y-53203D01*
X235167Y-55282D01*
X231609Y-57900D01*
X231014Y-57717D01*
X230112Y-56428D01*
X228245Y-57736D01*
X226378Y-59043D01*
X227188Y-60201D01*
X227398Y-60501D01*
X227111Y-60865D01*
X224813Y-62474D01*
X224403Y-62761D01*
X224298Y-62835D01*
X221872Y-64534D01*
X221219Y-64381D01*
X220412Y-63228D01*
X218545Y-64536D01*
X216677Y-65843D01*
X217524Y-67052D01*
X217698Y-67301D01*
X218108Y-67422D01*
X218157Y-67492D01*
X218346Y-67881D01*
X217546Y-69379D01*
X217030Y-71078D01*
X216867Y-72736D01*
X216663Y-72777D01*
X216373Y-72971D01*
X216179Y-73261D01*
X216111Y-73603D01*
Y-88997D01*
X215920Y-89229D01*
X194000D01*
Y-61900D01*
X121488D01*
Y-61782D01*
X121433Y-61509D01*
X121279Y-61277D01*
X121047Y-61123D01*
X120774Y-61068D01*
X116837D01*
X116564Y-61123D01*
X116332Y-61277D01*
X116178Y-61509D01*
X116123Y-61782D01*
Y-61900D01*
X112826D01*
Y-61782D01*
X112772Y-61509D01*
X112617Y-61277D01*
X112386Y-61123D01*
X112113Y-61068D01*
X108176D01*
X107903Y-61123D01*
X107671Y-61277D01*
X107614Y-61363D01*
X107114Y-61211D01*
Y-60705D01*
X107151Y-60220D01*
X108872D01*
Y-58000D01*
Y-55779D01*
X107151D01*
X106958Y-55360D01*
Y-52058D01*
X107143Y-51781D01*
X107239Y-51301D01*
Y-50198D01*
X107143Y-49718D01*
X106871Y-49310D01*
Y-49039D01*
X107143Y-48632D01*
X107239Y-48151D01*
Y-47049D01*
X107159Y-46646D01*
Y-44867D01*
X107372D01*
Y-41320D01*
X107392D01*
Y-37479D01*
X107169D01*
Y-35642D01*
X107242Y-35276D01*
Y-34173D01*
X107147Y-33693D01*
X106874Y-33285D01*
Y-33014D01*
X107147Y-32606D01*
X107242Y-32126D01*
Y-31023D01*
X107162Y-30623D01*
Y-28848D01*
X107377D01*
Y-25007D01*
X107185D01*
Y-23086D01*
X107242Y-22801D01*
Y-21699D01*
X107147Y-21218D01*
X106874Y-20811D01*
Y-20539D01*
X107147Y-20132D01*
X107242Y-19651D01*
Y-18549D01*
X107178Y-18229D01*
Y-16310D01*
X107375D01*
Y-12469D01*
X107171D01*
Y-10386D01*
X107337Y-10250D01*
X108400D01*
X108881Y-10154D01*
X109288Y-9882D01*
X109560Y-9475D01*
X109656Y-8994D01*
Y-7892D01*
X109560Y-7412D01*
X109288Y-7004D01*
Y-6733D01*
X109560Y-6325D01*
X109656Y-5845D01*
Y-4742D01*
X109586Y-4390D01*
Y-2175D01*
X110912D01*
Y46D01*
Y2266D01*
X109361D01*
X108088Y7521D01*
X107910Y9607D01*
X108363Y9817D01*
X113878Y4302D01*
Y2664D01*
X113632Y2266D01*
X111912D01*
Y46D01*
Y-2175D01*
X113632D01*
X113878Y-2573D01*
Y-8137D01*
X113790D01*
Y-11978D01*
X114589D01*
Y-13644D01*
X114390Y-13942D01*
X114259Y-14599D01*
Y-19717D01*
X114390Y-20374D01*
X114762Y-20931D01*
X115319Y-21303D01*
X115977Y-21434D01*
X117945D01*
X118602Y-21303D01*
X119159Y-20931D01*
X119532Y-20374D01*
X119662Y-19717D01*
Y-14599D01*
X119532Y-13942D01*
X119159Y-13385D01*
X118602Y-13012D01*
X117945Y-12881D01*
X117297D01*
X117232Y-12778D01*
X117509Y-12278D01*
X118754D01*
Y-10058D01*
X119754D01*
Y-12278D01*
X121474D01*
Y-12278D01*
X121708Y-12320D01*
Y-12320D01*
X123428D01*
Y-10100D01*
X124428D01*
Y-12320D01*
X125626D01*
X125903Y-12821D01*
X125865Y-12881D01*
X125819D01*
X125162Y-13012D01*
X124605Y-13385D01*
X124232Y-13942D01*
X124102Y-14599D01*
Y-19717D01*
X124232Y-20374D01*
X124605Y-20931D01*
X125162Y-21303D01*
X125819Y-21434D01*
X127788D01*
X128445Y-21303D01*
X129002Y-20931D01*
X129374Y-20374D01*
X129505Y-19717D01*
Y-14599D01*
X129374Y-13942D01*
X129002Y-13385D01*
X128593Y-13111D01*
Y-12021D01*
X129392D01*
Y-8179D01*
X129108D01*
X128622Y-8100D01*
X128536Y-7671D01*
X128293Y-7307D01*
X127699Y-6713D01*
X127561Y-6448D01*
X127634Y-6016D01*
X128008Y-5456D01*
X128198Y-4500D01*
X128008Y-3544D01*
X127466Y-2734D01*
X126656Y-2192D01*
X125700Y-2002D01*
X124744Y-2192D01*
X123934Y-2734D01*
X123503Y-3379D01*
X122651D01*
X122499Y-2878D01*
X122966Y-2566D01*
X123508Y-1756D01*
X123698Y-800D01*
X123508Y156D01*
X123092Y778D01*
X124712Y2398D01*
X124920Y2387D01*
X125246Y2275D01*
X125292Y2044D01*
X125834Y1234D01*
X126644Y692D01*
X127600Y502D01*
X128556Y692D01*
X129366Y1234D01*
X129908Y2044D01*
X130098Y3000D01*
X129908Y3956D01*
X129366Y4766D01*
X128654Y5242D01*
X128669Y5647D01*
X128707Y5762D01*
X128856Y5792D01*
X129666Y6334D01*
X130208Y7144D01*
X130398Y8100D01*
X130208Y9056D01*
X129666Y9866D01*
X128856Y10408D01*
X127900Y10598D01*
X127496Y10518D01*
X127055Y10959D01*
Y13763D01*
X127108Y13842D01*
X127200Y14307D01*
Y16472D01*
X127165Y16650D01*
X127579Y17064D01*
X127756Y17029D01*
D02*
G37*
G36*
X53478Y71368D02*
Y66031D01*
X55196D01*
X55387Y65570D01*
X54306Y64488D01*
X54518Y64276D01*
X53421Y63179D01*
X53264Y63284D01*
X52835Y63369D01*
X52835Y63369D01*
X51924D01*
X51495Y63284D01*
X51131Y63041D01*
X51131Y63041D01*
X44083Y55993D01*
X44036Y55922D01*
X42534Y54420D01*
X42066Y54466D01*
X41256Y55008D01*
X40300Y55198D01*
X39344Y55008D01*
X38534Y54466D01*
X38088Y53799D01*
X37771Y53736D01*
X37407Y53493D01*
X37407Y53493D01*
X36535Y52622D01*
X34212D01*
Y54168D01*
X28480D01*
Y48831D01*
X34212D01*
Y50378D01*
X37000D01*
X37000Y50378D01*
X37429Y50464D01*
X37793Y50707D01*
X38066Y50980D01*
X38534Y50934D01*
X39344Y50392D01*
X40300Y50202D01*
X41256Y50392D01*
X42066Y50934D01*
X42512Y51601D01*
X42829Y51664D01*
X43193Y51907D01*
X45297Y54010D01*
X46029Y53278D01*
X47154Y54402D01*
X47861Y53695D01*
X46737Y52570D01*
X47419Y51888D01*
X45065Y49534D01*
X44356Y50008D01*
X43400Y50198D01*
X42444Y50008D01*
X41634Y49466D01*
X41203Y48822D01*
X37128D01*
X37128Y48822D01*
X36699Y48736D01*
X36335Y48493D01*
X36335Y48493D01*
X33734Y45892D01*
X31479D01*
Y45093D01*
X25572D01*
X25572Y45093D01*
X25142Y45008D01*
X25097Y44977D01*
X24797Y45101D01*
X24100Y45193D01*
X23403Y45101D01*
X22753Y44832D01*
X22196Y44404D01*
X21768Y43846D01*
X21499Y43197D01*
X21407Y42500D01*
X21499Y41803D01*
X21768Y41153D01*
X22196Y40596D01*
X22753Y40168D01*
X23403Y39899D01*
X24100Y39807D01*
X24797Y39899D01*
X25447Y40168D01*
X26004Y40596D01*
X26432Y41153D01*
X26701Y41803D01*
X26793Y42500D01*
X27100Y42850D01*
X30763D01*
X31179Y42649D01*
Y40928D01*
X33400D01*
Y39928D01*
X31179D01*
Y38208D01*
X31179D01*
X31092Y37744D01*
X18534D01*
X17647Y37568D01*
X16894Y37065D01*
X16392Y36563D01*
X15930Y36754D01*
Y38091D01*
X15794Y39121D01*
X15397Y40082D01*
X14764Y40906D01*
X13939Y41539D01*
X12979Y41937D01*
X11948Y42073D01*
X5452D01*
X4421Y41937D01*
X3461Y41539D01*
X2636Y40906D01*
X2003Y40082D01*
X1606Y39121D01*
X1571Y38855D01*
X1071Y38888D01*
Y51941D01*
X1571Y52040D01*
X1814Y51452D01*
X2656Y50356D01*
X3752Y49514D01*
X5029Y48985D01*
X6400Y48805D01*
X7771Y48985D01*
X9048Y49514D01*
X10144Y50356D01*
X10986Y51452D01*
X11515Y52729D01*
X11695Y54100D01*
X11515Y55471D01*
X10986Y56748D01*
X10144Y57844D01*
X9048Y58686D01*
X7771Y59215D01*
X7660Y59229D01*
X7693Y59729D01*
X38400D01*
X38810Y59811D01*
X39157Y60043D01*
X46417Y67303D01*
X46879Y67111D01*
Y65732D01*
X49150D01*
Y68700D01*
X49650D01*
Y69200D01*
X52422D01*
Y71611D01*
X53078D01*
X53478Y71368D01*
D02*
G37*
G36*
X197492Y75592D02*
X197918Y75306D01*
X198422Y75206D01*
X198576D01*
Y74500D01*
X198670Y74032D01*
X198935Y73635D01*
X200276Y72293D01*
Y66407D01*
X199223Y65353D01*
X198761Y65544D01*
Y66254D01*
X197268D01*
Y66754D01*
X196768D01*
Y68739D01*
X195776D01*
Y68739D01*
X195737Y68741D01*
X195479Y69255D01*
X195530Y69332D01*
X195624Y69800D01*
Y75206D01*
X195778D01*
X196282Y75306D01*
X196708Y75592D01*
X196799Y75728D01*
X197401D01*
X197492Y75592D01*
D02*
G37*
G36*
X60453Y62262D02*
X59896Y61704D01*
X59618Y61983D01*
X59618Y63096D01*
X60453Y62262D01*
D02*
G37*
G36*
X115528Y82981D02*
X120472D01*
Y83142D01*
X120972Y83349D01*
X121318Y83003D01*
Y76432D01*
X115181D01*
X115077Y76732D01*
X115340Y77096D01*
X115415Y77169D01*
X117500D01*
Y79744D01*
Y82319D01*
X115228D01*
Y80002D01*
X114893Y79641D01*
X114728Y79641D01*
X110146D01*
Y76432D01*
X104853D01*
Y80828D01*
X107351D01*
X107351Y80828D01*
X107780Y80914D01*
X108144Y81157D01*
X109844Y82857D01*
X110143Y83057D01*
X110445Y83359D01*
X114893D01*
Y83558D01*
X115528D01*
Y82981D01*
D02*
G37*
G36*
X58782Y61983D02*
X58504Y61704D01*
X57947Y62261D01*
X58782Y63096D01*
X58782Y61983D01*
D02*
G37*
G36*
X134756Y72423D02*
Y68634D01*
X141366D01*
X141633Y68134D01*
X141566Y68034D01*
X141484Y67624D01*
Y61399D01*
X140756Y60671D01*
X129258D01*
X129051Y61171D01*
X129605Y61725D01*
X130366Y62234D01*
X130908Y63044D01*
X131098Y64000D01*
X130908Y64956D01*
X130366Y65766D01*
X129556Y66308D01*
X128600Y66498D01*
X127644Y66308D01*
X126834Y65766D01*
X126325Y65005D01*
X126207Y64887D01*
X125707Y64983D01*
Y66054D01*
X124969D01*
Y66831D01*
X125121D01*
Y71793D01*
X132512D01*
X133400Y71970D01*
X134153Y72473D01*
X134294Y72614D01*
X134756Y72423D01*
D02*
G37*
G36*
X216111Y88997D02*
Y73603D01*
X216179Y73261D01*
X216373Y72971D01*
X216663Y72777D01*
X216763Y72757D01*
X216860Y72297D01*
X216860D01*
X217020Y70674D01*
X217493Y69113D01*
X218206Y67780D01*
X217771Y67158D01*
X217484Y67271D01*
X216463Y65813D01*
X218330Y64506D01*
X220198Y63199D01*
X220931Y64245D01*
X221538Y64388D01*
X224007Y62659D01*
X224112Y62585D01*
X224522Y62298D01*
X227126Y60475D01*
X227398Y60101D01*
X227224Y59852D01*
X226378Y58643D01*
X228245Y57336D01*
X230112Y56028D01*
X230977Y57263D01*
X231588Y57405D01*
X239123Y51130D01*
X239527Y50524D01*
X239679Y49762D01*
X239667Y49700D01*
Y49245D01*
X239421D01*
Y45414D01*
X239420Y44914D01*
X239421Y44786D01*
Y41313D01*
X237684D01*
X237680Y41313D01*
X237680Y41326D01*
Y42765D01*
X235400D01*
X233120D01*
Y40986D01*
X233420Y40914D01*
Y40056D01*
X232730D01*
X230893Y41893D01*
X230529Y42136D01*
X230100Y42222D01*
X230100Y42222D01*
X227245D01*
Y43080D01*
X227245D01*
Y43521D01*
X227245D01*
Y47480D01*
X223414D01*
X223286Y47480D01*
X222914D01*
X222786Y47480D01*
X218955D01*
Y46522D01*
X192909D01*
X192717Y46984D01*
X193240Y47506D01*
X193743Y48259D01*
X193919Y49146D01*
Y54100D01*
X193743Y54988D01*
X193240Y55740D01*
X187434Y61546D01*
X187625Y62008D01*
X191839D01*
Y61546D01*
X193332D01*
Y61046D01*
X193832D01*
Y59061D01*
X194824D01*
Y59361D01*
X198461D01*
Y60888D01*
X198492Y61046D01*
Y61162D01*
X202365Y65035D01*
X202630Y65432D01*
X202724Y65900D01*
Y72800D01*
X202630Y73268D01*
X202365Y73665D01*
X201308Y74722D01*
X201473Y75265D01*
X201681Y75306D01*
X202108Y75592D01*
X202394Y76019D01*
X202494Y76522D01*
Y79278D01*
X202394Y79782D01*
X202108Y80208D01*
X201681Y80494D01*
X201178Y80594D01*
X198422D01*
X197918Y80494D01*
X197492Y80208D01*
X197401Y80072D01*
X196799D01*
X196708Y80208D01*
X196282Y80494D01*
X195778Y80594D01*
X193022D01*
X192518Y80494D01*
X192168Y80260D01*
X191872Y80347D01*
X191668Y80475D01*
Y80720D01*
X186331D01*
Y80720D01*
X186169D01*
Y80720D01*
X180832D01*
Y79078D01*
X173416D01*
X170378Y82115D01*
X169981Y82380D01*
X169513Y82473D01*
X164150D01*
X163682Y82380D01*
X163285Y82115D01*
X159589Y78419D01*
X150714D01*
X150544Y78919D01*
X150904Y79196D01*
X151332Y79754D01*
X151601Y80403D01*
X151693Y81100D01*
X151601Y81797D01*
X151332Y82446D01*
X150904Y83004D01*
X150347Y83432D01*
X149697Y83701D01*
X149000Y83793D01*
X148303Y83701D01*
X147653Y83432D01*
X147096Y83004D01*
X146668Y82446D01*
X146399Y81797D01*
X146307Y81100D01*
X146399Y80403D01*
X146423Y80344D01*
X146095Y79922D01*
X133561D01*
Y82930D01*
X129924D01*
Y83230D01*
X128931D01*
Y81246D01*
Y79261D01*
X129370D01*
X129607Y78907D01*
X130507Y78007D01*
X130507Y78007D01*
X130871Y77764D01*
X131300Y77678D01*
X132145D01*
X132336Y77217D01*
X131552Y76432D01*
X124682D01*
Y83700D01*
X124682Y83700D01*
X124554Y84344D01*
X124190Y84890D01*
X122634Y86445D01*
X122088Y86810D01*
X121745Y86878D01*
X121794Y87378D01*
X127239D01*
Y85270D01*
X133561D01*
Y88639D01*
X129606D01*
X129546Y88729D01*
X129813Y89229D01*
X134756D01*
Y83635D01*
X142258D01*
Y89229D01*
X173142D01*
Y83635D01*
X180644D01*
X180832Y83212D01*
Y81681D01*
X186169D01*
Y81681D01*
X186331D01*
Y81681D01*
X191668D01*
Y82231D01*
X191872Y82359D01*
X192168Y82446D01*
X192518Y82212D01*
X193022Y82112D01*
X195778D01*
X196282Y82212D01*
X196708Y82498D01*
X196799Y82634D01*
X197401D01*
X197492Y82498D01*
X197918Y82212D01*
X198422Y82112D01*
X201178D01*
X201681Y82212D01*
X202108Y82498D01*
X202394Y82924D01*
X202494Y83428D01*
Y86184D01*
X202394Y86687D01*
X202108Y87114D01*
X201681Y87400D01*
X201178Y87500D01*
X199330D01*
X198063Y88767D01*
X198254Y89229D01*
X215920D01*
X216111Y88997D01*
D02*
G37*
G36*
X165669Y68651D02*
X165478Y68189D01*
X162605D01*
Y63752D01*
X165180D01*
X167755D01*
Y65912D01*
X168217Y66103D01*
X170460Y63860D01*
X171212Y63357D01*
X172100Y63181D01*
X172323Y63225D01*
X172546Y63181D01*
X173279D01*
X176329Y60130D01*
X176138Y59668D01*
X171488D01*
Y57871D01*
X167889D01*
X167755Y58315D01*
X167755D01*
Y62752D01*
X165180D01*
X162605D01*
Y58315D01*
X162605D01*
X162471Y57871D01*
X157803D01*
X157339Y58335D01*
X157455Y58615D01*
X157455D01*
Y67889D01*
X152905D01*
Y58615D01*
X152905D01*
X153058Y58246D01*
X152749Y57871D01*
X150331D01*
X148876Y59326D01*
Y67624D01*
X148794Y68034D01*
X148562Y68381D01*
X148562Y68381D01*
X147947Y68996D01*
X147600Y69228D01*
X147190Y69310D01*
X143170D01*
X142760Y69228D01*
X142758Y69226D01*
X142258Y69494D01*
Y73781D01*
X160539D01*
X165669Y68651D01*
D02*
G37*
G36*
X120178Y66831D02*
X120330D01*
Y66054D01*
X119780D01*
Y58946D01*
X123625D01*
X123816Y58484D01*
X117242Y51910D01*
X116780Y52101D01*
Y58946D01*
X118621D01*
Y66054D01*
X118621D01*
X118676Y66531D01*
X119122D01*
Y69000D01*
X116350D01*
X113579D01*
Y66531D01*
X113579D01*
X113524Y66054D01*
X112693D01*
Y58946D01*
X114333D01*
Y51790D01*
X109371Y46829D01*
X109166Y46521D01*
X108621Y46358D01*
X104224Y50756D01*
Y51371D01*
X104766Y51734D01*
X105308Y52544D01*
X105395Y52983D01*
X109441Y57028D01*
X111869D01*
Y61972D01*
X106532D01*
Y61819D01*
X105769D01*
Y61972D01*
X100819D01*
Y63028D01*
X102600D01*
Y65799D01*
Y68571D01*
X102204D01*
X102013Y69033D01*
X104773Y71793D01*
X113579D01*
Y70000D01*
X116350D01*
X119122D01*
Y71793D01*
X120178D01*
Y66831D01*
D02*
G37*
G36*
X92901Y89202D02*
X93009Y88729D01*
X92492Y87956D01*
X92302Y87000D01*
X92272Y86963D01*
X91772Y86975D01*
Y87031D01*
X86828D01*
Y82481D01*
X91772D01*
Y83558D01*
X93216D01*
Y76868D01*
X96584D01*
Y83005D01*
X97137Y83558D01*
X97863D01*
X98130Y83058D01*
X98064Y82959D01*
X97978Y82530D01*
X97978Y82530D01*
Y78800D01*
X97978Y78800D01*
X98064Y78371D01*
X98307Y78007D01*
X99347Y76967D01*
X99347Y76967D01*
X99711Y76724D01*
X100107Y76645D01*
Y75879D01*
X101592D01*
X101799Y75379D01*
X97084Y70664D01*
X96584Y70871D01*
Y74331D01*
X93216D01*
Y67223D01*
X93218D01*
Y65902D01*
X92744Y65808D01*
X91934Y65266D01*
X91789Y65050D01*
X90768D01*
Y65322D01*
X85431D01*
Y64892D01*
X84774D01*
Y65243D01*
X80618D01*
X80269Y65598D01*
Y65622D01*
X77800D01*
Y62850D01*
X77300D01*
Y62350D01*
X74331D01*
Y60079D01*
X74029Y59704D01*
X73544Y59608D01*
X72734Y59066D01*
X72192Y58256D01*
X72002Y57300D01*
X72110Y56755D01*
X71650Y56508D01*
X70196Y57962D01*
X69238Y58921D01*
X66298Y61860D01*
X66668Y62229D01*
X67969D01*
X68434Y61534D01*
X69244Y60992D01*
X70200Y60802D01*
X71156Y60992D01*
X71966Y61534D01*
X72508Y62344D01*
X72698Y63300D01*
X72508Y64256D01*
X71966Y65066D01*
X71156Y65608D01*
X70600Y65719D01*
X70435Y66261D01*
X71157Y66983D01*
X71389Y67330D01*
X71471Y67740D01*
Y69448D01*
X71971Y69655D01*
X73422Y68203D01*
X73852Y67916D01*
X74360Y67815D01*
X74632D01*
Y66678D01*
X79969D01*
Y66921D01*
X80618D01*
Y66599D01*
X84723Y66599D01*
X85132Y66378D01*
X85183Y66378D01*
X87600D01*
Y69150D01*
Y71921D01*
X85199D01*
X85132Y71921D01*
X84707Y71739D01*
X84632Y71739D01*
X84078D01*
Y79310D01*
X74410D01*
Y71671D01*
X74014Y71360D01*
X73645Y71730D01*
Y78326D01*
X63709D01*
Y78626D01*
X62421D01*
Y74968D01*
Y71311D01*
X63709D01*
Y71611D01*
X65598D01*
X65750Y71111D01*
X65234Y70766D01*
X64692Y69956D01*
X64502Y69000D01*
X64692Y68044D01*
X65234Y67234D01*
X65240Y67229D01*
X65280Y66694D01*
X65249Y66622D01*
X63392Y64766D01*
X61845Y66313D01*
X61101Y65570D01*
X58421Y68250D01*
Y71368D01*
X58821Y71611D01*
X59668D01*
Y71611D01*
X60134Y71527D01*
Y71311D01*
X61421D01*
Y74968D01*
Y78626D01*
X60134D01*
Y78626D01*
X59668Y78710D01*
Y79310D01*
X50001D01*
Y71668D01*
X47271D01*
Y89229D01*
X47835D01*
Y81060D01*
X56322D01*
Y89229D01*
X57875D01*
Y81060D01*
X66755D01*
Y89229D01*
X67324D01*
Y81060D01*
X76204D01*
Y89229D01*
X77757D01*
Y81060D01*
X86028D01*
X86243Y81060D01*
X86528Y80678D01*
Y79744D01*
X88800D01*
Y81819D01*
X86743D01*
X86528Y81819D01*
X86243Y82201D01*
Y89229D01*
X92893D01*
X92901Y89202D01*
D02*
G37*
%LPC*%
G36*
X47646Y24802D02*
X43352D01*
Y23000D01*
X48796D01*
Y23652D01*
X48708Y24092D01*
X48459Y24465D01*
X48086Y24714D01*
X47646Y24802D01*
D02*
G37*
G36*
X193500Y-23631D02*
X191720D01*
Y-25410D01*
X193500D01*
Y-23631D01*
D02*
G37*
G36*
X196280D02*
X194500D01*
Y-25410D01*
X196280D01*
Y-23631D01*
D02*
G37*
G36*
X205700Y-23631D02*
X203921D01*
Y-25410D01*
X205700D01*
Y-23631D01*
D02*
G37*
G36*
X208479D02*
X206700D01*
Y-25410D01*
X208479D01*
Y-23631D01*
D02*
G37*
G36*
X227343Y-24024D02*
X223476D01*
Y-24740D01*
X223559Y-25155D01*
X223794Y-25507D01*
X224146Y-25742D01*
X224561Y-25825D01*
X227343D01*
Y-24024D01*
D02*
G37*
G36*
X232211D02*
X228343D01*
Y-25825D01*
X231126D01*
X231541Y-25742D01*
X231893Y-25507D01*
X232128Y-25155D01*
X232211Y-24740D01*
Y-24024D01*
D02*
G37*
G36*
X219076D02*
X216389D01*
Y-24740D01*
X216472Y-25155D01*
X216707Y-25507D01*
X217059Y-25742D01*
X217474Y-25825D01*
X219076D01*
Y-24024D01*
D02*
G37*
G36*
X222762D02*
X220076D01*
Y-25825D01*
X221677D01*
X222092Y-25742D01*
X222444Y-25507D01*
X222679Y-25155D01*
X222762Y-24740D01*
Y-24024D01*
D02*
G37*
G36*
X219076Y-11775D02*
X217474D01*
X217059Y-11858D01*
X216707Y-12093D01*
X216472Y-12445D01*
X216389Y-12860D01*
Y-13576D01*
X219076D01*
Y-11775D01*
D02*
G37*
G36*
X231126Y-11775D02*
X229524D01*
Y-13576D01*
X232211D01*
Y-12860D01*
X232128Y-12445D01*
X231893Y-12093D01*
X231541Y-11858D01*
X231126Y-11775D01*
D02*
G37*
G36*
X228524D02*
X226923D01*
X226508Y-11858D01*
X226156Y-12093D01*
X225921Y-12445D01*
X225838Y-12860D01*
Y-13576D01*
X228524D01*
Y-11775D01*
D02*
G37*
G36*
X221677Y-11775D02*
X220076D01*
Y-13576D01*
X222762D01*
Y-12860D01*
X222679Y-12445D01*
X222444Y-12093D01*
X222092Y-11858D01*
X221677Y-11775D01*
D02*
G37*
G36*
X270000Y-12809D02*
X269303Y-12900D01*
X268654Y-13169D01*
X268097Y-13597D01*
X267669Y-14154D01*
X267400Y-14803D01*
X267308Y-15500D01*
X267400Y-16197D01*
X267669Y-16846D01*
X268097Y-17403D01*
X268654Y-17831D01*
X269303Y-18100D01*
X270000Y-18192D01*
X270697Y-18100D01*
X271346Y-17831D01*
X271903Y-17403D01*
X272331Y-16846D01*
X272600Y-16197D01*
X272691Y-15500D01*
X272600Y-14803D01*
X272331Y-14154D01*
X271903Y-13597D01*
X271346Y-13169D01*
X270697Y-12900D01*
X270000Y-12809D01*
D02*
G37*
G36*
X250845Y-25100D02*
X249065D01*
Y-26880D01*
X250845D01*
Y-25100D01*
D02*
G37*
G36*
X232211Y-14576D02*
X229024D01*
X225838D01*
Y-15291D01*
X225921Y-15706D01*
X226156Y-16058D01*
X226508Y-16293D01*
X226569Y-16306D01*
X226519Y-16805D01*
X225348D01*
X225050Y-16865D01*
X224797Y-17034D01*
X224629Y-17286D01*
X224569Y-17584D01*
Y-20016D01*
X224629Y-20314D01*
X224797Y-20566D01*
X225033Y-20724D01*
X225043Y-20770D01*
X224950Y-21224D01*
X224561D01*
X224146Y-21307D01*
X223794Y-21542D01*
X223559Y-21894D01*
X223476Y-22309D01*
Y-23024D01*
X227843D01*
X232211D01*
Y-22309D01*
X232128Y-21894D01*
X232009Y-21715D01*
X232397Y-21397D01*
X234378Y-23378D01*
X234732Y-23731D01*
X234822Y-23822D01*
X236890Y-25890D01*
X236990Y-26132D01*
X237078Y-26795D01*
X237074Y-26813D01*
Y-30123D01*
X237206Y-30787D01*
X237320Y-30957D01*
Y-32497D01*
X239579D01*
Y-32797D01*
X240867D01*
Y-30123D01*
Y-27450D01*
X240541D01*
Y-26813D01*
X240533Y-26773D01*
X240420Y-25625D01*
X240073Y-24483D01*
X239901Y-24161D01*
X240331Y-23731D01*
X237622Y-21022D01*
X237268Y-20669D01*
X237178Y-20578D01*
X234469Y-17869D01*
X234104Y-18235D01*
X233064Y-17679D01*
X231850Y-17311D01*
X231845Y-17286D01*
X231677Y-17034D01*
X231424Y-16865D01*
X231328Y-16846D01*
Y-16336D01*
X231541Y-16293D01*
X231893Y-16058D01*
X232128Y-15706D01*
X232211Y-15291D01*
Y-14576D01*
D02*
G37*
G36*
X250845Y29779D02*
X249065D01*
Y28000D01*
X250845D01*
Y29779D01*
D02*
G37*
G36*
X222477Y29025D02*
X220876D01*
Y27224D01*
X223562D01*
Y27940D01*
X223479Y28355D01*
X223244Y28707D01*
X222892Y28942D01*
X222477Y29025D01*
D02*
G37*
G36*
X219876D02*
X218274D01*
X217859Y28942D01*
X217507Y28707D01*
X217272Y28355D01*
X217189Y27940D01*
Y27224D01*
X219876D01*
Y29025D01*
D02*
G37*
G36*
X208179Y28610D02*
X206400D01*
Y26831D01*
X208179D01*
Y28610D01*
D02*
G37*
G36*
X205400D02*
X203621D01*
Y26831D01*
X205400D01*
Y28610D01*
D02*
G37*
G36*
X190343Y26750D02*
X188564D01*
Y24970D01*
X190343D01*
Y26750D01*
D02*
G37*
G36*
X193700Y28645D02*
X191920D01*
Y26865D01*
X193700D01*
Y28645D01*
D02*
G37*
G36*
X231926Y29025D02*
X230324D01*
Y27224D01*
X233011D01*
Y27940D01*
X232928Y28355D01*
X232693Y28707D01*
X232341Y28942D01*
X231926Y29025D01*
D02*
G37*
G36*
X229324D02*
X227723D01*
X227308Y28942D01*
X226956Y28707D01*
X226721Y28355D01*
X226638Y27940D01*
Y27224D01*
X229324D01*
Y29025D01*
D02*
G37*
G36*
X196479Y28645D02*
X194700D01*
Y26865D01*
X196479D01*
Y28645D01*
D02*
G37*
G36*
X246500Y45645D02*
X244721D01*
Y43865D01*
X246500D01*
Y45645D01*
D02*
G37*
G36*
X249279D02*
X247500D01*
Y43865D01*
X249279D01*
Y45645D01*
D02*
G37*
G36*
X245597Y3489D02*
X244338Y2231D01*
X245597Y973D01*
X246855Y2231D01*
X245597Y3489D01*
D02*
G37*
G36*
X243631Y5455D02*
X242373Y4197D01*
X243631Y2938D01*
X244889Y4197D01*
X243631Y5455D01*
D02*
G37*
G36*
X214280Y-8465D02*
X212500D01*
Y-10245D01*
X214280D01*
Y-8465D01*
D02*
G37*
G36*
X250606Y-10327D02*
X248826D01*
Y-12106D01*
X250606D01*
Y-10327D01*
D02*
G37*
G36*
X272900Y12176D02*
X266018D01*
Y-12200D01*
X272900D01*
Y12176D01*
D02*
G37*
G36*
X222880Y435D02*
X221100D01*
Y-1345D01*
X222880D01*
Y435D01*
D02*
G37*
G36*
X228143Y16776D02*
X224276D01*
Y16060D01*
X224359Y15645D01*
X224594Y15293D01*
X224946Y15058D01*
X225361Y14975D01*
X228143D01*
Y16776D01*
D02*
G37*
G36*
X223562Y16776D02*
X220876D01*
Y14975D01*
X222477D01*
X222892Y15058D01*
X223244Y15293D01*
X223479Y15645D01*
X223562Y16060D01*
Y16776D01*
D02*
G37*
G36*
X219876D02*
X217189D01*
Y16060D01*
X217013Y15845D01*
X216700D01*
Y14065D01*
X218479D01*
Y14975D01*
X219876D01*
Y16776D01*
D02*
G37*
G36*
X240867Y34133D02*
X239579D01*
Y33833D01*
X237320D01*
Y31606D01*
X237291Y31460D01*
Y28204D01*
X235539Y26258D01*
X235205Y25886D01*
X235119Y25791D01*
X233124Y23575D01*
X232773Y23505D01*
X232718Y23517D01*
X232644D01*
X232477Y23766D01*
X232224Y23935D01*
X232127Y23954D01*
X232127Y24464D01*
X232341Y24507D01*
X232693Y24742D01*
X232928Y25094D01*
X233011Y25509D01*
Y26224D01*
X229824D01*
X226638D01*
Y25509D01*
X226721Y25094D01*
X226956Y24742D01*
X227308Y24507D01*
X227369Y24495D01*
X227320Y23994D01*
X226148D01*
X225850Y23935D01*
X225598Y23766D01*
X225429Y23514D01*
X225369Y23216D01*
Y20785D01*
X225429Y20486D01*
X225598Y20234D01*
X225833Y20076D01*
X225843Y20030D01*
X225750Y19576D01*
X225361D01*
X224946Y19493D01*
X224594Y19258D01*
X224359Y18906D01*
X224276Y18491D01*
Y17776D01*
X228643D01*
X233011D01*
Y18491D01*
X232928Y18906D01*
X232693Y19258D01*
X232341Y19493D01*
X232128Y19536D01*
Y20046D01*
X232224Y20065D01*
X232477Y20234D01*
X232477Y20234D01*
X232718Y20468D01*
X234078Y20647D01*
X234783Y20939D01*
X235498Y20295D01*
X238061Y23142D01*
X238395Y23514D01*
X238481Y23609D01*
X241044Y26456D01*
X240259Y27163D01*
X240324Y27658D01*
X240324D01*
Y28787D01*
X240867D01*
Y31460D01*
Y34133D01*
D02*
G37*
G36*
X236784Y15927D02*
X235011Y15772D01*
X235166Y13999D01*
X236939Y14154D01*
X236784Y15927D01*
D02*
G37*
G36*
X233011Y16776D02*
X229143D01*
Y14975D01*
X231926D01*
X232316Y14683D01*
X232397Y13757D01*
X234170Y13912D01*
X234015Y15684D01*
X233436Y15634D01*
X233022Y16049D01*
X233011Y16098D01*
Y16776D01*
D02*
G37*
G36*
X269800Y18192D02*
X269103Y18100D01*
X268454Y17831D01*
X267897Y17403D01*
X267469Y16846D01*
X267200Y16197D01*
X267108Y15500D01*
X267200Y14803D01*
X267469Y14154D01*
X267897Y13597D01*
X268454Y13169D01*
X269103Y12900D01*
X269800Y12809D01*
X270497Y12900D01*
X271146Y13169D01*
X271703Y13597D01*
X272131Y14154D01*
X272400Y14803D01*
X272492Y15500D01*
X272400Y16197D01*
X272131Y16846D01*
X271703Y17403D01*
X271146Y17831D01*
X270497Y18100D01*
X269800Y18192D01*
D02*
G37*
G36*
X248738Y14845D02*
X248429Y13092D01*
X250182Y12783D01*
X250490Y14536D01*
X248738Y14845D01*
D02*
G37*
G36*
X176657Y48859D02*
X173598D01*
Y45800D01*
X176657D01*
Y48859D01*
D02*
G37*
G36*
X95221Y50928D02*
X93500D01*
Y49208D01*
X95221D01*
Y50928D01*
D02*
G37*
G36*
X92500D02*
X90780D01*
Y49208D01*
X92500D01*
Y50928D01*
D02*
G37*
G36*
X174923Y-12114D02*
X173801D01*
Y-12598D01*
X173925Y-13219D01*
X174276Y-13745D01*
X174802Y-14097D01*
X174923Y-14121D01*
Y-12114D01*
D02*
G37*
G36*
X64924Y-23314D02*
X64876D01*
Y-26276D01*
X67838D01*
Y-26229D01*
X67739Y-25475D01*
X67448Y-24772D01*
X66985Y-24168D01*
X66381Y-23705D01*
X65678Y-23414D01*
X64924Y-23314D01*
D02*
G37*
G36*
X82924D02*
X82876D01*
X82122Y-23414D01*
X81419Y-23705D01*
X80815Y-24168D01*
X80352Y-24772D01*
X80061Y-25475D01*
X79962Y-26229D01*
Y-26276D01*
X82924D01*
Y-23314D01*
D02*
G37*
G36*
X101414Y-24707D02*
X99693D01*
Y-26428D01*
X101414D01*
Y-24707D01*
D02*
G37*
G36*
X60876Y-23314D02*
X60829D01*
X60075Y-23414D01*
X59372Y-23705D01*
X58768Y-24168D01*
X58305Y-24772D01*
X58014Y-25475D01*
X57914Y-26229D01*
Y-26276D01*
X60876D01*
Y-23314D01*
D02*
G37*
G36*
X86971D02*
X86924D01*
Y-26276D01*
X89886D01*
Y-26229D01*
X89786Y-25475D01*
X89495Y-24772D01*
X89032Y-24168D01*
X88428Y-23705D01*
X87725Y-23414D01*
X86971Y-23314D01*
D02*
G37*
G36*
X101411Y-12169D02*
X99690D01*
Y-13890D01*
X101411D01*
Y-12169D01*
D02*
G37*
G36*
X70414Y-9894D02*
X68788D01*
Y-13962D01*
X71674D01*
Y-11155D01*
X71578Y-10672D01*
X71305Y-10264D01*
X70896Y-9990D01*
X70414Y-9894D01*
D02*
G37*
G36*
X67788D02*
X66162D01*
X65679Y-9990D01*
X65271Y-10264D01*
X64997Y-10672D01*
X64901Y-11155D01*
Y-13962D01*
X67788D01*
Y-9894D01*
D02*
G37*
G36*
Y-14962D02*
X64901D01*
Y-17769D01*
X64997Y-18251D01*
X65271Y-18660D01*
X65679Y-18934D01*
X66162Y-19029D01*
X67788D01*
Y-14962D01*
D02*
G37*
G36*
X11948Y-8806D02*
X10700D01*
Y-23591D01*
X16233D01*
Y-13091D01*
X16087Y-11982D01*
X15659Y-10948D01*
X14978Y-10061D01*
X14090Y-9380D01*
X13057Y-8952D01*
X11948Y-8806D01*
D02*
G37*
G36*
X71674Y-14962D02*
X68788D01*
Y-19029D01*
X70414D01*
X70896Y-18934D01*
X71305Y-18660D01*
X71578Y-18251D01*
X71674Y-17769D01*
Y-14962D01*
D02*
G37*
G36*
X101411Y-14890D02*
X99690D01*
Y-16610D01*
X101411D01*
Y-14890D01*
D02*
G37*
G36*
X6900Y-48568D02*
Y-53600D01*
X11932D01*
X11807Y-52651D01*
X11248Y-51301D01*
X10358Y-50142D01*
X9199Y-49252D01*
X7849Y-48693D01*
X6900Y-48568D01*
D02*
G37*
G36*
X89886Y-52324D02*
X86924D01*
Y-55286D01*
X86971D01*
X87725Y-55186D01*
X88428Y-54895D01*
X89032Y-54432D01*
X89495Y-53828D01*
X89786Y-53125D01*
X89886Y-52371D01*
Y-52324D01*
D02*
G37*
G36*
X82924D02*
X79962D01*
Y-52371D01*
X80061Y-53125D01*
X80352Y-53828D01*
X80815Y-54432D01*
X81419Y-54895D01*
X82122Y-55186D01*
X82876Y-55286D01*
X82924D01*
Y-52324D01*
D02*
G37*
G36*
X67838D02*
X64876D01*
Y-55286D01*
X64924D01*
X65678Y-55186D01*
X66381Y-54895D01*
X66985Y-54432D01*
X67448Y-53828D01*
X67739Y-53125D01*
X67838Y-52371D01*
Y-52324D01*
D02*
G37*
G36*
X60876D02*
X57914D01*
Y-52371D01*
X58014Y-53125D01*
X58305Y-53828D01*
X58768Y-54432D01*
X59372Y-54895D01*
X60075Y-55186D01*
X60829Y-55286D01*
X60876D01*
Y-52324D01*
D02*
G37*
G36*
X82924Y-45362D02*
X82876D01*
X82122Y-45461D01*
X81419Y-45752D01*
X80815Y-46215D01*
X80352Y-46819D01*
X80061Y-47522D01*
X79962Y-48276D01*
Y-48324D01*
X82924D01*
Y-45362D01*
D02*
G37*
G36*
X67838Y-30276D02*
X64876D01*
Y-33238D01*
X64924D01*
X65678Y-33139D01*
X66381Y-32848D01*
X66985Y-32385D01*
X67448Y-31781D01*
X67739Y-31078D01*
X67838Y-30324D01*
Y-30276D01*
D02*
G37*
G36*
X60876D02*
X57914D01*
Y-30324D01*
X58014Y-31078D01*
X58305Y-31781D01*
X58768Y-32385D01*
X59372Y-32848D01*
X60075Y-33139D01*
X60829Y-33238D01*
X60876D01*
Y-30276D01*
D02*
G37*
G36*
X82924Y-30276D02*
X79962D01*
Y-30324D01*
X80061Y-31078D01*
X80352Y-31781D01*
X80815Y-32385D01*
X81419Y-32848D01*
X82122Y-33139D01*
X82876Y-33238D01*
X82924D01*
Y-30276D01*
D02*
G37*
G36*
X101414Y-27428D02*
X99693D01*
Y-29148D01*
X101414D01*
Y-27428D01*
D02*
G37*
G36*
X89886Y-30276D02*
X86924D01*
Y-33238D01*
X86971D01*
X87725Y-33139D01*
X88428Y-32848D01*
X89032Y-32385D01*
X89495Y-31781D01*
X89786Y-31078D01*
X89886Y-30324D01*
Y-30276D01*
D02*
G37*
G36*
X86971Y-45362D02*
X86924D01*
Y-48324D01*
X89886D01*
Y-48276D01*
X89786Y-47522D01*
X89495Y-46819D01*
X89032Y-46215D01*
X88428Y-45752D01*
X87725Y-45461D01*
X86971Y-45362D01*
D02*
G37*
G36*
X64924D02*
X64876D01*
Y-48324D01*
X67838D01*
Y-48276D01*
X67739Y-47522D01*
X67448Y-46819D01*
X66985Y-46215D01*
X66381Y-45752D01*
X65678Y-45461D01*
X64924Y-45362D01*
D02*
G37*
G36*
X60876D02*
X60829D01*
X60075Y-45461D01*
X59372Y-45752D01*
X58768Y-46215D01*
X58305Y-46819D01*
X58014Y-47522D01*
X57914Y-48276D01*
Y-48324D01*
X60876D01*
Y-45362D01*
D02*
G37*
G36*
X16233Y-27591D02*
X10700D01*
Y-42375D01*
X11948D01*
X13057Y-42229D01*
X14090Y-41801D01*
X14978Y-41120D01*
X15659Y-40233D01*
X16087Y-39200D01*
X16233Y-38091D01*
Y-27591D01*
D02*
G37*
G36*
X86721Y-11172D02*
X85000D01*
Y-12892D01*
X86721D01*
Y-11172D01*
D02*
G37*
G36*
X91004Y2220D02*
X89283D01*
Y499D01*
X91004D01*
Y2220D01*
D02*
G37*
G36*
X92690Y6134D02*
X90970D01*
Y4413D01*
X92690D01*
Y6134D01*
D02*
G37*
G36*
X100304Y6130D02*
X98584D01*
Y4410D01*
X100304D01*
Y6130D01*
D02*
G37*
G36*
X77237Y786D02*
X74350D01*
Y-2021D01*
X74446Y-2503D01*
X74719Y-2912D01*
X75128Y-3185D01*
X75611Y-3281D01*
X77237D01*
Y786D01*
D02*
G37*
G36*
X91004Y-501D02*
X89283D01*
Y-2221D01*
X91004D01*
Y-501D01*
D02*
G37*
G36*
X8500Y2692D02*
X7803Y2600D01*
X7154Y2331D01*
X6597Y1903D01*
X6169Y1346D01*
X5900Y697D01*
X5808Y0D01*
X5900Y-697D01*
X6169Y-1346D01*
X6597Y-1903D01*
X7154Y-2331D01*
X7803Y-2600D01*
X8500Y-2692D01*
X9197Y-2600D01*
X9846Y-2331D01*
X10403Y-1903D01*
X10831Y-1346D01*
X11100Y-697D01*
X11191Y0D01*
X11100Y697D01*
X10831Y1346D01*
X10403Y1903D01*
X9846Y2331D01*
X9197Y2600D01*
X8500Y2692D01*
D02*
G37*
G36*
X71128Y8900D02*
X69408D01*
Y7180D01*
X71128D01*
Y8900D01*
D02*
G37*
G36*
Y11620D02*
X69408D01*
Y9900D01*
X71128D01*
Y11620D01*
D02*
G37*
G36*
X166739Y22632D02*
X164960D01*
Y20853D01*
X166739D01*
Y22632D01*
D02*
G37*
G36*
X135002Y-46106D02*
X133200D01*
Y-51549D01*
X133852D01*
X134292Y-51461D01*
X134665Y-51212D01*
X134914Y-50839D01*
X135002Y-50399D01*
Y-46106D01*
D02*
G37*
G36*
X138852Y-39968D02*
X136548D01*
X136225Y-40032D01*
X135951Y-40215D01*
X135768Y-40489D01*
X135704Y-40812D01*
Y-50399D01*
X135768Y-50722D01*
X135951Y-50996D01*
X136225Y-51179D01*
X136548Y-51243D01*
X138852D01*
X139175Y-51179D01*
X139448Y-50996D01*
X139631Y-50722D01*
X139696Y-50399D01*
Y-40812D01*
X139631Y-40489D01*
X139448Y-40215D01*
X139175Y-40032D01*
X138852Y-39968D01*
D02*
G37*
G36*
X145002Y-46106D02*
X143200D01*
Y-51549D01*
X143852D01*
X144292Y-51461D01*
X144665Y-51212D01*
X144914Y-50839D01*
X145002Y-50399D01*
Y-46106D01*
D02*
G37*
G36*
X142200D02*
X140398D01*
Y-50399D01*
X140486Y-50839D01*
X140735Y-51212D01*
X141108Y-51461D01*
X141548Y-51549D01*
X142200D01*
Y-46106D01*
D02*
G37*
G36*
X111592Y-58500D02*
X109872D01*
Y-60220D01*
X111592D01*
Y-58500D01*
D02*
G37*
G36*
X218818Y-60952D02*
X217360Y-61972D01*
X218381Y-63430D01*
X219839Y-62409D01*
X218818Y-60952D01*
D02*
G37*
G36*
X216541Y-62546D02*
X215083Y-63566D01*
X216104Y-65024D01*
X217562Y-64003D01*
X216541Y-62546D01*
D02*
G37*
G36*
X226241Y-55746D02*
X224783Y-56766D01*
X225804Y-58224D01*
X227262Y-57204D01*
X226241Y-55746D01*
D02*
G37*
G36*
X228518Y-54151D02*
X227060Y-55172D01*
X228081Y-56630D01*
X229538Y-55609D01*
X228518Y-54151D01*
D02*
G37*
G36*
X109872Y-55779D02*
Y-57500D01*
X111592D01*
Y-55779D01*
X109872D01*
D02*
G37*
G36*
X235000Y-42265D02*
X233221D01*
Y-44045D01*
X235000D01*
Y-42265D01*
D02*
G37*
G36*
X237779D02*
X236000D01*
Y-44045D01*
X237779D01*
Y-42265D01*
D02*
G37*
G36*
X134300Y3928D02*
X132580D01*
Y2208D01*
X134300D01*
Y3928D01*
D02*
G37*
G36*
X52422Y68200D02*
X50150D01*
Y65732D01*
X52422D01*
Y68200D01*
D02*
G37*
G36*
X27819Y54469D02*
X25154D01*
Y52000D01*
X27819D01*
Y54469D01*
D02*
G37*
G36*
X24154D02*
X21488D01*
Y52000D01*
X24154D01*
Y54469D01*
D02*
G37*
G36*
Y51000D02*
X21488D01*
Y48531D01*
X24154D01*
Y51000D01*
D02*
G37*
G36*
X27819D02*
X25154D01*
Y48531D01*
X27819D01*
Y51000D01*
D02*
G37*
G36*
X198761Y68739D02*
X197768D01*
Y67254D01*
X198761D01*
Y68739D01*
D02*
G37*
G36*
X120772Y79244D02*
X118500D01*
Y77169D01*
X120772D01*
Y79244D01*
D02*
G37*
G36*
Y82319D02*
X118500D01*
Y80244D01*
X120772D01*
Y82319D01*
D02*
G37*
G36*
X127931Y80746D02*
X126939D01*
Y79261D01*
X127931D01*
Y80746D01*
D02*
G37*
G36*
Y83230D02*
X126939D01*
Y81746D01*
X127931D01*
Y83230D01*
D02*
G37*
G36*
X237680Y45545D02*
X235900D01*
Y43765D01*
X237680D01*
Y45545D01*
D02*
G37*
G36*
X234900D02*
X233120D01*
Y43765D01*
X234900D01*
Y45545D01*
D02*
G37*
G36*
X218166Y63400D02*
X217146Y61942D01*
X218603Y60922D01*
X219624Y62379D01*
X218166Y63400D01*
D02*
G37*
G36*
X192832Y60546D02*
X191839D01*
Y59061D01*
X192832D01*
Y60546D01*
D02*
G37*
G36*
X225804Y57824D02*
X224783Y56366D01*
X226241Y55346D01*
X227262Y56804D01*
X225804Y57824D01*
D02*
G37*
G36*
X209600Y59291D02*
X208903Y59200D01*
X208254Y58931D01*
X207697Y58503D01*
X207269Y57946D01*
X207000Y57297D01*
X206908Y56600D01*
X207000Y55903D01*
X207269Y55254D01*
X207697Y54697D01*
X208254Y54269D01*
X208903Y54000D01*
X209600Y53908D01*
X210297Y54000D01*
X210946Y54269D01*
X211503Y54697D01*
X211931Y55254D01*
X212200Y55903D01*
X212292Y56600D01*
X212200Y57297D01*
X211931Y57946D01*
X211503Y58503D01*
X210946Y58931D01*
X210297Y59200D01*
X209600Y59291D01*
D02*
G37*
G36*
X228081Y56230D02*
X227060Y54772D01*
X228518Y53751D01*
X229538Y55209D01*
X228081Y56230D01*
D02*
G37*
G36*
X215889Y64994D02*
X214869Y63537D01*
X216326Y62516D01*
X217347Y63974D01*
X215889Y64994D01*
D02*
G37*
G36*
X112169Y65299D02*
X109700D01*
Y63028D01*
X112169D01*
Y65299D01*
D02*
G37*
G36*
X106231Y68571D02*
X105731Y68571D01*
X103600D01*
Y65799D01*
Y63028D01*
X105731D01*
X106069Y63028D01*
X106569Y63028D01*
X108700D01*
Y65799D01*
Y68571D01*
X106569D01*
X106231Y68571D01*
D02*
G37*
G36*
X109700Y68571D02*
Y66299D01*
X112169D01*
Y68571D01*
X109700D01*
D02*
G37*
G36*
X89800Y81819D02*
Y79744D01*
X92072D01*
Y81819D01*
X89800D01*
D02*
G37*
G36*
X76800Y65622D02*
X74331D01*
Y63350D01*
X76800D01*
Y65622D01*
D02*
G37*
G36*
X88800Y78744D02*
X86528D01*
Y76669D01*
X88800D01*
Y78744D01*
D02*
G37*
G36*
X92072D02*
X89800D01*
Y76669D01*
X92072D01*
Y78744D01*
D02*
G37*
G36*
X88600Y71921D02*
Y69650D01*
X91069D01*
Y71921D01*
X88600D01*
D02*
G37*
G36*
X91069Y68650D02*
X88600D01*
Y66378D01*
X91069D01*
Y68650D01*
D02*
G37*
%LPD*%
D10*
X194035Y22035D02*
G03*
X190777Y18777I0J-3258D01*
G01*
Y11614D02*
Y18777D01*
X194035Y22035D02*
X194200D01*
X181600Y21974D02*
Y32500D01*
X164500Y-8497D02*
Y-5700D01*
X184300Y20135D02*
Y20135D01*
Y19146D02*
Y20135D01*
X178834Y19469D02*
Y20135D01*
X164500Y-8497D02*
X166299Y-10296D01*
X168918Y-7677D01*
X171486D01*
X185659Y11614D02*
Y17786D01*
X188218Y20135D02*
X188218Y20135D01*
X188218Y11614D02*
Y20135D01*
X183100Y11614D02*
Y15203D01*
X178834Y19469D02*
X183100Y15203D01*
X184300Y19146D02*
X185659Y17786D01*
X183440Y20135D02*
X184300D01*
X181600Y21974D02*
X183440Y20135D01*
D11*
X196955Y7677D02*
G03*
X198700Y8400I0J2468D01*
G01*
X236307Y9100D02*
G03*
X238741Y10108I0J3442D01*
G01*
X232718Y22000D02*
G03*
X235351Y23091I0J3724D01*
G01*
X202565Y-18800D02*
G03*
X202165Y-18965I0J-565D01*
G01*
X206476Y-18686D02*
G03*
X206200Y-18800I0J-390D01*
G01*
X242059Y12892D02*
G03*
X244300Y18303I-5411J5411D01*
G01*
X200715Y9235D02*
G03*
X198700Y8400I0J-2850D01*
G01*
X238249Y26309D02*
G03*
X238808Y27658I-1349J1349D01*
G01*
X223865Y9100D02*
X227235D01*
X194200Y22035D02*
X197835D01*
X194714Y7677D02*
X196955D01*
X200715Y9235D02*
X216200D01*
Y9200D02*
X219535D01*
X231565Y9100D02*
X236307D01*
X216600Y5865D02*
X220600Y5265D01*
X224508Y4660D01*
X243995Y-12606D02*
X244000Y-16435D01*
X244000Y-16500D01*
X229037Y22000D02*
X232718D01*
X193660Y-18800D02*
X194000Y-18813D01*
X197835Y-18965D01*
X243926Y27500D02*
Y31460D01*
X244300Y24065D02*
Y27500D01*
X202565Y-18800D02*
X206200D01*
X206476Y-18686D02*
X209835D01*
X105442Y-61782D02*
Y-50806D01*
X193700Y0D02*
X194714D01*
X213131Y5900D02*
X216600Y5865D01*
X193700Y7677D02*
X194714D01*
X205900Y22000D02*
X209535D01*
X244300Y19735D02*
X248500Y19735D01*
X244300Y24065D02*
X248500Y24065D01*
X242259Y12592D02*
X244659Y9892D01*
X238941Y9808D02*
X241341Y7108D01*
X244300Y18303D02*
Y19735D01*
X244235Y27500D02*
X244300D01*
X243926D02*
X244235D01*
X238808Y27658D02*
Y31460D01*
X213865Y22000D02*
X220376D01*
X202165D02*
X205900D01*
X197835D02*
Y22035D01*
X194714Y0D02*
X200435D01*
X211865Y13365D02*
X211900Y13400D01*
X241367Y-37604D02*
X241400Y-37637D01*
Y-41635D02*
Y-37637D01*
X243421Y-8683D02*
X246972Y-7735D01*
X242300Y-4500D02*
X245851Y-3552D01*
X243421Y-8683D02*
X243995Y-12606D01*
X243926Y-30123D02*
Y-24909D01*
X244235Y-24600D01*
X244300Y-24535D01*
Y-20765D01*
X248300D01*
X248300Y-20765D01*
X244300Y-16435D02*
X248300D01*
X248300Y-16435D01*
X228687Y3774D02*
X232665Y2641D01*
X240569Y-831D02*
X242300Y-4500D01*
X236735Y1159D02*
X240569Y-831D01*
X241367Y38940D02*
Y42601D01*
X241400Y42635D01*
D12*
X241400Y49700D02*
G03*
X240269Y52431I-3863J0D01*
G01*
X238808Y-26813D02*
G03*
X237531Y-23731I-4358J0D01*
G01*
X220742Y-67674D02*
G03*
X218600Y-72845I5171J-5171D01*
G01*
X234469Y-20669D02*
G03*
X229957Y-18800I-4512J-4512D01*
G01*
X238471Y-54429D02*
G03*
X241400Y-47358I-7071J7071D01*
G01*
X218600Y72297D02*
G03*
X220528Y67644I6581J0D01*
G01*
X141200Y29400D02*
X141400D01*
X230511Y60557D02*
X240269Y52431D01*
X241400Y47265D02*
Y49700D01*
X240269Y52431D02*
X240269Y52431D01*
X238808Y-30123D02*
Y-26813D01*
X218600Y-81300D02*
Y-72845D01*
X220742Y-67674D02*
X220742Y-67674D01*
X223917Y-65518D01*
X228237Y-18800D02*
X229957D01*
X230288Y-61025D02*
X236300Y-56600D01*
X238471Y-54429D01*
X218600Y72297D02*
Y81300D01*
X220528Y67644D02*
X223626Y65342D01*
X220527Y67644D02*
X220528Y67644D01*
X220528D02*
X220528Y67644D01*
X208265Y-7800D02*
Y-4100D01*
X214165Y-18800D02*
X219576D01*
X208265Y-10765D02*
X210100Y-12600D01*
X208265Y-10765D02*
Y-7800D01*
X208431Y-7965D02*
X212000D01*
X208265Y-7800D02*
X208431Y-7965D01*
X208265Y-4100D02*
Y-2655D01*
X205611Y0D02*
X208265Y-2655D01*
X204765Y0D02*
X205611D01*
X140772Y29828D02*
X141200Y29400D01*
X140772Y29828D02*
Y35500D01*
X141000Y35728D01*
Y39728D01*
X241400Y-47358D02*
Y-45965D01*
X227465Y-63034D02*
X230288Y-61025D01*
X227174Y62858D02*
X230442Y60474D01*
D13*
X190777Y-15917D02*
G03*
X193660Y-18800I2883J0D01*
G01*
X53354Y59338D02*
X59200Y53492D01*
Y50708D02*
X65046Y44862D01*
X52240Y52100D02*
X59200D01*
X82900Y15000D02*
X91773Y23873D01*
X93300Y31600D02*
X98782Y26118D01*
X133900Y13200D02*
X134800D01*
X135300Y40000D02*
X137228Y38072D01*
X190777Y-15917D02*
Y-11614D01*
X172909Y77854D02*
X183500D01*
X169513Y81250D02*
X172909Y77854D01*
X164150Y81250D02*
X169513D01*
X83050Y31650D02*
X84100Y32700D01*
X89800Y31600D02*
X93300D01*
X83050Y15700D02*
Y31650D01*
X128856Y18244D02*
X133900Y13200D01*
X49650Y66232D02*
Y68700D01*
Y66232D02*
X50582Y65300D01*
X55744D01*
X61921Y69079D02*
X62000Y69000D01*
X55950Y68700D02*
X56241D01*
X59200Y52100D02*
Y53492D01*
X199800Y74500D02*
Y77900D01*
Y74500D02*
X201500Y72800D01*
Y65900D02*
Y72800D01*
X197268Y61668D02*
X201500Y65900D01*
X197268Y61046D02*
Y61668D01*
X196600Y88500D02*
X199800Y85300D01*
X185600Y88500D02*
X196600D01*
X193332Y66754D02*
Y68731D01*
X194400Y69800D01*
Y77900D01*
X159100Y76200D02*
X164150Y81250D01*
X183500Y77854D02*
X189000D01*
X199800Y84806D02*
Y85300D01*
X183500Y86400D02*
X185600Y88500D01*
X183500Y84546D02*
Y86400D01*
X189000Y84546D02*
X189260Y84806D01*
X194400D01*
X137228Y35500D02*
Y38072D01*
X136768Y35961D02*
X137228Y35500D01*
X128839Y35961D02*
X136768D01*
X93190Y10290D02*
X97700Y14800D01*
X93190Y10177D02*
Y10290D01*
X115557Y51284D02*
Y61900D01*
X110237Y45963D02*
X115557Y51284D01*
X91773Y23873D02*
X94932D01*
X97700Y14800D02*
Y16800D01*
X99144Y18244D01*
X101477D01*
X94932Y23873D02*
X95353Y23453D01*
X96049Y24149D01*
X101477D01*
X93194Y10174D02*
X98084D01*
X103000Y50249D02*
Y53500D01*
X128839Y18244D02*
X128856D01*
X108268Y42752D02*
Y44981D01*
X103000Y50249D02*
X108268Y44981D01*
X110237Y42752D02*
Y45963D01*
X98782Y26118D02*
X101477D01*
X161650Y75950D02*
Y76100D01*
X56241Y68700D02*
X61149Y63792D01*
X55744Y65300D02*
X57251Y63792D01*
X59200Y50708D02*
Y52100D01*
X49178Y49038D02*
X52240Y52100D01*
D14*
X182500Y-23369D02*
D03*
Y-27700D02*
D03*
X212000Y-7965D02*
D03*
Y-3635D02*
D03*
X205900Y26331D02*
D03*
Y22000D02*
D03*
X241400Y-45965D02*
D03*
X241400Y-41635D02*
D03*
X241400Y47265D02*
D03*
X241400Y42935D02*
D03*
X188064Y24470D02*
D03*
Y20140D02*
D03*
X178834Y24465D02*
D03*
Y20135D02*
D03*
X166299Y-14627D02*
D03*
Y-10296D02*
D03*
X171600Y-31435D02*
D03*
Y-35765D02*
D03*
X247000Y39035D02*
D03*
Y43365D02*
D03*
X235500Y-37435D02*
D03*
Y-41765D02*
D03*
X216600Y5565D02*
D03*
Y1235D02*
D03*
X194200Y26365D02*
D03*
Y22035D02*
D03*
X194000Y-23131D02*
D03*
Y-18800D02*
D03*
X244300Y19735D02*
D03*
Y24065D02*
D03*
X248500Y24065D02*
D03*
X248500Y19735D02*
D03*
X206300Y17665D02*
D03*
Y13335D02*
D03*
X202600Y13565D02*
D03*
Y9235D02*
D03*
X216200Y13565D02*
D03*
X216200Y9235D02*
D03*
X206200Y-23131D02*
D03*
X206200Y-18800D02*
D03*
X220600Y935D02*
D03*
Y5265D02*
D03*
X244300Y-16435D02*
D03*
X244300Y-20765D02*
D03*
X248000Y-33335D02*
D03*
Y-37665D02*
D03*
X184300Y24465D02*
D03*
Y20135D02*
D03*
X235400Y43265D02*
D03*
Y38935D02*
D03*
X162400Y-33065D02*
D03*
Y-28735D02*
D03*
X248300Y-20765D02*
D03*
X248300Y-16435D02*
D03*
D15*
X225265Y45500D02*
D03*
X220935D02*
D03*
X227235Y9100D02*
D03*
X231565Y9100D02*
D03*
X223865Y9200D02*
D03*
X219535D02*
D03*
X213865Y22000D02*
D03*
X209535D02*
D03*
X212765Y5500D02*
D03*
X208435D02*
D03*
X225035Y-37600D02*
D03*
X229365D02*
D03*
X229265Y-41600D02*
D03*
X224935D02*
D03*
X225265Y41100D02*
D03*
X220935D02*
D03*
X222965Y-33500D02*
D03*
X218635D02*
D03*
X225165Y36800D02*
D03*
X220835D02*
D03*
X171560Y42023D02*
D03*
X167229D02*
D03*
X167239Y23132D02*
D03*
X171570D02*
D03*
X197835Y22000D02*
D03*
X202165D02*
D03*
X197835Y-18965D02*
D03*
X202165Y-18965D02*
D03*
X208265Y-7800D02*
D03*
X203935D02*
D03*
X208265Y-4100D02*
D03*
X203935D02*
D03*
X248565Y27500D02*
D03*
X244235Y27500D02*
D03*
X214165Y-18800D02*
D03*
X209835Y-18800D02*
D03*
X204765Y0D02*
D03*
X200435D02*
D03*
X248326Y-12606D02*
D03*
X243995D02*
D03*
X248565Y-24600D02*
D03*
X244235Y-24600D02*
D03*
X222865Y-29600D02*
D03*
X218535D02*
D03*
D16*
X122700Y-45605D02*
D03*
X127700D02*
D03*
X132700D02*
D03*
X137700D02*
D03*
X142700D02*
D03*
Y-33795D02*
D03*
X137700D02*
D03*
X132700D02*
D03*
X127700D02*
D03*
X122700D02*
D03*
D17*
X28148Y-17500D02*
D03*
X42852D02*
D03*
X28148Y-22500D02*
D03*
X42852D02*
D03*
Y-12500D02*
D03*
X28148D02*
D03*
X42852Y-7500D02*
D03*
X28148D02*
D03*
X42852Y-2500D02*
D03*
X28148D02*
D03*
X42852Y2500D02*
D03*
X28148D02*
D03*
X42852Y7500D02*
D03*
X28148D02*
D03*
X42852Y12500D02*
D03*
X28148D02*
D03*
X42852Y17500D02*
D03*
X28148D02*
D03*
X42852Y22500D02*
D03*
X28148D02*
D03*
D18*
X61149Y40408D02*
D03*
X70892Y50151D02*
D03*
X57251Y63792D02*
D03*
X47508Y54049D02*
D03*
D19*
X62262Y42078D02*
D03*
X63654Y43470D02*
D03*
X65046Y44862D02*
D03*
X66438Y46254D02*
D03*
X67830Y47646D02*
D03*
X69222Y49038D02*
D03*
X56138Y62122D02*
D03*
X54746Y60730D02*
D03*
X53354Y59338D02*
D03*
X51962Y57946D02*
D03*
X50570Y56554D02*
D03*
X49178Y55162D02*
D03*
D20*
X70892Y54049D02*
D03*
X61149Y63792D02*
D03*
X47508Y50151D02*
D03*
X57251Y40408D02*
D03*
D21*
X69222Y55162D02*
D03*
X67830Y56554D02*
D03*
X66438Y57946D02*
D03*
X65046Y59338D02*
D03*
X63654Y60730D02*
D03*
X62262Y62122D02*
D03*
X49178Y49038D02*
D03*
X50570Y47646D02*
D03*
X51962Y46254D02*
D03*
X53354Y44862D02*
D03*
X54746Y43470D02*
D03*
X56138Y42078D02*
D03*
D22*
X59200Y52100D02*
D03*
D23*
X24654Y51500D02*
D03*
X31346D02*
D03*
X174354Y57000D02*
D03*
X181046D02*
D03*
D24*
X134800Y4428D02*
D03*
Y7972D02*
D03*
X93190Y6634D02*
D03*
Y10177D02*
D03*
X98084Y6630D02*
D03*
Y10174D02*
D03*
X102845Y-8444D02*
D03*
Y-4901D02*
D03*
X105452Y-42946D02*
D03*
Y-39403D02*
D03*
X84500Y-10672D02*
D03*
Y-7128D02*
D03*
X93000Y51428D02*
D03*
Y54972D02*
D03*
X33400Y40428D02*
D03*
Y43972D02*
D03*
X141000Y39828D02*
D03*
Y43372D02*
D03*
X38300Y40428D02*
D03*
Y43972D02*
D03*
D25*
X227958Y-57326D02*
D03*
X230442Y-60874D02*
D03*
X218258Y-64126D02*
D03*
X220742Y-67674D02*
D03*
D26*
X232665Y2641D02*
D03*
X236735Y1159D02*
D03*
D27*
X228687Y3774D02*
D03*
X224422Y4526D02*
D03*
X248332Y15424D02*
D03*
X244068Y16176D02*
D03*
D28*
X237531Y-23731D02*
D03*
X234469Y-20669D02*
D03*
D29*
X234711Y13457D02*
D03*
X235089Y9143D02*
D03*
D30*
X238249Y26309D02*
D03*
X235351Y23091D02*
D03*
D31*
X238941Y9808D02*
D03*
X242259Y12592D02*
D03*
X244659Y9892D02*
D03*
X241341Y7108D02*
D03*
D32*
X183500Y84546D02*
D03*
Y77854D02*
D03*
X189000Y84546D02*
D03*
Y77854D02*
D03*
D33*
X227174Y62858D02*
D03*
X223626Y65342D02*
D03*
D34*
X227958Y56926D02*
D03*
X230442Y60474D02*
D03*
X218043Y64096D02*
D03*
X220528Y67644D02*
D03*
D35*
X91747Y27047D02*
D03*
X94253Y29553D02*
D03*
X92847Y20947D02*
D03*
X95353Y23453D02*
D03*
D36*
X116350Y69500D02*
D03*
X122650D02*
D03*
X55950Y68700D02*
D03*
X49650D02*
D03*
D37*
X122743Y62500D02*
D03*
X115657D02*
D03*
D38*
X118000Y79744D02*
D03*
Y85256D02*
D03*
X89300Y79244D02*
D03*
Y84756D02*
D03*
D39*
X62315Y85500D02*
D03*
X71764D02*
D03*
D40*
X52079D02*
D03*
X82000D02*
D03*
D41*
X79244Y75461D02*
D03*
X54835D02*
D03*
D42*
X67039Y74968D02*
D03*
X64480D02*
D03*
X69598D02*
D03*
X72158D02*
D03*
X61921D02*
D03*
D43*
X123928Y-10100D02*
D03*
X127472D02*
D03*
X119254Y-10058D02*
D03*
X115710D02*
D03*
X101914Y-26928D02*
D03*
X105457D02*
D03*
X91504Y-1D02*
D03*
X95047D02*
D03*
X111412Y46D02*
D03*
X107868D02*
D03*
X109372Y-58000D02*
D03*
X105828D02*
D03*
X71628Y9400D02*
D03*
X75172Y9400D02*
D03*
X101911Y-14390D02*
D03*
X105454D02*
D03*
X140772Y35500D02*
D03*
X137228D02*
D03*
X105472Y-39400D02*
D03*
X101928D02*
D03*
D44*
X116961Y-17158D02*
D03*
X126803D02*
D03*
D45*
X165035Y13441D02*
D03*
X163643Y12049D02*
D03*
X162251Y10657D02*
D03*
X160859Y9265D02*
D03*
X163365Y6759D02*
D03*
X164757Y8151D02*
D03*
X166149Y9543D02*
D03*
X167541Y10935D02*
D03*
X167135Y-19659D02*
D03*
X165743Y-21051D02*
D03*
X164351Y-22443D02*
D03*
X162959Y-23835D02*
D03*
X165465Y-26341D02*
D03*
X166857Y-24949D02*
D03*
X168249Y-23557D02*
D03*
X169641Y-22165D02*
D03*
X163135Y4341D02*
D03*
X161743Y2949D02*
D03*
X160351Y1557D02*
D03*
X158959Y165D02*
D03*
X161465Y-2341D02*
D03*
X162857Y-949D02*
D03*
X164249Y443D02*
D03*
X165641Y1835D02*
D03*
D46*
X166245Y28420D02*
D03*
X172544D02*
D03*
X166245Y36688D02*
D03*
X172544D02*
D03*
D47*
X246960Y-7692D02*
D03*
X245840Y-3508D02*
D03*
X242300Y-4500D02*
D03*
X243421Y-8683D02*
D03*
D48*
X243926Y-37604D02*
D03*
X241367Y-37604D02*
D03*
X238808Y-37604D02*
D03*
X238808Y-30123D02*
D03*
X241367Y-30123D02*
D03*
X243926Y-30123D02*
D03*
X238808Y38940D02*
D03*
X241367Y38940D02*
D03*
X243926D02*
D03*
X243926Y31460D02*
D03*
X241367Y31460D02*
D03*
X238808Y31460D02*
D03*
D49*
X220376Y26724D02*
D03*
Y22000D02*
D03*
X220376Y17276D02*
D03*
X229824Y26724D02*
D03*
X219576Y-14076D02*
D03*
X219576Y-18800D02*
D03*
Y-23524D02*
D03*
X229024Y-14076D02*
D03*
D50*
X229037Y22000D02*
D03*
X228237Y-18800D02*
D03*
D51*
X228643Y17276D02*
D03*
X227843Y-23524D02*
D03*
D52*
X218600Y81300D02*
D03*
Y-81300D02*
D03*
D53*
X243631Y2231D02*
D03*
X240569Y-831D02*
D03*
D54*
X184243Y45300D02*
D03*
X177157D02*
D03*
D55*
X105455Y-19100D02*
D03*
X105455Y-31575D02*
D03*
X107869Y-5294D02*
D03*
X105452Y-47600D02*
D03*
D56*
X105455Y-22250D02*
D03*
X105455Y-34724D02*
D03*
X107869Y-8443D02*
D03*
X105452Y-50749D02*
D03*
D57*
X102843Y-133D02*
D03*
X133125Y-15300D02*
D03*
D58*
X99694Y-133D02*
D03*
X136275Y-15300D02*
D03*
D59*
X77737Y1286D02*
D03*
Y-14462D02*
D03*
X68288Y1286D02*
D03*
Y-14462D02*
D03*
D60*
X82696Y62673D02*
D03*
Y69169D02*
D03*
D61*
X77300Y69150D02*
D03*
Y62850D02*
D03*
X88100Y62850D02*
D03*
Y69150D02*
D03*
X109200Y65799D02*
D03*
Y59500D02*
D03*
X103100Y65799D02*
D03*
Y59500D02*
D03*
D62*
X187000Y-20000D02*
D03*
D63*
X84556Y54300D02*
D03*
D64*
X79044D02*
D03*
D65*
X194400Y84806D02*
D03*
Y77900D02*
D03*
X199800Y84806D02*
D03*
Y77900D02*
D03*
D66*
X227465Y-63034D02*
D03*
X223917Y-65518D02*
D03*
D67*
X104331Y15390D02*
D03*
X106299D02*
D03*
X108268D02*
D03*
X110237D02*
D03*
X112205D02*
D03*
X114174D02*
D03*
X116142D02*
D03*
X118111D02*
D03*
X120079D02*
D03*
X122048D02*
D03*
X124016D02*
D03*
X125985D02*
D03*
Y42752D02*
D03*
X124016D02*
D03*
X122048D02*
D03*
X120079D02*
D03*
X118111D02*
D03*
X116142D02*
D03*
X114174D02*
D03*
X112205D02*
D03*
X110237D02*
D03*
X108268D02*
D03*
X106299D02*
D03*
X104331D02*
D03*
D68*
X128839Y18244D02*
D03*
Y20212D02*
D03*
Y22181D02*
D03*
Y24149D02*
D03*
Y26118D02*
D03*
Y28087D02*
D03*
Y30055D02*
D03*
Y32024D02*
D03*
Y33992D02*
D03*
Y35961D02*
D03*
Y37929D02*
D03*
Y39898D02*
D03*
X101477D02*
D03*
Y37929D02*
D03*
Y35961D02*
D03*
Y33992D02*
D03*
Y32024D02*
D03*
Y30055D02*
D03*
Y28087D02*
D03*
Y26118D02*
D03*
Y24149D02*
D03*
Y22181D02*
D03*
Y20212D02*
D03*
Y18244D02*
D03*
D69*
X115158Y29071D02*
D03*
D70*
X157903Y-51220D02*
D03*
X157869Y51212D02*
D03*
D71*
X152809Y-46145D02*
D03*
X255207Y-46137D02*
D03*
D72*
X255196Y46791D02*
D03*
X152789Y46791D02*
D03*
D73*
X250782Y51199D02*
D03*
X250788Y-51210D02*
D03*
D74*
X181023Y-51218D02*
D03*
X204653Y-51196D02*
D03*
X228268D02*
D03*
X228275Y51207D02*
D03*
X204661D02*
D03*
X181031Y51185D02*
D03*
D75*
X152791Y-23010D02*
D03*
X152800Y617D02*
D03*
X255194Y670D02*
D03*
X255175Y24348D02*
D03*
X255186Y-22957D02*
D03*
X152780Y24295D02*
D03*
D76*
X62876Y-28276D02*
D03*
D77*
Y-50324D02*
D03*
D78*
X84924Y-28276D02*
D03*
D79*
Y-50324D02*
D03*
D80*
X73900Y-39300D02*
D03*
D81*
X105498Y-60798D02*
D03*
D82*
X118806D02*
D03*
X110144D02*
D03*
D83*
X183100Y0D02*
D03*
D84*
X190777Y11614D02*
D03*
X188218D02*
D03*
X185659D02*
D03*
X183100D02*
D03*
X180541D02*
D03*
X177982D02*
D03*
X175423D02*
D03*
Y-11614D02*
D03*
X177982D02*
D03*
X180541D02*
D03*
X183100D02*
D03*
X185659D02*
D03*
X188218D02*
D03*
X190777D02*
D03*
D85*
X171486Y7677D02*
D03*
Y5118D02*
D03*
Y2559D02*
D03*
Y0D02*
D03*
Y-2559D02*
D03*
Y-5118D02*
D03*
Y-7677D02*
D03*
X194714D02*
D03*
Y-5118D02*
D03*
Y-2559D02*
D03*
Y0D02*
D03*
Y2559D02*
D03*
Y5118D02*
D03*
Y7677D02*
D03*
D86*
X138507Y71500D02*
D03*
X176893D02*
D03*
Y86500D02*
D03*
X138507D02*
D03*
D87*
X155180Y63252D02*
D03*
X165180D02*
D03*
X145180D02*
D03*
D88*
X269800Y15500D02*
D03*
X270000Y-15500D02*
D03*
X209600Y56600D02*
D03*
X8500Y0D02*
D03*
D89*
X112520Y85240D02*
D03*
Y77760D02*
D03*
X102480D02*
D03*
Y81500D02*
D03*
Y85240D02*
D03*
D90*
X197268Y61046D02*
D03*
X195300D02*
D03*
X193332D02*
D03*
Y66754D02*
D03*
X195300D02*
D03*
X197268D02*
D03*
X128431Y86954D02*
D03*
X130400D02*
D03*
X132369D02*
D03*
Y81246D02*
D03*
X130400D02*
D03*
X128431D02*
D03*
D91*
X94900Y80423D02*
D03*
Y70777D02*
D03*
D92*
X176013Y2559D02*
X194714D01*
X188218Y-5118D02*
X194714D01*
Y5118D02*
X208435D01*
X194714Y-2579D02*
X202979D01*
X204000Y-12800D02*
Y-3600D01*
X212000Y900D02*
X216600D01*
X206300Y13365D02*
X211865D01*
X134400Y8072D02*
X134900Y8572D01*
X134800Y8672D02*
Y13200D01*
X229531Y-42000D02*
Y-37700D01*
X229596Y-37635D02*
X235500D01*
X243926Y-37604D02*
X251396D01*
X222965Y-33500D02*
X223065Y-33400D01*
X222865Y-29600D02*
X222965Y-29700D01*
X235400Y38935D02*
X235405Y38940D01*
X238808D01*
X134800Y8672D02*
X134900Y8572D01*
X202947Y2579D02*
X210320D01*
X176013Y-7087D02*
X180738Y-2362D01*
X194714Y-5118D02*
X198218D01*
X199600Y-6500D01*
X175423Y-15477D02*
Y-11614D01*
Y-7677D02*
X176013Y-7087D01*
X185462Y-2362D02*
X188218Y-5118D01*
X61921Y69079D02*
Y74968D01*
X175423Y-11614D02*
Y-7677D01*
X210320Y2579D02*
X212000Y900D01*
Y-3635D02*
Y900D01*
X202600Y13365D02*
X202631Y13335D01*
X206300D01*
X200435Y67D02*
X202947Y2579D01*
X200435Y0D02*
Y67D01*
X252600Y-36400D02*
Y-33800D01*
X251396Y-37604D02*
X252600Y-36400D01*
X250671Y35000D02*
Y35263D01*
X72158Y71342D02*
Y74968D01*
Y71342D02*
X74360Y69140D01*
X77266D01*
X243926Y38940D02*
X246994D01*
X229531Y-37700D02*
X229596Y-37635D01*
X235531Y-37604D02*
X238808D01*
X202979Y-2579D02*
X204000Y-3600D01*
X194714Y-2579D02*
Y-2559D01*
X134400Y8072D02*
X134500Y7972D01*
X183100Y0D02*
X185462Y-2362D01*
X174600Y-16300D02*
X175423Y-15477D01*
D93*
X110000Y81700D02*
X118000D01*
X94800Y85240D02*
X96440D01*
X89784D02*
X94800D01*
X46700Y17500D02*
X51700Y22500D01*
X42852D02*
X51700D01*
X24600Y7500D02*
X28148D01*
X19700Y12400D02*
X24600Y7500D01*
X28048Y12400D02*
X28148Y12500D01*
X19700Y12400D02*
X28048D01*
X118000Y79744D02*
Y81700D01*
X107400Y79100D02*
X110000Y81700D01*
X118000Y85256D02*
X121444D01*
X112520Y85240D02*
X117984D01*
X42852Y17500D02*
X46700D01*
X94900Y64700D02*
Y70777D01*
X93031Y62831D02*
X93700Y63500D01*
X94900Y64700D01*
X96440Y85240D02*
X101811D01*
X89300Y84756D02*
X89784Y85240D01*
X94800D02*
Y87000D01*
X94900Y80423D02*
Y83700D01*
X96440Y85240D01*
X121444Y85256D02*
X123000Y83700D01*
Y74112D02*
Y83700D01*
D94*
X106200Y70000D02*
X115850D01*
X78925Y51517D02*
Y55780D01*
X184200Y35200D02*
Y45800D01*
X184600Y45400D01*
X188019Y45565D02*
X191600Y49146D01*
X181500Y32500D02*
X184200Y35200D01*
X81620Y58475D02*
X95768D01*
X78925Y55780D02*
X81620Y58475D01*
X95768D02*
X98500Y61207D01*
X82667Y69140D02*
X82696Y69169D01*
X38170Y35370D02*
X63712D01*
X172546Y65500D02*
X180200D01*
X191600Y54100D01*
Y49146D02*
Y54100D01*
X161650Y75950D02*
X172100Y65500D01*
X184600Y45400D02*
X187854D01*
X106200Y69900D02*
X109200Y66900D01*
X134500Y76100D02*
X161650D01*
X132512Y74112D02*
X134500Y76100D01*
X127100Y62500D02*
X128600Y64000D01*
X109200Y65799D02*
Y66900D01*
X122743Y62500D02*
X127100D01*
X169300Y47300D02*
X171300Y45300D01*
X177157D01*
X122650Y62594D02*
Y69500D01*
X115850Y70000D02*
X116350Y69500D01*
X103100Y59500D02*
X109200D01*
X8700Y25591D02*
X18534Y35425D01*
X28148Y18000D02*
Y22500D01*
X18534Y35425D02*
X38225D01*
X98500Y68800D02*
X103813Y74112D01*
X98500Y61207D02*
Y68800D01*
X103100Y65799D02*
Y66800D01*
X106200Y69900D01*
X63842Y35500D02*
X77975Y49633D01*
Y50567D01*
X78925Y51517D01*
X63712Y35370D02*
X63842Y35500D01*
X28148Y22500D02*
Y25348D01*
X38170Y35370D01*
X123000Y74112D02*
X132512D01*
X103813D02*
X123000D01*
D95*
X157700Y-36500D02*
X172900D01*
X100161Y40000D02*
X101477D01*
X138793Y43272D02*
X141000D01*
X160900Y-13343D02*
X167176Y-19619D01*
X220735Y45400D02*
X220935Y45600D01*
X132850Y-15550D02*
X135950Y-18650D01*
X132850Y-15550D02*
Y-9020D01*
X128218Y32179D02*
X132099D01*
X159400Y-14800D02*
X165697Y-21097D01*
X166028Y36472D02*
X170000Y32500D01*
X137712Y10009D02*
Y14319D01*
X135980Y16050D02*
X137712Y14319D01*
X135501Y16050D02*
X135980D01*
X131338Y20212D02*
X135501Y16050D01*
X139212Y10631D02*
X140732Y9111D01*
X139212Y10631D02*
Y14940D01*
X136602Y17550D02*
X139212Y14940D01*
X136122Y17550D02*
X136602D01*
X131491Y22181D02*
X136122Y17550D01*
X140712Y11252D02*
X142232Y9732D01*
X140712Y11252D02*
Y15561D01*
X137223Y19050D02*
X140712Y15561D01*
X136743Y19050D02*
X137223D01*
X131644Y24149D02*
X136743Y19050D01*
X142212Y11874D02*
X143732Y10354D01*
X142212Y11874D02*
Y16183D01*
X137845Y20550D02*
X142212Y16183D01*
X137365Y20550D02*
X137845D01*
X131797Y26118D02*
X137365Y20550D01*
X145232Y-9296D02*
Y10975D01*
X143712Y12495D02*
X145232Y10975D01*
X143712Y12495D02*
Y16804D01*
X138466Y22050D02*
X143712Y16804D01*
X137986Y22050D02*
X138466D01*
X131949Y28087D02*
X137986Y22050D01*
X146732Y-8600D02*
Y11596D01*
X145212Y13116D02*
X146732Y11596D01*
X145212Y13116D02*
Y17425D01*
X139087Y23550D02*
X145212Y17425D01*
X138607Y23550D02*
X139087D01*
X132102Y30055D02*
X138607Y23550D01*
X148232Y-8053D02*
Y12218D01*
X146712Y13737D02*
X148232Y12218D01*
X146712Y13737D02*
Y18047D01*
X139708Y25050D02*
X146712Y18047D01*
X139229Y25050D02*
X139708D01*
X132099Y32179D02*
X139229Y25050D01*
X149732Y-7432D02*
Y12839D01*
X148212Y14359D02*
X149732Y12839D01*
X148212Y14359D02*
Y18668D01*
X140330Y26550D02*
X148212Y18668D01*
X139850Y26550D02*
X140330D01*
X132408Y33992D02*
X139850Y26550D01*
X149712Y14980D02*
Y30988D01*
Y14980D02*
X161743Y2949D01*
X149119Y33702D02*
X154320D01*
X155850Y32172D01*
Y11626D02*
Y32172D01*
X146721Y38222D02*
X149443Y35500D01*
X154643D01*
X157350Y32793D01*
Y12774D02*
Y32793D01*
X148221Y38843D02*
X150064Y37000D01*
X155265D01*
X158850Y33415D01*
Y14721D02*
Y33415D01*
Y14721D02*
X160349Y13222D01*
X160350Y15342D02*
X163643Y12049D01*
X160350Y15342D02*
Y34036D01*
X155886Y38500D02*
X160350Y34036D01*
X150685Y38500D02*
X155886D01*
X149721Y39465D02*
X150685Y38500D01*
X159200Y37307D02*
Y44200D01*
Y37307D02*
X161850Y34657D01*
Y16626D02*
Y34657D01*
Y16626D02*
X165035Y13441D01*
X118000Y-1630D02*
Y6010D01*
X112205Y11805D02*
X118000Y6010D01*
X116500Y-2252D02*
Y5388D01*
X110237Y11652D02*
X116500Y5388D01*
X115000Y-9347D02*
Y4767D01*
X108482Y11286D02*
X115000Y4767D01*
X143732Y-10132D02*
Y10354D01*
X137712Y10009D02*
X139232Y8490D01*
X172465Y-31435D02*
X183600Y-20300D01*
X188218Y-18782D02*
Y-11614D01*
X187000Y-20000D02*
X188218Y-18782D01*
X139232Y-12268D02*
Y8490D01*
X138600Y-12900D02*
X139232Y-12268D01*
X138600Y-15231D02*
Y-12900D01*
X142600Y-19800D02*
X144300Y-21500D01*
Y-24600D02*
Y-21500D01*
X142700Y-26200D02*
X144300Y-24600D01*
X136200Y-7000D02*
X137650Y-5550D01*
X134870Y-7000D02*
X136200D01*
X132850Y-9020D02*
X134870Y-7000D01*
X198700Y-32700D02*
X217520D01*
X192200Y-39200D02*
X198700Y-32700D01*
X217520D02*
X218320Y-33500D01*
X218635D01*
X218135Y43900D02*
X220935Y41100D01*
X201900Y43900D02*
X218135D01*
X195200Y37200D02*
X201900Y43900D01*
X215235Y42400D02*
X220835Y36800D01*
X207100Y42400D02*
X215235D01*
X201500Y36800D02*
X207100Y42400D01*
X187854Y45400D02*
X220735D01*
X187900Y-40700D02*
X224035D01*
X180400Y-33200D02*
X187900Y-40700D01*
X178900Y-33200D02*
X180400D01*
X176621D02*
X178900D01*
X173376Y-38145D02*
X175300Y-36221D01*
X157045Y-38145D02*
X173376D01*
X175300Y-34521D02*
X176621Y-33200D01*
X175300Y-36221D02*
Y-34521D01*
X173800Y-33900D02*
X177400Y-30300D01*
X173800Y-35600D02*
Y-33900D01*
X172900Y-36500D02*
X173800Y-35600D01*
X188621Y-39200D02*
X192200D01*
X184100Y-34679D02*
X188621Y-39200D01*
X223435D02*
X225035Y-37600D01*
X203300Y-39200D02*
X223435D01*
X199800Y-35700D02*
X203300Y-39200D01*
X224035Y-40700D02*
X224935Y-41600D01*
X184100Y-34679D02*
Y-32300D01*
X193420Y-33350D02*
X195781D01*
X191750Y-31681D02*
X193420Y-33350D01*
X191750Y-31681D02*
Y-30350D01*
X186900Y-25500D02*
X191750Y-30350D01*
X195781Y-33350D02*
X198010Y-31120D01*
X217014D01*
X194300Y-30500D02*
X194600D01*
X187000Y-20000D02*
X189900Y-22900D01*
Y-26100D02*
Y-22900D01*
Y-26100D02*
X194300Y-30500D01*
X217014Y-31120D02*
X218535Y-29600D01*
X182100Y-30300D02*
X184100Y-32300D01*
X185659Y-15857D02*
Y-11614D01*
X173882Y-27634D02*
X185659Y-15857D01*
X183100Y-16295D02*
Y-11614D01*
X173261Y-26134D02*
X183100Y-16295D01*
X183600Y-20300D02*
X185100D01*
X171600Y-31435D02*
X172465D01*
X177982Y-17312D02*
Y-11614D01*
X172060Y-23234D02*
X177982Y-17312D01*
X177400Y-30300D02*
X182100D01*
X223065Y-33400D02*
X232000D01*
X222965Y-33500D02*
Y-29700D01*
X154300Y-35400D02*
X157045Y-38145D01*
X155100Y-33900D02*
X157700Y-36500D01*
X166758Y-27634D02*
X173882D01*
X168042Y-26134D02*
X173261D01*
X170710Y-23234D02*
X172060D01*
X232265Y38935D02*
X235400D01*
X230100Y41100D02*
X232265Y38935D01*
X225265Y41100D02*
X230100D01*
X225265D02*
Y45500D01*
X230000Y36800D02*
X232100Y34700D01*
X225165Y36800D02*
X230000D01*
X165997Y48846D02*
Y53579D01*
X165295Y48144D02*
X165997Y48846D01*
X163144Y48144D02*
X165295D01*
X159200Y44200D02*
X163144Y48144D01*
X143721Y36979D02*
X149712Y30988D01*
X142232Y-10753D02*
Y9732D01*
X140732Y-13332D02*
Y9111D01*
X157350Y12774D02*
X160859Y9265D01*
X155850Y11626D02*
X163135Y4341D01*
X118000Y-1630D02*
X120870Y-4500D01*
X116500Y-2252D02*
X121598Y-7350D01*
X115000Y-9347D02*
X115710Y-10058D01*
X170000Y18200D02*
X172411D01*
X171570Y21163D02*
X177982Y14751D01*
X172411Y18200D02*
X175423Y15188D01*
X150137Y-33900D02*
X155100D01*
X156887Y-33065D02*
X162400D01*
X156221Y-32400D02*
X156887Y-33065D01*
X151234Y-32400D02*
X156221D01*
X156400Y-17276D02*
X162959Y-23835D01*
X156400Y-17276D02*
Y-15200D01*
X155000Y-13800D02*
X156400Y-15200D01*
X149736Y-13800D02*
X155000D01*
X145232Y-9296D02*
X149736Y-13800D01*
X157900Y-15992D02*
X164351Y-22443D01*
X157900Y-15992D02*
Y-14579D01*
X155621Y-12300D02*
X157900Y-14579D01*
X150357Y-12300D02*
X155621D01*
X146745Y-8688D02*
X150357Y-12300D01*
X159400Y-14800D02*
Y-13957D01*
X156243Y-10800D02*
X159400Y-13957D01*
X150979Y-10800D02*
X156243D01*
X148232Y-8053D02*
X150979Y-10800D01*
X160900Y-13343D02*
Y-13336D01*
X156864Y-9300D02*
X160900Y-13336D01*
X151600Y-9300D02*
X156864D01*
X149732Y-7432D02*
X151600Y-9300D01*
X149723Y-30889D02*
X151234Y-32400D01*
X149723Y-30889D02*
Y-16123D01*
X143732Y-10132D02*
X149723Y-16123D01*
X158900Y-25800D02*
X161835Y-28735D01*
X158900Y-25800D02*
Y-24600D01*
X147607Y-35400D02*
X154300D01*
X61149Y40408D02*
X63842Y37714D01*
X122700Y-28579D02*
X126779Y-24500D01*
X134900D02*
X135700Y-23700D01*
X126779Y-24500D02*
X134900D01*
X122700Y-33795D02*
Y-28579D01*
Y-45605D02*
X125200Y-43106D01*
Y-28200D01*
X127400Y-26000D01*
X127700Y-33795D02*
Y-28300D01*
X128500Y-27500D01*
X142700Y-33795D02*
Y-26200D01*
X140943Y-22700D02*
X141400D01*
X136881Y-18650D02*
X138550Y-20320D01*
Y-22971D02*
Y-20320D01*
X135521Y-26000D02*
X138550Y-22971D01*
X135700Y-23700D02*
Y-21500D01*
X136275Y-15923D02*
X140152Y-19800D01*
X142600D01*
X141669Y-18300D02*
X145200D01*
X138600Y-15231D02*
X141669Y-18300D01*
X135950Y-18650D02*
X136881D01*
X136275Y-15923D02*
Y-15300D01*
X128500Y-27500D02*
X136143D01*
X140943Y-22700D01*
X127400Y-26000D02*
X135521D01*
X136275Y-15300D02*
Y-13775D01*
X135700Y-13200D02*
X136275Y-13775D01*
X142232Y-10753D02*
X148223Y-16744D01*
Y-31986D02*
Y-16744D01*
X137650Y-5550D02*
Y6750D01*
X172100Y65500D02*
X172546D01*
X181046Y57000D01*
X28048Y2400D02*
X28148Y2500D01*
X19700Y2400D02*
X28048D01*
X51200Y5000D02*
Y15092D01*
X48700Y2500D02*
X51200Y5000D01*
X109747Y84246D02*
Y86877D01*
X109350Y83850D02*
X109747Y84246D01*
Y86877D02*
X111370Y88500D01*
X109251Y83850D02*
X109350D01*
X107351Y81950D02*
X109251Y83850D01*
X102930Y81950D02*
X107351D01*
X102480Y81500D02*
X102930Y81950D01*
X111370Y88500D02*
X127800D01*
X146487Y58150D02*
X150234Y54403D01*
X127047Y58150D02*
X146487D01*
X144466Y56650D02*
X149721Y51395D01*
X127668Y56650D02*
X144466D01*
X143844Y55150D02*
X148221Y50774D01*
X128290Y55150D02*
X143844D01*
X143223Y53650D02*
X146721Y50152D01*
X128911Y53650D02*
X143223D01*
X142602Y52150D02*
X145221Y49531D01*
X129532Y52150D02*
X142602D01*
X141981Y50650D02*
X143721Y48910D01*
X130154Y50650D02*
X141981D01*
X136750Y44350D02*
X140200Y47800D01*
X173183Y68200D02*
X181400D01*
X166000Y75383D02*
X173183Y68200D01*
X181400D02*
X186470Y63130D01*
X170500Y75800D02*
X179500D01*
X166000Y75383D02*
Y78300D01*
X63842Y35500D02*
Y37714D01*
X42852Y2500D02*
X48700D01*
X77172Y11400D02*
X86900D01*
X75172Y9400D02*
X77172Y11400D01*
X28148Y-7500D02*
X35171D01*
X37550Y-5121D01*
X28148Y-12500D02*
X35171D01*
X37550Y-10120D01*
X28148Y-17500D02*
X35171D01*
X37550Y-15121D01*
X28148Y-22500D02*
X35171D01*
X37550Y-20121D01*
X130400Y79700D02*
X131300Y78800D01*
X146700D01*
X134800Y7972D02*
X136428D01*
X134500D02*
X134800D01*
X148223Y-31986D02*
X150137Y-33900D01*
X83350Y47550D02*
X103436D01*
X194630Y64630D02*
X195300Y65300D01*
X181044Y70856D02*
Y74256D01*
X179500Y75800D02*
X181044Y74256D01*
X195300Y65300D02*
Y66754D01*
Y61046D02*
Y62600D01*
X194770Y63130D02*
X195300Y62600D01*
X127800Y88500D02*
X128431Y87868D01*
Y86954D02*
Y87868D01*
X146700Y78800D02*
X149000Y81100D01*
X130400Y79700D02*
Y81246D01*
X100140Y77760D02*
X102480D01*
X99100Y78800D02*
X100140Y77760D01*
X99100Y78800D02*
Y82530D01*
X114147Y45250D02*
X127047Y58150D01*
X116142Y45124D02*
X127668Y56650D01*
X118084Y44945D02*
X128290Y55150D01*
X120053Y44792D02*
X128911Y53650D01*
X122048Y44665D02*
X129532Y52150D01*
X124016Y44513D02*
X130154Y50650D01*
X127472Y-10100D02*
X127500Y-10072D01*
Y-8100D01*
X126750Y-7350D02*
X127500Y-8100D01*
X121598Y-7350D02*
X126750D01*
X165465Y-26341D02*
X166758Y-27634D01*
X166857Y-24949D02*
X168042Y-26134D01*
X169641Y-22165D02*
X170710Y-23234D01*
X160349Y12559D02*
Y13222D01*
X103436Y47550D02*
X106299Y44686D01*
X96233Y46050D02*
X100783Y41500D01*
X133166Y44350D02*
X136750D01*
X134200Y47400D02*
X134400Y47600D01*
X129025Y47400D02*
X134200D01*
X131514Y40576D02*
X133788Y42850D01*
X138371D01*
X130014Y41197D02*
X133166Y44350D01*
X131514Y39238D02*
Y40576D01*
X130014Y40335D02*
Y41197D01*
X130205Y37929D02*
X131514Y39238D01*
X129576Y39898D02*
X130014Y40335D01*
X128839Y37929D02*
X130205D01*
X128839Y39898D02*
X129576D01*
X149721Y39465D02*
Y51395D01*
X148221Y38843D02*
Y50774D01*
X146721Y38222D02*
Y50152D01*
X145221Y37600D02*
Y49531D01*
X143721Y36979D02*
Y48910D01*
X150234Y54403D02*
X165172D01*
X135700Y-13200D02*
Y-10200D01*
X140732Y-13332D02*
X141800Y-14400D01*
X160349Y12559D02*
X162251Y10657D01*
X145221Y37600D02*
X149119Y33702D01*
X120870Y-4500D02*
X125700D01*
X246994Y38940D02*
X250671Y35263D01*
X86900Y11400D02*
X97681Y22181D01*
X125985Y44360D02*
X129025Y47400D01*
X136428Y7972D02*
X137650Y6750D01*
X147500Y-35293D02*
X147607Y-35400D01*
X103079Y41500D02*
X104331Y42752D01*
X100783Y41500D02*
X103079D01*
X125985Y42752D02*
Y44360D01*
X124016Y42752D02*
Y44513D01*
X122048Y42752D02*
Y44665D01*
X120053Y42778D02*
Y44792D01*
X118084Y42778D02*
Y44945D01*
X116142Y42752D02*
Y45124D01*
X114147Y42778D02*
Y45250D01*
X82600Y4800D02*
X98013Y20212D01*
X101477D01*
X97681Y22181D02*
X101477D01*
X128839D02*
X131491D01*
X128839Y24149D02*
X131644D01*
X128839Y26118D02*
X131797D01*
X128839Y28087D02*
X131949D01*
X128839Y30055D02*
X132102D01*
X108268Y15390D02*
X108482Y15176D01*
X235500Y-37635D02*
X235531Y-37604D01*
X171570Y21163D02*
Y23132D01*
X170000Y32500D02*
X175138D01*
X175810Y31829D01*
Y19044D02*
Y31829D01*
Y19044D02*
X180541Y14313D01*
X177982Y11614D02*
Y14751D01*
X180541Y11614D02*
Y14313D01*
X118084Y42778D02*
X118111Y42752D01*
X114147Y42778D02*
X114174Y42752D01*
X128839Y30000D02*
Y30055D01*
X128218Y32179D02*
X128374Y32024D01*
X128839D01*
X100111Y37929D02*
X101477D01*
X99958Y35961D02*
X101477D01*
X99805Y33992D02*
X101477D01*
X99652Y32024D02*
X101477D01*
X99500Y30055D02*
X101477D01*
X99347Y28087D02*
X101477D01*
X163468Y6759D02*
X170227Y0D01*
X171486D01*
X170349Y2559D02*
X171486D01*
X164757Y8151D02*
X170349Y2559D01*
X163365Y6759D02*
X163468D01*
X170574Y5118D02*
X171486D01*
X166149Y9543D02*
X170574Y5118D01*
X170799Y7677D02*
X171486D01*
X167541Y10935D02*
X170799Y7677D01*
X165172Y54403D02*
X165997Y53579D01*
X106299Y42752D02*
Y44686D01*
X161835Y-28735D02*
X162400D01*
X115710Y-15907D02*
Y-10058D01*
Y-15907D02*
X116961Y-17158D01*
X127472Y-16489D02*
Y-10100D01*
X126803Y-17158D02*
X127472Y-16489D01*
X170035Y-2559D02*
X171486D01*
X165641Y1835D02*
X170035Y-2559D01*
X169810Y-5118D02*
X171486D01*
X164249Y443D02*
X169810Y-5118D01*
X84047Y-7128D02*
X84500D01*
X77737Y-13439D02*
X84047Y-7128D01*
X77737Y-14462D02*
Y-13439D01*
X82600Y-2900D02*
Y4800D01*
Y-2900D02*
X84500Y-4800D01*
Y-7128D02*
Y-4800D01*
X68288Y1286D02*
X75172Y8170D01*
Y9400D01*
X91883Y35550D02*
X99347Y28087D01*
X92505Y37050D02*
X99500Y30055D01*
X93126Y38550D02*
X99652Y32024D01*
X93747Y40050D02*
X99805Y33992D01*
X94369Y41550D02*
X99958Y35961D01*
X94990Y43050D02*
X100111Y37929D01*
X95611Y44550D02*
X100161Y40000D01*
X181044Y70856D02*
X187270Y64630D01*
X194630D01*
X186470Y63130D02*
X194770D01*
X108482Y11286D02*
Y15176D01*
X110237Y11652D02*
Y15390D01*
X112205Y11805D02*
Y15390D01*
X128839Y20212D02*
X131338D01*
X128839Y33992D02*
X132408D01*
X64700Y9500D02*
X72850Y17650D01*
Y25876D01*
X63200Y10121D02*
X71350Y18271D01*
Y26497D01*
X61700Y10743D02*
X69850Y18893D01*
Y27118D01*
X60200Y11364D02*
X68350Y19514D01*
Y27740D01*
X58700Y11985D02*
X66850Y20135D01*
Y28361D01*
X57200Y12607D02*
X65350Y20757D01*
Y28982D01*
X55700Y13228D02*
X63850Y21378D01*
Y29604D01*
X54200Y13849D02*
X62350Y21999D01*
Y30225D01*
X59400Y29900D02*
X59750Y29550D01*
Y21521D02*
Y29550D01*
X56500Y20392D02*
Y25700D01*
X51200Y15092D02*
X56500Y20392D01*
X24100Y42500D02*
Y42800D01*
X54353Y60730D02*
X54746D01*
X99100Y82530D02*
X101811Y85240D01*
X66850Y28361D02*
X79739Y41250D01*
X68350Y27740D02*
X80360Y39750D01*
X69850Y27118D02*
X80982Y38250D01*
X71350Y26497D02*
X81603Y36750D01*
X72850Y25876D02*
X82224Y35250D01*
X82620D01*
X81603Y36750D02*
X81998D01*
X80982Y38250D02*
X81377D01*
X80360Y39750D02*
X80756D01*
X79739Y41250D02*
X80134D01*
X79121Y44480D02*
X79192Y44550D01*
X62350Y30225D02*
X76347Y44222D01*
Y44222D01*
X78105Y45980D01*
X78500D01*
X78570Y46050D01*
X82620Y35250D02*
X82920Y35550D01*
X81998Y36750D02*
X82298Y37050D01*
X81377Y38250D02*
X81677Y38550D01*
X80756Y39750D02*
X81055Y40050D01*
X80134Y41250D02*
X80434Y41550D01*
X79545Y42782D02*
X79813Y43050D01*
X81055Y40050D02*
X93747D01*
X80434Y41550D02*
X94369D01*
X79813Y43050D02*
X94990D01*
X79192Y44550D02*
X95611D01*
X78570Y46050D02*
X96233D01*
X65350Y28982D02*
X79150Y42782D01*
X79545D01*
X81677Y38550D02*
X93126D01*
X82298Y37050D02*
X92505D01*
X82920Y35550D02*
X91883D01*
X78726Y44480D02*
X79121D01*
X63850Y29604D02*
X78726Y44480D01*
X82000Y48900D02*
X83350Y47550D01*
X138371Y42850D02*
X138793Y43272D01*
X175423Y11614D02*
Y15188D01*
X24100Y42500D02*
X25572Y43972D01*
X52835Y62248D02*
X54353Y60730D01*
X44877Y55177D02*
Y55200D01*
X51924Y62248D01*
X52835D01*
X40300Y52700D02*
X42400D01*
X44877Y55177D01*
X31346Y51500D02*
X37000D01*
X38200Y52700D01*
X40300D01*
X25572Y43972D02*
X33400D01*
X39672Y43972D02*
X43400Y47700D01*
X38300Y43972D02*
X39672D01*
X37128Y47700D02*
X43400D01*
X33400Y43972D02*
X37128Y47700D01*
X52700Y14471D02*
X59750Y21521D01*
X42852Y-2500D02*
X50800D01*
X52700Y-600D01*
Y14471D01*
X54200Y-1221D02*
Y13849D01*
X37550Y-5121D02*
X50301D01*
X54200Y-1221D01*
X55700Y-1843D02*
Y13228D01*
X42852Y-7500D02*
X50043D01*
X55700Y-1843D01*
X37550Y-15121D02*
X49986D01*
X60200Y-4907D01*
Y11364D01*
X37550Y-20121D02*
X49279D01*
X63200Y-6200D01*
Y10121D01*
X61700Y-5528D02*
Y10743D01*
X42852Y-17500D02*
X49728D01*
X61700Y-5528D01*
X37550Y-10120D02*
X49779D01*
X57200Y-2700D01*
Y12607D01*
X58700Y-3321D02*
Y11985D01*
X42852Y-12500D02*
X49521D01*
X58700Y-3321D01*
X64700Y-6821D02*
Y9500D01*
X42852Y-22500D02*
X49021D01*
X64700Y-6821D01*
D96*
X35000Y26400D02*
X39950Y31350D01*
X48600Y40924D02*
X52200D01*
X157360Y56800D02*
X174354D01*
X127900Y8100D02*
Y8600D01*
X124300Y7740D02*
X127700Y4340D01*
X124000Y3200D02*
Y6060D01*
X122360Y7700D02*
X124000Y6060D01*
X121160Y4900D02*
X121200D01*
X124300Y7740D02*
Y12400D01*
X124000Y12700D02*
X124300Y12400D01*
X124000Y12700D02*
Y15374D01*
X120340Y7700D02*
X122360D01*
X121500Y10500D02*
X122048Y11048D01*
X118025Y10015D02*
X120340Y7700D01*
X118025Y10015D02*
Y15304D01*
X116142Y9918D02*
X121160Y4900D01*
X180541Y-16803D02*
Y-11614D01*
X172660Y-24684D02*
X180541Y-16803D01*
X169376Y-24684D02*
X172660D01*
X42852Y12500D02*
X48400D01*
X49700Y13800D02*
Y15642D01*
X33300Y-2500D02*
X35000Y-800D01*
X36400Y8100D02*
X37000Y7500D01*
X42852D01*
X28148Y-2500D02*
X33300D01*
X48400Y12500D02*
X49700Y13800D01*
X155180Y63252D02*
X155280Y63152D01*
Y58880D02*
Y63152D01*
Y58880D02*
X157360Y56800D01*
X153200D02*
X155280Y58880D01*
X149888Y56800D02*
X153200D01*
X147805Y58883D02*
X149888Y56800D01*
X147805Y58883D02*
Y67624D01*
X64730Y40100D02*
X74900Y50270D01*
X64310Y40100D02*
X64730D01*
X62367Y42043D02*
X64310Y40100D01*
X118025Y15304D02*
X118111Y15390D01*
X120079Y13100D02*
Y15390D01*
X122048Y11048D02*
Y15390D01*
X121200Y400D02*
X124000Y3200D01*
X116142Y9918D02*
Y15390D01*
X125985Y10515D02*
Y15390D01*
Y10515D02*
X127900Y8600D01*
X66224Y63300D02*
X70200D01*
X63654Y60730D02*
X66224Y63300D01*
X68560Y65900D02*
X70400Y67740D01*
X66040Y65900D02*
X68560D01*
X67000Y74929D02*
X67039Y74968D01*
X67000Y69000D02*
Y74929D01*
X62262Y62122D02*
X66040Y65900D01*
X69598Y70861D02*
X70400Y70060D01*
X69598Y70861D02*
Y74968D01*
X70400Y67740D02*
Y70060D01*
X54746Y43246D02*
Y43470D01*
X147190Y68239D02*
X147805Y67624D01*
X143170Y68239D02*
X147190D01*
X142555Y67624D02*
X143170Y68239D01*
X142555Y60955D02*
Y67624D01*
X141200Y59600D02*
X142555Y60955D01*
X126446Y59600D02*
X141200D01*
X102796Y78589D02*
X103395D01*
X112205Y45359D02*
X126446Y59600D01*
X168249Y-23557D02*
X169376Y-24684D01*
X127600Y3000D02*
Y4240D01*
X127700Y4340D01*
X124000Y15374D02*
X124016Y15390D01*
X121200Y-800D02*
Y400D01*
X112205Y42752D02*
Y45359D01*
X125985Y15390D02*
X126000Y15374D01*
X114174Y13200D02*
Y15390D01*
X36400Y8100D02*
Y25820D01*
X38680Y28100D01*
X42100D01*
X45200Y31200D01*
X49700Y15642D02*
X55000Y20943D01*
Y23240D01*
X53700Y24540D02*
X55000Y23240D01*
X50200Y31300D02*
X53700Y27800D01*
Y24540D02*
Y27800D01*
X35000Y-800D02*
Y26400D01*
X74500Y50670D02*
X74900Y50270D01*
X74500Y50670D02*
Y57300D01*
X52054Y37995D02*
X56138Y42078D01*
X52200Y40924D02*
X54746Y43470D01*
X38300Y40428D02*
X40734Y37995D01*
X52054D01*
X268584Y-8467D02*
X268001Y-9051D01*
Y-10217D01*
X268584Y-10800D01*
X270917D01*
X271500Y-10217D01*
Y-9051D01*
X270917Y-8467D01*
X268001Y-4969D02*
Y-6135D01*
Y-5552D01*
X270917D01*
X271500Y-6135D01*
Y-6718D01*
X270917Y-7301D01*
X268001Y-3802D02*
X271500D01*
X269751D01*
Y-1470D01*
X268001D01*
X271500D01*
X267418Y3779D02*
X268584D01*
X269167Y3196D01*
X271500Y5528D02*
Y6694D01*
Y6111D01*
X268001D01*
X268584Y5528D01*
X268001Y10776D02*
X268584Y9610D01*
X269751Y8444D01*
X270917D01*
X271500Y9027D01*
Y10193D01*
X270917Y10776D01*
X270334D01*
X269751Y10193D01*
Y8444D01*
D97*
X84444Y54328D02*
X85087Y54972D01*
X97772D02*
X102300Y59500D01*
X93000Y54972D02*
X97772D01*
X102300Y59500D02*
X103100D01*
X103700Y54000D02*
X109200Y59500D01*
X85087Y54972D02*
X93000D01*
D98*
X166245Y36688D02*
X167229Y37672D01*
X167239Y23132D02*
Y27426D01*
X166245Y28420D02*
X167239Y27426D01*
X171570Y27446D02*
X172544Y28420D01*
X167229Y37672D02*
Y42023D01*
X171560Y37673D02*
Y42023D01*
Y37673D02*
X172544Y36688D01*
X171570Y23132D02*
Y27446D01*
D99*
X88001Y62673D02*
X88158Y62831D01*
X77266Y69140D02*
X82667D01*
X82696Y62673D02*
X88001D01*
X88158Y62831D02*
X93031D01*
D100*
X102845Y-8443D02*
X105454D01*
X105461Y-19160D02*
Y-14481D01*
X105452Y-39403D02*
Y-34724D01*
X105442Y-47553D02*
Y-42874D01*
X73900Y-39400D02*
X101928D01*
X105445Y-31662D02*
Y-26984D01*
X105468Y-26880D02*
Y-22201D01*
X86300Y27100D02*
X88000Y25400D01*
X90100D01*
X91747Y27047D01*
X102845Y-8444D02*
Y-8443D01*
X105454Y-14390D02*
Y-8443D01*
X107869D01*
X95047Y-1D02*
X99561D01*
X99694Y-133D01*
X107868Y-5293D02*
X107869Y-5294D01*
X107868Y-5293D02*
Y46D01*
X102845Y-4901D02*
Y-135D01*
D101*
X111250Y-57400D02*
D03*
D102*
X110144Y-61519D02*
D03*
X118806D02*
D03*
D103*
X105500Y-61569D02*
D03*
D104*
X114301Y-60950D02*
D03*
D105*
X6400Y54100D02*
D03*
Y-54100D02*
D03*
D106*
X228836Y80513D02*
D03*
X208364D02*
D03*
Y-80513D02*
D03*
X228836D02*
D03*
D107*
X8700Y-25591D02*
D03*
Y25591D02*
D03*
D108*
X134800Y13200D02*
D03*
X141400Y29400D02*
D03*
X165000Y18800D02*
D03*
X127900Y8100D02*
D03*
X121200Y4900D02*
D03*
X135300Y40000D02*
D03*
X121500Y10500D02*
D03*
X206600Y-35900D02*
D03*
X189600Y-34000D02*
D03*
X194600Y-30500D02*
D03*
X199800Y-35700D02*
D03*
X186900Y-25500D02*
D03*
X184100Y-32300D02*
D03*
X178900Y-33200D02*
D03*
X200000Y-23700D02*
D03*
X201500Y36800D02*
D03*
X232000Y-33400D02*
D03*
X227500Y-29900D02*
D03*
X234300Y-27200D02*
D03*
X232100Y34700D02*
D03*
X195200Y37200D02*
D03*
X181500Y32500D02*
D03*
X170000Y18200D02*
D03*
X158900Y-24600D02*
D03*
X164500Y-5700D02*
D03*
X141400Y-22700D02*
D03*
X135700Y-21500D02*
D03*
X145200Y-18300D02*
D03*
X152791Y-23010D02*
D03*
X19700Y2400D02*
D03*
X14500Y54900D02*
D03*
X28700Y40100D02*
D03*
X88000Y74400D02*
D03*
X140200Y47800D02*
D03*
X170500Y75800D02*
D03*
X166000Y78300D02*
D03*
X84100Y32700D02*
D03*
X89800Y31600D02*
D03*
X86300Y27100D02*
D03*
X19700Y12400D02*
D03*
X83050Y15700D02*
D03*
X79600Y27700D02*
D03*
X77700Y15500D02*
D03*
X62000Y69000D02*
D03*
X70200Y63300D02*
D03*
X59200Y46532D02*
D03*
X56416Y49316D02*
D03*
X53632Y52100D02*
D03*
X59200Y52100D02*
D03*
X56416Y54884D02*
D03*
X64768Y52100D02*
D03*
X61984Y54884D02*
D03*
X59200Y57668D02*
D03*
X61984Y49316D02*
D03*
X67000Y69000D02*
D03*
X106200Y69900D02*
D03*
X160300Y60900D02*
D03*
X151000Y70700D02*
D03*
X197800Y71300D02*
D03*
X143700Y81700D02*
D03*
X107400Y79100D02*
D03*
X128600Y64000D02*
D03*
X212000Y900D02*
D03*
X204000Y-12800D02*
D03*
X88200Y50500D02*
D03*
X134400Y47600D02*
D03*
X127600Y3000D02*
D03*
X152780Y24295D02*
D03*
X134400Y-4000D02*
D03*
X135700Y-10200D02*
D03*
X141800Y-14400D02*
D03*
X121200Y-800D02*
D03*
X125700Y-4500D02*
D03*
X252600Y-33800D02*
D03*
X250671Y35000D02*
D03*
X147500Y-35293D02*
D03*
X211900Y13400D02*
D03*
X152800Y617D02*
D03*
X152800Y51200D02*
D03*
X169300Y47300D02*
D03*
X97700Y14800D02*
D03*
X181031Y51185D02*
D03*
X204661Y51207D02*
D03*
X228275D02*
D03*
X255200Y51100D02*
D03*
X255175Y24348D02*
D03*
X255194Y670D02*
D03*
X255186Y-22957D02*
D03*
X254900Y-51000D02*
D03*
X228268Y-51196D02*
D03*
X204653D02*
D03*
X153000Y-51000D02*
D03*
X181023Y-51218D02*
D03*
X103000Y53500D02*
D03*
X213200Y-68400D02*
D03*
X194700Y17000D02*
D03*
X167100Y-31300D02*
D03*
X210100Y-12600D02*
D03*
X199600Y-6500D02*
D03*
X121654Y22575D02*
D03*
Y26905D02*
D03*
Y31236D02*
D03*
Y35567D02*
D03*
X117323D02*
D03*
Y31236D02*
D03*
Y26905D02*
D03*
Y22575D02*
D03*
X112993D02*
D03*
Y26905D02*
D03*
Y31236D02*
D03*
Y35567D02*
D03*
X108662D02*
D03*
Y31236D02*
D03*
Y26905D02*
D03*
Y22575D02*
D03*
X238300Y18700D02*
D03*
X247200Y5500D02*
D03*
X226500Y32100D02*
D03*
X219500D02*
D03*
X213000Y26300D02*
D03*
X200000Y26400D02*
D03*
X213000Y31400D02*
D03*
X206100D02*
D03*
X200000D02*
D03*
X226400Y-400D02*
D03*
X231900Y-2400D02*
D03*
X236800Y-5500D02*
D03*
X238300Y-11000D02*
D03*
X238600Y-17400D02*
D03*
X232000Y-8900D02*
D03*
X224400Y-8400D02*
D03*
X217900Y-8600D02*
D03*
X217800Y-3600D02*
D03*
X250200Y9700D02*
D03*
X253200Y13900D02*
D03*
X249800Y900D02*
D03*
X253600Y-11000D02*
D03*
X212400Y-23700D02*
D03*
X249900Y-42000D02*
D03*
X246200Y-46000D02*
D03*
X222900Y-60200D02*
D03*
X214200D02*
D03*
X209700Y-63500D02*
D03*
X218700Y-57100D02*
D03*
X219100Y-46100D02*
D03*
X225100Y-46000D02*
D03*
X231100D02*
D03*
X237100Y-46200D02*
D03*
X174600Y-16300D02*
D03*
X222600Y60400D02*
D03*
X219800Y56200D02*
D03*
X215100Y59500D02*
D03*
X233900Y-63800D02*
D03*
X229400Y-67300D02*
D03*
X44100Y-58400D02*
D03*
X50100D02*
D03*
X56100D02*
D03*
X62100D02*
D03*
X68100D02*
D03*
X74100D02*
D03*
X80100D02*
D03*
X86100D02*
D03*
X92100D02*
D03*
X98100D02*
D03*
X117300Y-56900D02*
D03*
X123300D02*
D03*
X129300D02*
D03*
X135300D02*
D03*
X141300D02*
D03*
X147300D02*
D03*
X153300D02*
D03*
X159300D02*
D03*
X165300D02*
D03*
X111200Y-14900D02*
D03*
Y-20900D02*
D03*
Y-26900D02*
D03*
Y-32900D02*
D03*
Y-38900D02*
D03*
Y-44900D02*
D03*
Y-50900D02*
D03*
X117400Y-51000D02*
D03*
Y-45000D02*
D03*
Y-39000D02*
D03*
Y-33000D02*
D03*
Y-27000D02*
D03*
X92800Y-52000D02*
D03*
Y-46000D02*
D03*
Y-27400D02*
D03*
Y-21400D02*
D03*
X55100Y-21900D02*
D03*
Y-27900D02*
D03*
Y-33900D02*
D03*
Y-39900D02*
D03*
Y-45900D02*
D03*
Y-51900D02*
D03*
X99800Y-46000D02*
D03*
Y-52000D02*
D03*
X85100Y-21100D02*
D03*
X79100Y-21400D02*
D03*
X73100D02*
D03*
X61100Y-21100D02*
D03*
X67100Y-21400D02*
D03*
X92800Y-33400D02*
D03*
X49500Y-52300D02*
D03*
Y-46300D02*
D03*
X43900Y-52300D02*
D03*
Y-46300D02*
D03*
X99800Y-33200D02*
D03*
Y-20600D02*
D03*
X207300Y-56800D02*
D03*
X201300Y-56900D02*
D03*
X195300D02*
D03*
X189300D02*
D03*
X183300D02*
D03*
X177300D02*
D03*
X171300D02*
D03*
X213400Y67100D02*
D03*
X210400Y62800D02*
D03*
X238700Y-59900D02*
D03*
X242600Y-56100D02*
D03*
X228667Y68519D02*
D03*
X233226Y64550D02*
D03*
X242128Y56676D02*
D03*
X237900Y60500D02*
D03*
X262800Y-54000D02*
D03*
Y-48000D02*
D03*
Y-42000D02*
D03*
Y-36000D02*
D03*
Y-30000D02*
D03*
Y-24000D02*
D03*
Y-18000D02*
D03*
Y-12000D02*
D03*
Y-6000D02*
D03*
Y0D02*
D03*
Y6000D02*
D03*
Y12000D02*
D03*
Y18000D02*
D03*
Y24000D02*
D03*
Y30000D02*
D03*
Y36000D02*
D03*
Y42000D02*
D03*
Y48000D02*
D03*
Y54000D02*
D03*
X250300Y-57200D02*
D03*
X256300D02*
D03*
X249800Y57200D02*
D03*
X255800D02*
D03*
X159300Y-45000D02*
D03*
X165300D02*
D03*
X171300D02*
D03*
X177300D02*
D03*
X183300D02*
D03*
X189300D02*
D03*
X195300D02*
D03*
X201300D02*
D03*
X207300D02*
D03*
X169100Y-51300D02*
D03*
X192800Y-51200D02*
D03*
X216500Y-51600D02*
D03*
X216400Y51000D02*
D03*
X209200Y51200D02*
D03*
X223100D02*
D03*
X233400D02*
D03*
X246600Y51300D02*
D03*
X250782Y51199D02*
D03*
X199900Y51300D02*
D03*
X247500Y-51200D02*
D03*
X233000D02*
D03*
X223500D02*
D03*
X209300D02*
D03*
X200100D02*
D03*
X185800D02*
D03*
X176300Y-51300D02*
D03*
X162800Y-51200D02*
D03*
X157903Y-51220D02*
D03*
X185700Y51200D02*
D03*
X152900Y-45100D02*
D03*
X255207Y-46137D02*
D03*
X176400Y51200D02*
D03*
X255200Y19900D02*
D03*
Y29100D02*
D03*
X255196Y46791D02*
D03*
X255200Y42600D02*
D03*
Y5400D02*
D03*
Y-4100D02*
D03*
Y-18200D02*
D03*
Y-27500D02*
D03*
Y-41600D02*
D03*
X257700Y-35700D02*
D03*
X77000Y-52500D02*
D03*
X71000D02*
D03*
X38000Y-46500D02*
D03*
Y-52500D02*
D03*
X213000Y-46100D02*
D03*
X128700Y69700D02*
D03*
X255600Y36800D02*
D03*
X176013Y-2362D02*
D03*
X180738Y-7087D02*
D03*
X190187Y7087D02*
D03*
X180738D02*
D03*
X185462D02*
D03*
X180738Y-2362D02*
D03*
X176013Y-7087D02*
D03*
Y2362D02*
D03*
Y7087D02*
D03*
X190187Y2362D02*
D03*
X185462D02*
D03*
X180738D02*
D03*
X185462Y-2362D02*
D03*
X190187D02*
D03*
Y-7087D02*
D03*
X185462D02*
D03*
X93700Y63500D02*
D03*
X59400Y29900D02*
D03*
X26900Y31000D02*
D03*
X40100Y31200D02*
D03*
X45200D02*
D03*
X50200Y31300D02*
D03*
X51700Y22500D02*
D03*
X56500Y25700D02*
D03*
X94800Y87000D02*
D03*
X82000Y48900D02*
D03*
X74500Y57300D02*
D03*
X48600Y40800D02*
D03*
X43400Y47700D02*
D03*
X40300Y52700D02*
D03*
D109*
X149000Y81100D02*
D03*
X24100Y42500D02*
D03*
M02*
