G04 Layer_Color=16711935*
%FSLAX25Y25*%
%MOIN*%
G70*
G01*
G75*
%ADD199C,0.09494*%
G04:AMPARAMS|DCode=200|XSize=90.55mil|YSize=177.16mil|CornerRadius=6.3mil|HoleSize=0mil|Usage=FLASHONLY|Rotation=180.000|XOffset=0mil|YOffset=0mil|HoleType=Round|Shape=RoundedRectangle|*
%AMROUNDEDRECTD200*
21,1,0.09055,0.16457,0,0,180.0*
21,1,0.07795,0.17716,0,0,180.0*
1,1,0.01260,-0.03898,0.08228*
1,1,0.01260,0.03898,0.08228*
1,1,0.01260,0.03898,-0.08228*
1,1,0.01260,-0.03898,-0.08228*
%
%ADD200ROUNDEDRECTD200*%
G04:AMPARAMS|DCode=201|XSize=137.92mil|YSize=322.96mil|CornerRadius=36.48mil|HoleSize=0mil|Usage=FLASHONLY|Rotation=0.000|XOffset=0mil|YOffset=0mil|HoleType=Round|Shape=RoundedRectangle|*
%AMROUNDEDRECTD201*
21,1,0.13792,0.25000,0,0,0.0*
21,1,0.06496,0.32296,0,0,0.0*
1,1,0.07296,0.03248,-0.12500*
1,1,0.07296,-0.03248,-0.12500*
1,1,0.07296,-0.03248,0.12500*
1,1,0.07296,0.03248,0.12500*
%
%ADD201ROUNDEDRECTD201*%
%ADD202C,0.04300*%
%ADD203C,0.04740*%
D199*
X6400Y54100D02*
D03*
Y-54100D02*
D03*
D200*
X228836Y80513D02*
D03*
X208364D02*
D03*
Y-80513D02*
D03*
X228836D02*
D03*
D201*
X8700Y-25591D02*
D03*
Y25591D02*
D03*
D202*
X134800Y13200D02*
D03*
X141400Y29400D02*
D03*
X165000Y18800D02*
D03*
X127900Y8100D02*
D03*
X121200Y4900D02*
D03*
X135300Y40000D02*
D03*
X121500Y10500D02*
D03*
X206600Y-35900D02*
D03*
X189600Y-34000D02*
D03*
X194600Y-30500D02*
D03*
X199800Y-35700D02*
D03*
X186900Y-25500D02*
D03*
X184100Y-32300D02*
D03*
X178900Y-33200D02*
D03*
X200000Y-23700D02*
D03*
X201500Y36800D02*
D03*
X232000Y-33400D02*
D03*
X227500Y-29900D02*
D03*
X234300Y-27200D02*
D03*
X232100Y34700D02*
D03*
X195200Y37200D02*
D03*
X181500Y32500D02*
D03*
X170000Y18200D02*
D03*
X158900Y-24600D02*
D03*
X164500Y-5700D02*
D03*
X141400Y-22700D02*
D03*
X135700Y-21500D02*
D03*
X145200Y-18300D02*
D03*
X152791Y-23010D02*
D03*
X19700Y2400D02*
D03*
X14500Y54900D02*
D03*
X28700Y40100D02*
D03*
X88000Y74400D02*
D03*
X140200Y47800D02*
D03*
X170500Y75800D02*
D03*
X166000Y78300D02*
D03*
X84100Y32700D02*
D03*
X89800Y31600D02*
D03*
X86300Y27100D02*
D03*
X19700Y12400D02*
D03*
X83050Y15700D02*
D03*
X79600Y27700D02*
D03*
X77700Y15500D02*
D03*
X62000Y69000D02*
D03*
X70200Y63300D02*
D03*
X59200Y46532D02*
D03*
X56416Y49316D02*
D03*
X53632Y52100D02*
D03*
X59200Y52100D02*
D03*
X56416Y54884D02*
D03*
X64768Y52100D02*
D03*
X61984Y54884D02*
D03*
X59200Y57668D02*
D03*
X61984Y49316D02*
D03*
X67000Y69000D02*
D03*
X106200Y69900D02*
D03*
X160300Y60900D02*
D03*
X151000Y70700D02*
D03*
X197800Y71300D02*
D03*
X143700Y81700D02*
D03*
X107400Y79100D02*
D03*
X128600Y64000D02*
D03*
X212000Y900D02*
D03*
X204000Y-12800D02*
D03*
X88200Y50500D02*
D03*
X134400Y47600D02*
D03*
X127600Y3000D02*
D03*
X152780Y24295D02*
D03*
X134400Y-4000D02*
D03*
X135700Y-10200D02*
D03*
X141800Y-14400D02*
D03*
X121200Y-800D02*
D03*
X125700Y-4500D02*
D03*
X252600Y-33800D02*
D03*
X250671Y35000D02*
D03*
X147500Y-35293D02*
D03*
X211900Y13400D02*
D03*
X152800Y617D02*
D03*
X152800Y51200D02*
D03*
X169300Y47300D02*
D03*
X97700Y14800D02*
D03*
X181031Y51185D02*
D03*
X204661Y51207D02*
D03*
X228275D02*
D03*
X255200Y51100D02*
D03*
X255175Y24348D02*
D03*
X255194Y670D02*
D03*
X255186Y-22957D02*
D03*
X254900Y-51000D02*
D03*
X228268Y-51196D02*
D03*
X204653D02*
D03*
X153000Y-51000D02*
D03*
X181023Y-51218D02*
D03*
X103000Y53500D02*
D03*
X213200Y-68400D02*
D03*
X194700Y17000D02*
D03*
X167100Y-31300D02*
D03*
X210100Y-12600D02*
D03*
X199600Y-6500D02*
D03*
X121654Y22575D02*
D03*
Y26905D02*
D03*
Y31236D02*
D03*
Y35567D02*
D03*
X117323D02*
D03*
Y31236D02*
D03*
Y26905D02*
D03*
Y22575D02*
D03*
X112993D02*
D03*
Y26905D02*
D03*
Y31236D02*
D03*
Y35567D02*
D03*
X108662D02*
D03*
Y31236D02*
D03*
Y26905D02*
D03*
Y22575D02*
D03*
X238300Y18700D02*
D03*
X247200Y5500D02*
D03*
X226500Y32100D02*
D03*
X219500D02*
D03*
X213000Y26300D02*
D03*
X200000Y26400D02*
D03*
X213000Y31400D02*
D03*
X206100D02*
D03*
X200000D02*
D03*
X226400Y-400D02*
D03*
X231900Y-2400D02*
D03*
X236800Y-5500D02*
D03*
X238300Y-11000D02*
D03*
X238600Y-17400D02*
D03*
X232000Y-8900D02*
D03*
X224400Y-8400D02*
D03*
X217900Y-8600D02*
D03*
X217800Y-3600D02*
D03*
X250200Y9700D02*
D03*
X253200Y13900D02*
D03*
X249800Y900D02*
D03*
X253600Y-11000D02*
D03*
X212400Y-23700D02*
D03*
X249900Y-42000D02*
D03*
X246200Y-46000D02*
D03*
X222900Y-60200D02*
D03*
X214200D02*
D03*
X209700Y-63500D02*
D03*
X218700Y-57100D02*
D03*
X219100Y-46100D02*
D03*
X225100Y-46000D02*
D03*
X231100D02*
D03*
X237100Y-46200D02*
D03*
X174600Y-16300D02*
D03*
X222600Y60400D02*
D03*
X219800Y56200D02*
D03*
X215100Y59500D02*
D03*
X233900Y-63800D02*
D03*
X229400Y-67300D02*
D03*
X44100Y-58400D02*
D03*
X50100D02*
D03*
X56100D02*
D03*
X62100D02*
D03*
X68100D02*
D03*
X74100D02*
D03*
X80100D02*
D03*
X86100D02*
D03*
X92100D02*
D03*
X98100D02*
D03*
X117300Y-56900D02*
D03*
X123300D02*
D03*
X129300D02*
D03*
X135300D02*
D03*
X141300D02*
D03*
X147300D02*
D03*
X153300D02*
D03*
X159300D02*
D03*
X165300D02*
D03*
X111200Y-14900D02*
D03*
Y-20900D02*
D03*
Y-26900D02*
D03*
Y-32900D02*
D03*
Y-38900D02*
D03*
Y-44900D02*
D03*
Y-50900D02*
D03*
X117400Y-51000D02*
D03*
Y-45000D02*
D03*
Y-39000D02*
D03*
Y-33000D02*
D03*
Y-27000D02*
D03*
X92800Y-52000D02*
D03*
Y-46000D02*
D03*
Y-27400D02*
D03*
Y-21400D02*
D03*
X55100Y-21900D02*
D03*
Y-27900D02*
D03*
Y-33900D02*
D03*
Y-39900D02*
D03*
Y-45900D02*
D03*
Y-51900D02*
D03*
X99800Y-46000D02*
D03*
Y-52000D02*
D03*
X85100Y-21100D02*
D03*
X79100Y-21400D02*
D03*
X73100D02*
D03*
X61100Y-21100D02*
D03*
X67100Y-21400D02*
D03*
X92800Y-33400D02*
D03*
X49500Y-52300D02*
D03*
Y-46300D02*
D03*
X43900Y-52300D02*
D03*
Y-46300D02*
D03*
X99800Y-33200D02*
D03*
Y-20600D02*
D03*
X207300Y-56800D02*
D03*
X201300Y-56900D02*
D03*
X195300D02*
D03*
X189300D02*
D03*
X183300D02*
D03*
X177300D02*
D03*
X171300D02*
D03*
X213400Y67100D02*
D03*
X210400Y62800D02*
D03*
X238700Y-59900D02*
D03*
X242600Y-56100D02*
D03*
X228667Y68519D02*
D03*
X233226Y64550D02*
D03*
X242128Y56676D02*
D03*
X237900Y60500D02*
D03*
X262800Y-54000D02*
D03*
Y-48000D02*
D03*
Y-42000D02*
D03*
Y-36000D02*
D03*
Y-30000D02*
D03*
Y-24000D02*
D03*
Y-18000D02*
D03*
Y-12000D02*
D03*
Y-6000D02*
D03*
Y0D02*
D03*
Y6000D02*
D03*
Y12000D02*
D03*
Y18000D02*
D03*
Y24000D02*
D03*
Y30000D02*
D03*
Y36000D02*
D03*
Y42000D02*
D03*
Y48000D02*
D03*
Y54000D02*
D03*
X250300Y-57200D02*
D03*
X256300D02*
D03*
X249800Y57200D02*
D03*
X255800D02*
D03*
X159300Y-45000D02*
D03*
X165300D02*
D03*
X171300D02*
D03*
X177300D02*
D03*
X183300D02*
D03*
X189300D02*
D03*
X195300D02*
D03*
X201300D02*
D03*
X207300D02*
D03*
X169100Y-51300D02*
D03*
X192800Y-51200D02*
D03*
X216500Y-51600D02*
D03*
X216400Y51000D02*
D03*
X209200Y51200D02*
D03*
X223100D02*
D03*
X233400D02*
D03*
X246600Y51300D02*
D03*
X250782Y51199D02*
D03*
X199900Y51300D02*
D03*
X247500Y-51200D02*
D03*
X233000D02*
D03*
X223500D02*
D03*
X209300D02*
D03*
X200100D02*
D03*
X185800D02*
D03*
X176300Y-51300D02*
D03*
X162800Y-51200D02*
D03*
X157903Y-51220D02*
D03*
X185700Y51200D02*
D03*
X152900Y-45100D02*
D03*
X255207Y-46137D02*
D03*
X176400Y51200D02*
D03*
X255200Y19900D02*
D03*
Y29100D02*
D03*
X255196Y46791D02*
D03*
X255200Y42600D02*
D03*
Y5400D02*
D03*
Y-4100D02*
D03*
Y-18200D02*
D03*
Y-27500D02*
D03*
Y-41600D02*
D03*
X257700Y-35700D02*
D03*
X77000Y-52500D02*
D03*
X71000D02*
D03*
X38000Y-46500D02*
D03*
Y-52500D02*
D03*
X213000Y-46100D02*
D03*
X128700Y69700D02*
D03*
X255600Y36800D02*
D03*
X176013Y-2362D02*
D03*
X180738Y-7087D02*
D03*
X190187Y7087D02*
D03*
X180738D02*
D03*
X185462D02*
D03*
X180738Y-2362D02*
D03*
X176013Y-7087D02*
D03*
Y2362D02*
D03*
Y7087D02*
D03*
X190187Y2362D02*
D03*
X185462D02*
D03*
X180738D02*
D03*
X185462Y-2362D02*
D03*
X190187D02*
D03*
Y-7087D02*
D03*
X185462D02*
D03*
X93700Y63500D02*
D03*
X59400Y29900D02*
D03*
X26900Y31000D02*
D03*
X40100Y31200D02*
D03*
X45200D02*
D03*
X50200Y31300D02*
D03*
X51700Y22500D02*
D03*
X56500Y25700D02*
D03*
X94800Y87000D02*
D03*
X82000Y48900D02*
D03*
X74500Y57300D02*
D03*
X48600Y40800D02*
D03*
X43400Y47700D02*
D03*
X40300Y52700D02*
D03*
D203*
X149000Y81100D02*
D03*
X24100Y42500D02*
D03*
M02*
