M48
;Layer_Color=9474304
;FILE_FORMAT=2:5
INCH,LZ
;TYPE=PLATED
T1F00S00C0.01968
T2F00S00C0.01970
T3F00S00C0.02000
T5F00S00C0.05200
%
T01
X0208364Y-0080513
X0228836
Y0080513
X0208364
T02
X0149Y00811
X00241Y00425
T03
X0038Y-00525
Y-00465
X00439Y-00463
X00495
X00551Y-00459
Y-00399
Y-00339
Y-00519
X00495Y-00523
X00439
X00441Y-00584
X00501
X00561
X00621
X00681
X00741
X00801
X00861
X00921
X00981
X00998Y-0052
Y-0046
X00928
Y-0052
X0077Y-00525
X0071
X00928Y-00334
X00998Y-00332
X01112Y-00329
Y-00389
Y-00449
Y-00509
X01174Y-0051
X01173Y-00569
X01233
X01293
X01353
X01413
X01473
X01533
X01593
X01653
X01713
X01773
X01833
X01893
X01953
X02013
X02073Y-00568
X02093Y-00512
X0204653Y-0051196
X02001Y-00512
X01928
X01858
X0181023Y-0051218
X01763Y-00513
X01691
X01628Y-00512
X0157903Y-005122
X0153Y-0051
X01529Y-00451
X01593Y-0045
X01653
X01713
X01773
X01833
X01893
X01953
X02013
X02073
X02066Y-00359
X01998Y-00357
X01896Y-0034
X01841Y-00323
X01789Y-00332
X01671Y-00313
X01475Y-0035293
X01174Y-0033
Y-0039
Y-0045
X02097Y-00635
X02142Y-00602
X02187Y-00571
X02229Y-00602
X02235Y-00512
X0228268Y-0051196
X0233Y-00512
X02311Y-0046
X02251
X02191Y-00461
X0213
X02165Y-00516
X02132Y-00684
X02294Y-00673
X02339Y-00638
X02387Y-00599
X02426Y-00561
X02503Y-00572
X02563
X02549Y-0051
X0255207Y-0046137
X02552Y-00416
X02499Y-0042
X02462Y-0046
X02475Y-00512
X02371Y-00462
X0232Y-00334
X02526Y-00338
X02577Y-00357
X02628Y-0036
Y-0042
Y-0048
Y-0054
Y-003
Y-0024
Y-0018
Y-0012
Y-0006
Y0
Y0006
Y0012
Y0018
Y0024
Y003
Y0036
Y0042
Y0048
Y0054
X02558Y00572
X02498
X0250782Y0051199
X02466Y00513
X02552Y00511
X0255196Y0046791
X02552Y00426
X02556Y00368
X0250671Y0035
X02552Y00291
X0255175Y0024348
X02552Y00199
X02532Y00139
X02502Y00097
X02472Y00055
X02498Y00009
X0255194Y000067
X02552Y00054
Y-00041
X02536Y-0011
X02552Y-00182
X0255186Y-0022957
X02552Y-00275
X02343Y-00272
X02275Y-00299
X02124Y-00237
X02179Y-00086
X02178Y-00036
X0212Y00009
X02264Y-00004
X02319Y-00024
X0232Y-00089
X02244Y-00084
X02368Y-00055
X02383Y-0011
X02386Y-00174
X02383Y00187
X02321Y00347
X02265Y00321
X02195
X0213Y00314
Y00263
X02164Y0051
X02231Y00512
X0228275Y0051207
X02334Y00512
X0233226Y006455
X0228667Y0068519
X02226Y00604
X02198Y00562
X02151Y00595
X02134Y00671
X02379Y00605
X0242128Y0056676
X02104Y00628
X02092Y00512
X0204661Y0051207
X01999Y00513
X01857Y00512
X0181031Y0051185
X01764Y00512
X01693Y00473
X01528Y00512
X01402Y00478
X01344Y00476
X01353Y004
X01414Y00294
X015278Y0024295
X0165Y00188
X017Y00182
X0176013Y0007087
X0180738
X0185462
X0190187
Y0002362
Y-0002362
X0185462
X0180738
Y0002362
X0185462
X0176013
Y-0002362
Y-0007087
X0180738
X0185462
X0190187
X01996Y-00065
X0204Y-00128
X02101Y-00126
X02Y-00237
X01946Y-00305
X01869Y-00255
X01746Y-00163
X01645Y-00057
X01528Y0000617
X01344Y-0004
X01357Y-00102
X01418Y-00144
X01452Y-00183
X01414Y-00227
X01357Y-00215
X0152791Y-002301
X01589Y-00246
X01174Y-0027
X01112Y-00269
Y-00209
Y-00149
X00998Y-00206
X00928Y-00214
Y-00274
X00851Y-00211
X00791Y-00214
X00731
X00671
X00611Y-00211
X00565Y00257
X00594Y00299
X00592Y0046532
X0056416Y0049316
X00592Y00521
X0056416Y0054884
X0061984
X00592Y0057668
X0064768Y00521
X0061984Y0049316
X0062Y0069
X0067
X00702Y00633
X00745Y00573
X0082Y00489
X00882Y00505
X0103Y00535
X00937Y00635
X0088Y00744
X00948Y0087
X01074Y00791
X01062Y00699
X01287Y00697
X01286Y0064
X0151Y00707
X01437Y00817
X0166Y00783
X01705Y00758
X01603Y00609
X01978Y00713
X01952Y00372
X02015Y00368
X02Y00314
Y00264
X02061Y00314
X02119Y00134
X01947Y0017
X01815Y00325
X0121654Y0031236
Y0026905
Y0022575
X0117323
X0112993
Y0026905
X0117323
Y0031236
X0112993
Y0035567
X0117323
X0121654
X0108662
Y0031236
Y0026905
Y0022575
X00977Y00148
X008305Y00157
X00777Y00155
X00796Y00277
X00863Y00271
X00841Y00327
X00898Y00316
X01215Y00105
X01212Y00049
Y-00008
X01257Y-00045
X01276Y0003
X01279Y00081
X01348Y00132
X00517Y00225
X00502Y00313
X00452Y00312
X00401
X00269Y0031
X00287Y00401
X00486Y00408
X00434Y00477
X00403Y00527
X0053632Y00521
X00145Y00549
X00197Y00124
Y00024
X00551Y-00219
Y-00279
T05
X00064Y-00541
Y00541
M30
