G04 Layer_Color=8388736*
%FSLAX25Y25*%
%MOIN*%
G70*
G01*
G75*
%ADD91C,0.03937*%
G04:AMPARAMS|DCode=130|XSize=16.54mil|YSize=44.09mil|CornerRadius=0mil|HoleSize=0mil|Usage=FLASHONLY|Rotation=225.000|XOffset=0mil|YOffset=0mil|HoleType=Round|Shape=Rectangle|*
%AMROTATEDRECTD130*
4,1,4,-0.00974,0.02144,0.02144,-0.00974,0.00974,-0.02144,-0.02144,0.00974,-0.00974,0.02144,0.0*
%
%ADD130ROTATEDRECTD130*%

G04:AMPARAMS|DCode=131|XSize=16.54mil|YSize=44.09mil|CornerRadius=0mil|HoleSize=0mil|Usage=FLASHONLY|Rotation=135.000|XOffset=0mil|YOffset=0mil|HoleType=Round|Shape=Rectangle|*
%AMROTATEDRECTD131*
4,1,4,0.02144,0.00974,-0.00974,-0.02144,-0.02144,-0.00974,0.00974,0.02144,0.02144,0.00974,0.0*
%
%ADD131ROTATEDRECTD131*%

%ADD132P,0.19042X4X180.0*%
%ADD133R,0.04737X0.05131*%
%ADD134R,0.14186X0.05918*%
%ADD135R,0.06706X0.03556*%
%ADD136R,0.02953X0.02953*%
%ADD137R,0.02953X0.02953*%
%ADD138R,0.03241X0.03241*%
%ADD139P,0.04176X4X350.0*%
%ADD140P,0.04176X4X385.0*%
%ADD141P,0.04176X4X215.0*%
%ADD142P,0.04176X4X180.0*%
%ADD143P,0.04176X4X320.0*%
%ADD144P,0.04176X4X273.0*%
%ADD145P,0.04176X4X85.0*%
%ADD146P,0.04176X4X190.0*%
%ADD147P,0.04176X4X100.0*%
%ADD148R,0.03162X0.02769*%
%ADD149P,0.04583X4X180.0*%
%ADD150R,0.04343X0.04737*%
%ADD151R,0.05328X0.06509*%
%ADD152R,0.04343X0.03950*%
%ADD153R,0.03950X0.04343*%
%ADD154R,0.08280X0.08280*%
%ADD155R,0.07887X0.08280*%
%ADD156R,0.09068X0.07099*%
%ADD157R,0.02375X0.06115*%
%ADD158R,0.03241X0.03241*%
G04:AMPARAMS|DCode=159|XSize=47.37mil|YSize=78.87mil|CornerRadius=13.84mil|HoleSize=0mil|Usage=FLASHONLY|Rotation=180.000|XOffset=0mil|YOffset=0mil|HoleType=Round|Shape=RoundedRectangle|*
%AMROUNDEDRECTD159*
21,1,0.04737,0.05118,0,0,180.0*
21,1,0.01969,0.07887,0,0,180.0*
1,1,0.02769,-0.00984,0.02559*
1,1,0.02769,0.00984,0.02559*
1,1,0.02769,0.00984,-0.02559*
1,1,0.02769,-0.00984,-0.02559*
%
%ADD159ROUNDEDRECTD159*%
G04:AMPARAMS|DCode=160|XSize=13.78mil|YSize=23.62mil|CornerRadius=0mil|HoleSize=0mil|Usage=FLASHONLY|Rotation=45.000|XOffset=0mil|YOffset=0mil|HoleType=Round|Shape=Rectangle|*
%AMROTATEDRECTD160*
4,1,4,0.00348,-0.01322,-0.01322,0.00348,-0.00348,0.01322,0.01322,-0.00348,0.00348,-0.01322,0.0*
%
%ADD160ROTATEDRECTD160*%

%ADD161R,0.04724X0.06299*%
%ADD162P,0.04176X4X150.0*%
%ADD163R,0.01969X0.03740*%
G04:AMPARAMS|DCode=164|XSize=47.24mil|YSize=29.53mil|CornerRadius=2.61mil|HoleSize=0mil|Usage=FLASHONLY|Rotation=180.000|XOffset=0mil|YOffset=0mil|HoleType=Round|Shape=RoundedRectangle|*
%AMROUNDEDRECTD164*
21,1,0.04724,0.02431,0,0,180.0*
21,1,0.04203,0.02953,0,0,180.0*
1,1,0.00522,-0.02101,0.01216*
1,1,0.00522,0.02101,0.01216*
1,1,0.00522,0.02101,-0.01216*
1,1,0.00522,-0.02101,-0.01216*
%
%ADD164ROUNDEDRECTD164*%
G04:AMPARAMS|DCode=165|XSize=62.99mil|YSize=29.53mil|CornerRadius=2.61mil|HoleSize=0mil|Usage=FLASHONLY|Rotation=180.000|XOffset=0mil|YOffset=0mil|HoleType=Round|Shape=RoundedRectangle|*
%AMROUNDEDRECTD165*
21,1,0.06299,0.02431,0,0,180.0*
21,1,0.05778,0.02953,0,0,180.0*
1,1,0.00522,-0.02889,0.01216*
1,1,0.00522,0.02889,0.01216*
1,1,0.00522,0.02889,-0.01216*
1,1,0.00522,-0.02889,-0.01216*
%
%ADD165ROUNDEDRECTD165*%
G04:AMPARAMS|DCode=166|XSize=70.87mil|YSize=29.53mil|CornerRadius=2.61mil|HoleSize=0mil|Usage=FLASHONLY|Rotation=180.000|XOffset=0mil|YOffset=0mil|HoleType=Round|Shape=RoundedRectangle|*
%AMROUNDEDRECTD166*
21,1,0.07087,0.02431,0,0,180.0*
21,1,0.06565,0.02953,0,0,180.0*
1,1,0.00522,-0.03283,0.01216*
1,1,0.00522,0.03283,0.01216*
1,1,0.00522,0.03283,-0.01216*
1,1,0.00522,-0.03283,-0.01216*
%
%ADD166ROUNDEDRECTD166*%
G04:AMPARAMS|DCode=167|XSize=39.37mil|YSize=161.42mil|CornerRadius=3.74mil|HoleSize=0mil|Usage=FLASHONLY|Rotation=180.000|XOffset=0mil|YOffset=0mil|HoleType=Round|Shape=RoundedRectangle|*
%AMROUNDEDRECTD167*
21,1,0.03937,0.15394,0,0,180.0*
21,1,0.03189,0.16142,0,0,180.0*
1,1,0.00748,-0.01595,0.07697*
1,1,0.00748,0.01595,0.07697*
1,1,0.00748,0.01595,-0.07697*
1,1,0.00748,-0.01595,-0.07697*
%
%ADD167ROUNDEDRECTD167*%
%ADD168P,0.04176X4X270.0*%
%ADD169R,0.05512X0.05512*%
G04:AMPARAMS|DCode=170|XSize=29.26mil|YSize=29.65mil|CornerRadius=9.32mil|HoleSize=0mil|Usage=FLASHONLY|Rotation=180.000|XOffset=0mil|YOffset=0mil|HoleType=Round|Shape=RoundedRectangle|*
%AMROUNDEDRECTD170*
21,1,0.02926,0.01102,0,0,180.0*
21,1,0.01063,0.02965,0,0,180.0*
1,1,0.01863,-0.00532,0.00551*
1,1,0.01863,0.00532,0.00551*
1,1,0.01863,0.00532,-0.00551*
1,1,0.01863,-0.00532,-0.00551*
%
%ADD170ROUNDEDRECTD170*%
G04:AMPARAMS|DCode=171|XSize=29.26mil|YSize=29.65mil|CornerRadius=9.32mil|HoleSize=0mil|Usage=FLASHONLY|Rotation=180.000|XOffset=0mil|YOffset=0mil|HoleType=Round|Shape=RoundedRectangle|*
%AMROUNDEDRECTD171*
21,1,0.02926,0.01102,0,0,180.0*
21,1,0.01063,0.02965,0,0,180.0*
1,1,0.01863,-0.00532,0.00551*
1,1,0.01863,0.00532,0.00551*
1,1,0.01863,0.00532,-0.00551*
1,1,0.01863,-0.00532,-0.00551*
%
%ADD171ROUNDEDRECTD171*%
G04:AMPARAMS|DCode=172|XSize=29.26mil|YSize=29.65mil|CornerRadius=9.32mil|HoleSize=0mil|Usage=FLASHONLY|Rotation=90.000|XOffset=0mil|YOffset=0mil|HoleType=Round|Shape=RoundedRectangle|*
%AMROUNDEDRECTD172*
21,1,0.02926,0.01102,0,0,90.0*
21,1,0.01063,0.02965,0,0,90.0*
1,1,0.01863,0.00551,0.00532*
1,1,0.01863,0.00551,-0.00532*
1,1,0.01863,-0.00551,-0.00532*
1,1,0.01863,-0.00551,0.00532*
%
%ADD172ROUNDEDRECTD172*%
G04:AMPARAMS|DCode=173|XSize=29.26mil|YSize=29.65mil|CornerRadius=9.32mil|HoleSize=0mil|Usage=FLASHONLY|Rotation=90.000|XOffset=0mil|YOffset=0mil|HoleType=Round|Shape=RoundedRectangle|*
%AMROUNDEDRECTD173*
21,1,0.02926,0.01102,0,0,90.0*
21,1,0.01063,0.02965,0,0,90.0*
1,1,0.01863,0.00551,0.00532*
1,1,0.01863,0.00551,-0.00532*
1,1,0.01863,-0.00551,-0.00532*
1,1,0.01863,-0.00551,0.00532*
%
%ADD173ROUNDEDRECTD173*%
G04:AMPARAMS|DCode=174|XSize=78.87mil|YSize=55.24mil|CornerRadius=6.36mil|HoleSize=0mil|Usage=FLASHONLY|Rotation=90.000|XOffset=0mil|YOffset=0mil|HoleType=Round|Shape=RoundedRectangle|*
%AMROUNDEDRECTD174*
21,1,0.07887,0.04252,0,0,90.0*
21,1,0.06614,0.05524,0,0,90.0*
1,1,0.01272,0.02126,0.03307*
1,1,0.01272,0.02126,-0.03307*
1,1,0.01272,-0.02126,-0.03307*
1,1,0.01272,-0.02126,0.03307*
%
%ADD174ROUNDEDRECTD174*%
G04:AMPARAMS|DCode=175|XSize=33.59mil|YSize=106.42mil|CornerRadius=5.28mil|HoleSize=0mil|Usage=FLASHONLY|Rotation=0.000|XOffset=0mil|YOffset=0mil|HoleType=Round|Shape=RoundedRectangle|*
%AMROUNDEDRECTD175*
21,1,0.03359,0.09587,0,0,0.0*
21,1,0.02303,0.10642,0,0,0.0*
1,1,0.01056,0.01152,-0.04793*
1,1,0.01056,-0.01152,-0.04793*
1,1,0.01056,-0.01152,0.04793*
1,1,0.01056,0.01152,0.04793*
%
%ADD175ROUNDEDRECTD175*%
%ADD176R,0.03556X0.04540*%
%ADD177R,0.04737X0.04343*%
%ADD178C,0.05394*%
G04:AMPARAMS|DCode=179|XSize=37.61mil|YSize=43.43mil|CornerRadius=11.4mil|HoleSize=0mil|Usage=FLASHONLY|Rotation=180.000|XOffset=0mil|YOffset=0mil|HoleType=Round|Shape=RoundedRectangle|*
%AMROUNDEDRECTD179*
21,1,0.03761,0.02063,0,0,180.0*
21,1,0.01480,0.04343,0,0,180.0*
1,1,0.02280,-0.00740,0.01032*
1,1,0.02280,0.00740,0.01032*
1,1,0.02280,0.00740,-0.01032*
1,1,0.02280,-0.00740,-0.01032*
%
%ADD179ROUNDEDRECTD179*%
G04:AMPARAMS|DCode=180|XSize=37.61mil|YSize=43.43mil|CornerRadius=11.4mil|HoleSize=0mil|Usage=FLASHONLY|Rotation=180.000|XOffset=0mil|YOffset=0mil|HoleType=Round|Shape=RoundedRectangle|*
%AMROUNDEDRECTD180*
21,1,0.03761,0.02063,0,0,180.0*
21,1,0.01480,0.04343,0,0,180.0*
1,1,0.02280,-0.00740,0.01032*
1,1,0.02280,0.00740,0.01032*
1,1,0.02280,0.00740,-0.01032*
1,1,0.02280,-0.00740,-0.01032*
%
%ADD180ROUNDEDRECTD180*%
G04:AMPARAMS|DCode=181|XSize=47.37mil|YSize=47.37mil|CornerRadius=9.91mil|HoleSize=0mil|Usage=FLASHONLY|Rotation=180.000|XOffset=0mil|YOffset=0mil|HoleType=Round|Shape=RoundedRectangle|*
%AMROUNDEDRECTD181*
21,1,0.04737,0.02756,0,0,180.0*
21,1,0.02756,0.04737,0,0,180.0*
1,1,0.01981,-0.01378,0.01378*
1,1,0.01981,0.01378,0.01378*
1,1,0.01981,0.01378,-0.01378*
1,1,0.01981,-0.01378,-0.01378*
%
%ADD181ROUNDEDRECTD181*%
%ADD182P,0.04176X4X260.0*%
%ADD183O,0.01784X0.03950*%
%ADD184O,0.03950X0.01784*%
%ADD185R,0.20879X0.21076*%
G04:AMPARAMS|DCode=186|XSize=47.37mil|YSize=148.55mil|CornerRadius=4.98mil|HoleSize=0mil|Usage=FLASHONLY|Rotation=270.000|XOffset=0mil|YOffset=0mil|HoleType=Round|Shape=RoundedRectangle|*
%AMROUNDEDRECTD186*
21,1,0.04737,0.13858,0,0,270.0*
21,1,0.03740,0.14855,0,0,270.0*
1,1,0.00997,-0.06929,-0.01870*
1,1,0.00997,-0.06929,0.01870*
1,1,0.00997,0.06929,0.01870*
1,1,0.00997,0.06929,-0.01870*
%
%ADD186ROUNDEDRECTD186*%
G04:AMPARAMS|DCode=187|XSize=47.37mil|YSize=148.55mil|CornerRadius=4.98mil|HoleSize=0mil|Usage=FLASHONLY|Rotation=180.000|XOffset=0mil|YOffset=0mil|HoleType=Round|Shape=RoundedRectangle|*
%AMROUNDEDRECTD187*
21,1,0.04737,0.13858,0,0,180.0*
21,1,0.03740,0.14855,0,0,180.0*
1,1,0.00997,-0.01870,0.06929*
1,1,0.00997,0.01870,0.06929*
1,1,0.00997,0.01870,-0.06929*
1,1,0.00997,-0.01870,-0.06929*
%
%ADD187ROUNDEDRECTD187*%
G04:AMPARAMS|DCode=188|XSize=47.37mil|YSize=135.56mil|CornerRadius=4.98mil|HoleSize=0mil|Usage=FLASHONLY|Rotation=180.000|XOffset=0mil|YOffset=0mil|HoleType=Round|Shape=RoundedRectangle|*
%AMROUNDEDRECTD188*
21,1,0.04737,0.12559,0,0,180.0*
21,1,0.03740,0.13556,0,0,180.0*
1,1,0.00997,-0.01870,0.06280*
1,1,0.00997,0.01870,0.06280*
1,1,0.00997,0.01870,-0.06280*
1,1,0.00997,-0.01870,-0.06280*
%
%ADD188ROUNDEDRECTD188*%
G04:AMPARAMS|DCode=189|XSize=47.37mil|YSize=135.56mil|CornerRadius=4.98mil|HoleSize=0mil|Usage=FLASHONLY|Rotation=90.000|XOffset=0mil|YOffset=0mil|HoleType=Round|Shape=RoundedRectangle|*
%AMROUNDEDRECTD189*
21,1,0.04737,0.12559,0,0,90.0*
21,1,0.03740,0.13556,0,0,90.0*
1,1,0.00997,0.06280,0.01870*
1,1,0.00997,0.06280,-0.01870*
1,1,0.00997,-0.06280,-0.01870*
1,1,0.00997,-0.06280,0.01870*
%
%ADD189ROUNDEDRECTD189*%
G04:AMPARAMS|DCode=190|XSize=47.37mil|YSize=157.61mil|CornerRadius=4.98mil|HoleSize=0mil|Usage=FLASHONLY|Rotation=90.000|XOffset=0mil|YOffset=0mil|HoleType=Round|Shape=RoundedRectangle|*
%AMROUNDEDRECTD190*
21,1,0.04737,0.14764,0,0,90.0*
21,1,0.03740,0.15761,0,0,90.0*
1,1,0.00997,0.07382,0.01870*
1,1,0.00997,0.07382,-0.01870*
1,1,0.00997,-0.07382,-0.01870*
1,1,0.00997,-0.07382,0.01870*
%
%ADD190ROUNDEDRECTD190*%
G04:AMPARAMS|DCode=191|XSize=47.37mil|YSize=157.61mil|CornerRadius=4.98mil|HoleSize=0mil|Usage=FLASHONLY|Rotation=0.000|XOffset=0mil|YOffset=0mil|HoleType=Round|Shape=RoundedRectangle|*
%AMROUNDEDRECTD191*
21,1,0.04737,0.14764,0,0,0.0*
21,1,0.03740,0.15761,0,0,0.0*
1,1,0.00997,0.01870,-0.07382*
1,1,0.00997,-0.01870,-0.07382*
1,1,0.00997,-0.01870,0.07382*
1,1,0.00997,0.01870,0.07382*
%
%ADD191ROUNDEDRECTD191*%
G04:AMPARAMS|DCode=192|XSize=86.74mil|YSize=86.74mil|CornerRadius=22.9mil|HoleSize=0mil|Usage=FLASHONLY|Rotation=180.000|XOffset=0mil|YOffset=0mil|HoleType=Round|Shape=RoundedRectangle|*
%AMROUNDEDRECTD192*
21,1,0.08674,0.04095,0,0,180.0*
21,1,0.04095,0.08674,0,0,180.0*
1,1,0.04580,-0.02047,0.02047*
1,1,0.04580,0.02047,0.02047*
1,1,0.04580,0.02047,-0.02047*
1,1,0.04580,-0.02047,-0.02047*
%
%ADD192ROUNDEDRECTD192*%
G04:AMPARAMS|DCode=193|XSize=86.74mil|YSize=86.74mil|CornerRadius=22.9mil|HoleSize=0mil|Usage=FLASHONLY|Rotation=90.000|XOffset=0mil|YOffset=0mil|HoleType=Round|Shape=RoundedRectangle|*
%AMROUNDEDRECTD193*
21,1,0.08674,0.04095,0,0,90.0*
21,1,0.04095,0.08674,0,0,90.0*
1,1,0.04580,0.02047,0.02047*
1,1,0.04580,0.02047,-0.02047*
1,1,0.04580,-0.02047,-0.02047*
1,1,0.04580,-0.02047,0.02047*
%
%ADD193ROUNDEDRECTD193*%
G04:AMPARAMS|DCode=194|XSize=86.74mil|YSize=86.74mil|CornerRadius=22.9mil|HoleSize=0mil|Usage=FLASHONLY|Rotation=90.000|XOffset=0mil|YOffset=0mil|HoleType=Round|Shape=RoundedRectangle|*
%AMROUNDEDRECTD194*
21,1,0.08674,0.04095,0,0,90.0*
21,1,0.04095,0.08674,0,0,90.0*
1,1,0.04580,0.02047,0.02047*
1,1,0.04580,0.02047,-0.02047*
1,1,0.04580,-0.02047,-0.02047*
1,1,0.04580,-0.02047,0.02047*
%
%ADD194ROUNDEDRECTD194*%
G04:AMPARAMS|DCode=195|XSize=86.74mil|YSize=86.74mil|CornerRadius=22.9mil|HoleSize=0mil|Usage=FLASHONLY|Rotation=90.000|XOffset=0mil|YOffset=0mil|HoleType=Round|Shape=RoundedRectangle|*
%AMROUNDEDRECTD195*
21,1,0.08674,0.04095,0,0,90.0*
21,1,0.04095,0.08674,0,0,90.0*
1,1,0.04580,0.02047,0.02047*
1,1,0.04580,0.02047,-0.02047*
1,1,0.04580,-0.02047,-0.02047*
1,1,0.04580,-0.02047,0.02047*
%
%ADD195ROUNDEDRECTD195*%
%ADD196C,0.07891*%
G04:AMPARAMS|DCode=197|XSize=185.04mil|YSize=185.04mil|CornerRadius=6.5mil|HoleSize=0mil|Usage=FLASHONLY|Rotation=270.000|XOffset=0mil|YOffset=0mil|HoleType=Round|Shape=RoundedRectangle|*
%AMROUNDEDRECTD197*
21,1,0.18504,0.17205,0,0,270.0*
21,1,0.17205,0.18504,0,0,270.0*
1,1,0.01299,-0.08602,-0.08602*
1,1,0.01299,-0.08602,0.08602*
1,1,0.01299,0.08602,0.08602*
1,1,0.01299,0.08602,-0.08602*
%
%ADD197ROUNDEDRECTD197*%
%ADD198O,0.01575X0.03543*%
%ADD199O,0.03543X0.01575*%
%ADD200R,0.02769X0.02375*%
%ADD201R,0.06902X0.05131*%
%ADD202R,0.03950X0.08674*%
%ADD203R,0.04147X0.03162*%
%ADD204R,0.01784X0.02769*%
%ADD205R,0.02769X0.06509*%
%ADD206R,0.05131X0.04737*%
%ADD207C,0.06000*%
G04:AMPARAMS|DCode=208|XSize=90.55mil|YSize=177.16mil|CornerRadius=6.3mil|HoleSize=0mil|Usage=FLASHONLY|Rotation=180.000|XOffset=0mil|YOffset=0mil|HoleType=Round|Shape=RoundedRectangle|*
%AMROUNDEDRECTD208*
21,1,0.09055,0.16457,0,0,180.0*
21,1,0.07795,0.17716,0,0,180.0*
1,1,0.01260,-0.03898,0.08228*
1,1,0.01260,0.03898,0.08228*
1,1,0.01260,0.03898,-0.08228*
1,1,0.01260,-0.03898,-0.08228*
%
%ADD208ROUNDEDRECTD208*%
G04:AMPARAMS|DCode=209|XSize=137.92mil|YSize=322.96mil|CornerRadius=36.48mil|HoleSize=0mil|Usage=FLASHONLY|Rotation=0.000|XOffset=0mil|YOffset=0mil|HoleType=Round|Shape=RoundedRectangle|*
%AMROUNDEDRECTD209*
21,1,0.13792,0.25000,0,0,0.0*
21,1,0.06496,0.32296,0,0,0.0*
1,1,0.07296,0.03248,-0.12500*
1,1,0.07296,-0.03248,-0.12500*
1,1,0.07296,-0.03248,0.12500*
1,1,0.07296,0.03248,0.12500*
%
%ADD209ROUNDEDRECTD209*%
%ADD210C,0.09494*%
%ADD211C,0.04740*%
%ADD212C,0.04300*%
G36*
X49414Y51917D02*
X49930Y51404D01*
X46812Y48286D01*
X45642Y49456D01*
X48106Y51919D01*
X49414Y51917D01*
D02*
G37*
G36*
X72758Y49456D02*
X71588Y48286D01*
X68470Y51404D01*
X68986Y51917D01*
X70294Y51919D01*
X72758Y49456D01*
D02*
G37*
G36*
X63014Y39712D02*
X61844Y38542D01*
X59382Y41006D01*
X59383Y42314D01*
X59896Y42830D01*
X63014Y39712D01*
D02*
G37*
G36*
X59017Y42314D02*
X59018Y41006D01*
X56556Y38542D01*
X55386Y39712D01*
X58504Y42830D01*
X59017Y42314D01*
D02*
G37*
G36*
X59018Y63194D02*
X59017Y61886D01*
X58504Y61370D01*
X55386Y64488D01*
X56556Y65658D01*
X59018Y63194D01*
D02*
G37*
G36*
X63014Y64488D02*
X59896Y61370D01*
X59383Y61886D01*
X59382Y63194D01*
X61844Y65658D01*
X63014Y64488D01*
D02*
G37*
G36*
X49930Y52796D02*
X49414Y52283D01*
X48106Y52281D01*
X45642Y54744D01*
X46812Y55914D01*
X49930Y52796D01*
D02*
G37*
G36*
X72758Y54744D02*
X70294Y52281D01*
X68986Y52283D01*
X68470Y52796D01*
X71588Y55914D01*
X72758Y54744D01*
D02*
G37*
D91*
X269800Y15500D02*
D03*
X270000Y-15500D02*
D03*
X209600Y56600D02*
D03*
X8500Y0D02*
D03*
D130*
X62262Y42078D02*
D03*
X63654Y43470D02*
D03*
X65046Y44862D02*
D03*
X66438Y46254D02*
D03*
X67830Y47646D02*
D03*
X69222Y49038D02*
D03*
X56138Y62122D02*
D03*
X54746Y60730D02*
D03*
X53354Y59338D02*
D03*
X51962Y57946D02*
D03*
X50570Y56554D02*
D03*
X49178Y55162D02*
D03*
D131*
X69222Y55162D02*
D03*
X67830Y56554D02*
D03*
X66438Y57946D02*
D03*
X65046Y59338D02*
D03*
X63654Y60730D02*
D03*
X62262Y62122D02*
D03*
X49178Y49038D02*
D03*
X50570Y47646D02*
D03*
X51962Y46254D02*
D03*
X53354Y44862D02*
D03*
X54746Y43470D02*
D03*
X56138Y42078D02*
D03*
D132*
X59200Y52100D02*
D03*
D133*
X13800Y48554D02*
D03*
Y55246D02*
D03*
X183500Y84546D02*
D03*
Y77854D02*
D03*
X189000Y84546D02*
D03*
Y77854D02*
D03*
X19200Y55246D02*
D03*
Y48554D02*
D03*
X24700Y55246D02*
D03*
Y48554D02*
D03*
D134*
X38275Y45103D02*
D03*
Y-36787D02*
D03*
D135*
X47133Y-25369D02*
D03*
Y-21432D02*
D03*
Y-17495D02*
D03*
Y-13558D02*
D03*
Y-9621D02*
D03*
Y-5684D02*
D03*
Y-1747D02*
D03*
Y33686D02*
D03*
Y29749D02*
D03*
Y25812D02*
D03*
Y21875D02*
D03*
Y17938D02*
D03*
Y14001D02*
D03*
Y10064D02*
D03*
Y6127D02*
D03*
Y2190D02*
D03*
X29417Y31717D02*
D03*
Y27780D02*
D03*
Y23843D02*
D03*
Y19906D02*
D03*
Y15969D02*
D03*
Y12032D02*
D03*
Y8095D02*
D03*
Y-23401D02*
D03*
Y-19464D02*
D03*
Y-15527D02*
D03*
Y-11590D02*
D03*
Y-7653D02*
D03*
Y-3716D02*
D03*
Y221D02*
D03*
Y4158D02*
D03*
D136*
X227235Y9100D02*
D03*
X231565Y9100D02*
D03*
X223865Y9200D02*
D03*
X219535D02*
D03*
X213865Y22000D02*
D03*
X209535D02*
D03*
X212765Y5500D02*
D03*
X208435D02*
D03*
X225035Y-37600D02*
D03*
X229365D02*
D03*
X229265Y-41600D02*
D03*
X224935D02*
D03*
X173265Y-36500D02*
D03*
X168935D02*
D03*
X222135Y46500D02*
D03*
X226465D02*
D03*
X212865Y39800D02*
D03*
X208535D02*
D03*
Y35800D02*
D03*
X212865D02*
D03*
Y43800D02*
D03*
X208535D02*
D03*
X171560Y42023D02*
D03*
X167229D02*
D03*
X167239Y23132D02*
D03*
X171570D02*
D03*
X197835Y22000D02*
D03*
X202165D02*
D03*
X197835Y-18965D02*
D03*
X202165Y-18965D02*
D03*
X208265Y-7800D02*
D03*
X203935D02*
D03*
X208265Y-4100D02*
D03*
X203935D02*
D03*
X248565Y27500D02*
D03*
X244235Y27500D02*
D03*
X214165Y-18800D02*
D03*
X209835Y-18800D02*
D03*
X204765Y0D02*
D03*
X200435D02*
D03*
X248326Y-12606D02*
D03*
X243995D02*
D03*
X248565Y-24600D02*
D03*
X244235Y-24600D02*
D03*
D137*
X212000Y-7965D02*
D03*
Y-3635D02*
D03*
X205900Y26331D02*
D03*
Y22000D02*
D03*
X188700Y-36265D02*
D03*
Y-31935D02*
D03*
X241400Y-45965D02*
D03*
X241400Y-41635D02*
D03*
X241400Y47265D02*
D03*
X241400Y42935D02*
D03*
X188064Y24470D02*
D03*
Y20140D02*
D03*
X178834Y24465D02*
D03*
Y20135D02*
D03*
X166299Y-14627D02*
D03*
Y-10296D02*
D03*
X247000Y39035D02*
D03*
Y43365D02*
D03*
X235500Y-37435D02*
D03*
Y-41765D02*
D03*
X216600Y5565D02*
D03*
Y1235D02*
D03*
X194200Y26365D02*
D03*
Y22035D02*
D03*
X194000Y-23131D02*
D03*
Y-18800D02*
D03*
X244300Y19735D02*
D03*
Y24065D02*
D03*
X248500Y24065D02*
D03*
X248500Y19735D02*
D03*
X206300Y17665D02*
D03*
Y13335D02*
D03*
X202600Y13565D02*
D03*
Y9235D02*
D03*
X216200Y13565D02*
D03*
X216200Y9235D02*
D03*
X206200Y-23131D02*
D03*
X206200Y-18800D02*
D03*
X220600Y935D02*
D03*
Y5265D02*
D03*
X244300Y-16435D02*
D03*
X244300Y-20765D02*
D03*
X247900Y-33135D02*
D03*
Y-37465D02*
D03*
X184300Y24465D02*
D03*
Y20135D02*
D03*
X235700Y43365D02*
D03*
Y39035D02*
D03*
X214300Y-33335D02*
D03*
Y-37665D02*
D03*
Y-41635D02*
D03*
Y-45965D02*
D03*
X192100Y36465D02*
D03*
Y32135D02*
D03*
X197100Y45565D02*
D03*
Y41235D02*
D03*
X162400Y-33065D02*
D03*
Y-28735D02*
D03*
X248300Y-20765D02*
D03*
X248300Y-16435D02*
D03*
D138*
X134800Y4428D02*
D03*
Y7972D02*
D03*
X93190Y6634D02*
D03*
Y10177D02*
D03*
X98084Y6630D02*
D03*
Y10174D02*
D03*
X102845Y-8444D02*
D03*
Y-4901D02*
D03*
X105452Y-42946D02*
D03*
Y-39403D02*
D03*
X84500Y-10672D02*
D03*
Y-7128D02*
D03*
X93000Y51428D02*
D03*
Y54972D02*
D03*
X141000Y39728D02*
D03*
Y43272D02*
D03*
D139*
X227958Y-57326D02*
D03*
X230442Y-60874D02*
D03*
X218258Y-64126D02*
D03*
X220742Y-67674D02*
D03*
D140*
X232665Y2641D02*
D03*
X236735Y1159D02*
D03*
D141*
X228687Y3774D02*
D03*
X224422Y4526D02*
D03*
X248332Y15424D02*
D03*
X244068Y16176D02*
D03*
D142*
X237531Y-23731D02*
D03*
X234469Y-20669D02*
D03*
D143*
X234711Y13457D02*
D03*
X235089Y9143D02*
D03*
D144*
X238249Y26309D02*
D03*
X235351Y23091D02*
D03*
D145*
X238941Y9808D02*
D03*
X242259Y12592D02*
D03*
X244659Y9892D02*
D03*
X241341Y7108D02*
D03*
D146*
X227174Y62858D02*
D03*
X223626Y65342D02*
D03*
D147*
X227958Y56926D02*
D03*
X230442Y60474D02*
D03*
X218043Y64096D02*
D03*
X220528Y67644D02*
D03*
D148*
X33031Y50200D02*
D03*
X36968D02*
D03*
D149*
X91747Y27047D02*
D03*
X94253Y29553D02*
D03*
X92847Y20947D02*
D03*
X95353Y23453D02*
D03*
D150*
X116350Y69500D02*
D03*
X122650D02*
D03*
X55950Y68700D02*
D03*
X49650D02*
D03*
D151*
X122743Y62500D02*
D03*
X115657D02*
D03*
D152*
X118000Y79744D02*
D03*
Y85256D02*
D03*
D153*
X89144Y85600D02*
D03*
X94656D02*
D03*
D154*
X62315Y85500D02*
D03*
X71764D02*
D03*
D155*
X52079D02*
D03*
X82000D02*
D03*
D156*
X79244Y75461D02*
D03*
X54835D02*
D03*
D157*
X67039Y74968D02*
D03*
X64480D02*
D03*
X69598D02*
D03*
X72158D02*
D03*
X61921D02*
D03*
D158*
X123928Y-10100D02*
D03*
X127472D02*
D03*
X119254Y-10058D02*
D03*
X115710D02*
D03*
X101914Y-26928D02*
D03*
X105457D02*
D03*
X91504Y-1D02*
D03*
X95047D02*
D03*
X111412Y46D02*
D03*
X107868D02*
D03*
X101909Y-55475D02*
D03*
X105452D02*
D03*
X71628Y9400D02*
D03*
X75172Y9400D02*
D03*
X101911Y-14390D02*
D03*
X105454D02*
D03*
X140772Y35500D02*
D03*
X137228D02*
D03*
X33228Y54200D02*
D03*
X36772D02*
D03*
X105472Y-39400D02*
D03*
X101928D02*
D03*
D159*
X116961Y-17158D02*
D03*
X126803D02*
D03*
D160*
X165035Y13441D02*
D03*
X163643Y12049D02*
D03*
X162251Y10657D02*
D03*
X160859Y9265D02*
D03*
X163365Y6759D02*
D03*
X164757Y8151D02*
D03*
X166149Y9543D02*
D03*
X167541Y10935D02*
D03*
X167135Y-19659D02*
D03*
X165743Y-21051D02*
D03*
X164351Y-22443D02*
D03*
X162959Y-23835D02*
D03*
X165465Y-26341D02*
D03*
X166857Y-24949D02*
D03*
X168249Y-23557D02*
D03*
X169641Y-22165D02*
D03*
X163135Y4341D02*
D03*
X161743Y2949D02*
D03*
X160351Y1557D02*
D03*
X158959Y165D02*
D03*
X161465Y-2341D02*
D03*
X162857Y-949D02*
D03*
X164249Y443D02*
D03*
X165641Y1835D02*
D03*
D161*
X166245Y28420D02*
D03*
X172544D02*
D03*
X166245Y36688D02*
D03*
X172544D02*
D03*
D162*
X246960Y-7692D02*
D03*
X245840Y-3508D02*
D03*
X242300Y-4500D02*
D03*
X243421Y-8683D02*
D03*
D163*
X243926Y-37604D02*
D03*
X241367Y-37604D02*
D03*
X238808Y-37604D02*
D03*
X238808Y-30123D02*
D03*
X241367Y-30123D02*
D03*
X243926Y-30123D02*
D03*
X238808Y38940D02*
D03*
X241367Y38940D02*
D03*
X243926D02*
D03*
X243926Y31460D02*
D03*
X241367Y31460D02*
D03*
X238808Y31460D02*
D03*
D164*
X220376Y26724D02*
D03*
Y22000D02*
D03*
X220376Y17276D02*
D03*
X229824Y26724D02*
D03*
X219576Y-14076D02*
D03*
X219576Y-18800D02*
D03*
Y-23524D02*
D03*
X229024Y-14076D02*
D03*
D165*
X229037Y22000D02*
D03*
X228237Y-18800D02*
D03*
D166*
X228643Y17276D02*
D03*
X227843Y-23524D02*
D03*
D167*
X218600Y81300D02*
D03*
Y-81300D02*
D03*
D168*
X243631Y2231D02*
D03*
X240569Y-831D02*
D03*
D169*
X184243Y45300D02*
D03*
X177157D02*
D03*
D170*
X105455Y-19100D02*
D03*
X105455Y-31575D02*
D03*
X107869Y-5294D02*
D03*
X105452Y-47600D02*
D03*
D171*
X105455Y-22250D02*
D03*
X105455Y-34724D02*
D03*
X107869Y-8443D02*
D03*
X105452Y-50749D02*
D03*
D172*
X102843Y-133D02*
D03*
X133525Y-16800D02*
D03*
D173*
X99694Y-133D02*
D03*
X136675Y-16800D02*
D03*
D174*
X77737Y1286D02*
D03*
Y-14462D02*
D03*
X68288Y1286D02*
D03*
Y-14462D02*
D03*
D175*
X122600Y-47205D02*
D03*
X127600D02*
D03*
X132600D02*
D03*
X137600D02*
D03*
X142600D02*
D03*
Y-35394D02*
D03*
X137600D02*
D03*
X132600D02*
D03*
X127600D02*
D03*
X122600D02*
D03*
D176*
X82696Y62673D02*
D03*
Y69169D02*
D03*
D177*
X77266Y69140D02*
D03*
Y62841D02*
D03*
X88158Y62831D02*
D03*
Y69130D02*
D03*
X109200Y65799D02*
D03*
Y59500D02*
D03*
X103100Y65799D02*
D03*
Y59500D02*
D03*
D178*
X180000Y-34800D02*
D03*
D179*
X84444Y54328D02*
D03*
D180*
X78932D02*
D03*
D181*
X194400Y84806D02*
D03*
Y77900D02*
D03*
X199800Y84806D02*
D03*
Y77900D02*
D03*
D182*
X227465Y-63034D02*
D03*
X223917Y-65518D02*
D03*
D183*
X104331Y15390D02*
D03*
X106299D02*
D03*
X108268D02*
D03*
X110237D02*
D03*
X112205D02*
D03*
X114174D02*
D03*
X116142D02*
D03*
X118111D02*
D03*
X120079D02*
D03*
X122048D02*
D03*
X124016D02*
D03*
X125985D02*
D03*
Y42752D02*
D03*
X124016D02*
D03*
X122048D02*
D03*
X120079D02*
D03*
X118111D02*
D03*
X116142D02*
D03*
X114174D02*
D03*
X112205D02*
D03*
X110237D02*
D03*
X108268D02*
D03*
X106299D02*
D03*
X104331D02*
D03*
D184*
X128839Y18244D02*
D03*
Y20212D02*
D03*
Y22181D02*
D03*
Y24149D02*
D03*
Y26118D02*
D03*
Y28087D02*
D03*
Y30055D02*
D03*
Y32024D02*
D03*
Y33992D02*
D03*
Y35961D02*
D03*
Y37929D02*
D03*
Y39898D02*
D03*
X101477D02*
D03*
Y37929D02*
D03*
Y35961D02*
D03*
Y33992D02*
D03*
Y32024D02*
D03*
Y30055D02*
D03*
Y28087D02*
D03*
Y26118D02*
D03*
Y24149D02*
D03*
Y22181D02*
D03*
Y20212D02*
D03*
Y18244D02*
D03*
D185*
X115158Y29071D02*
D03*
D186*
X157903Y-51220D02*
D03*
X157869Y51212D02*
D03*
D187*
X152809Y-46145D02*
D03*
X255207Y-46137D02*
D03*
D188*
X255196Y46791D02*
D03*
X152789Y46791D02*
D03*
D189*
X250782Y51199D02*
D03*
X250788Y-51210D02*
D03*
D190*
X181023Y-51218D02*
D03*
X204653Y-51196D02*
D03*
X228268D02*
D03*
X228275Y51207D02*
D03*
X204661D02*
D03*
X181031Y51185D02*
D03*
D191*
X152791Y-23010D02*
D03*
X152800Y617D02*
D03*
X255194Y670D02*
D03*
X255175Y24348D02*
D03*
X255186Y-22957D02*
D03*
X152780Y24295D02*
D03*
D192*
X62876Y-28276D02*
D03*
D193*
Y-50324D02*
D03*
D194*
X84924Y-28276D02*
D03*
D195*
Y-50324D02*
D03*
D196*
X73900Y-39300D02*
D03*
D197*
X183100Y0D02*
D03*
D198*
X190777Y11614D02*
D03*
X188218D02*
D03*
X185659D02*
D03*
X183100D02*
D03*
X180541D02*
D03*
X177982D02*
D03*
X175423D02*
D03*
Y-11614D02*
D03*
X177982D02*
D03*
X180541D02*
D03*
X183100D02*
D03*
X185659D02*
D03*
X188218D02*
D03*
X190777D02*
D03*
D199*
X171486Y7677D02*
D03*
Y5118D02*
D03*
Y2559D02*
D03*
Y0D02*
D03*
Y-2559D02*
D03*
Y-5118D02*
D03*
Y-7677D02*
D03*
X194714D02*
D03*
Y-5118D02*
D03*
Y-2559D02*
D03*
Y0D02*
D03*
Y2559D02*
D03*
Y5118D02*
D03*
Y7677D02*
D03*
D200*
X224746Y37282D02*
D03*
Y42400D02*
D03*
X217265Y37282D02*
D03*
Y39841D02*
D03*
Y42400D02*
D03*
D201*
X138507Y71500D02*
D03*
X176893D02*
D03*
Y86500D02*
D03*
X138507D02*
D03*
D202*
X155180Y63252D02*
D03*
X165180D02*
D03*
X145180D02*
D03*
D203*
X112520Y85240D02*
D03*
Y77760D02*
D03*
X102480D02*
D03*
Y81500D02*
D03*
Y85240D02*
D03*
D204*
X197268Y61046D02*
D03*
X195300D02*
D03*
X193332D02*
D03*
Y66754D02*
D03*
X195300D02*
D03*
X197268D02*
D03*
X128431Y86954D02*
D03*
X130400D02*
D03*
X132369D02*
D03*
Y81246D02*
D03*
X130400D02*
D03*
X128431D02*
D03*
D205*
X94600Y79623D02*
D03*
Y69977D02*
D03*
D206*
X178546Y57100D02*
D03*
X171854D02*
D03*
D207*
X38275Y39788D02*
D03*
Y-31472D02*
D03*
D208*
X228836Y80513D02*
D03*
X208364D02*
D03*
Y-80513D02*
D03*
X228836D02*
D03*
D209*
X8700Y-25591D02*
D03*
Y25591D02*
D03*
D210*
X6400Y-54100D02*
D03*
D211*
X47200Y61500D02*
D03*
X6300Y57700D02*
D03*
X149000Y81100D02*
D03*
X93700Y63500D02*
D03*
D212*
X62000Y69000D02*
D03*
X70200Y63300D02*
D03*
X82400Y49600D02*
D03*
X67000Y69000D02*
D03*
X39500Y29400D02*
D03*
X49500Y41800D02*
D03*
X74900Y56900D02*
D03*
X106200Y69900D02*
D03*
X160300Y60900D02*
D03*
X151000Y70700D02*
D03*
X197800Y71300D02*
D03*
X170500Y75800D02*
D03*
X8800Y44300D02*
D03*
X143700Y81700D02*
D03*
X107400Y79100D02*
D03*
X89200Y78000D02*
D03*
X128600Y64000D02*
D03*
X212000Y900D02*
D03*
X204000Y-12800D02*
D03*
X192200Y41700D02*
D03*
X164500Y-5700D02*
D03*
X24700Y40300D02*
D03*
X86300Y27100D02*
D03*
X88200Y50500D02*
D03*
X135300Y40000D02*
D03*
X134400Y47600D02*
D03*
X127900Y8100D02*
D03*
X127600Y3000D02*
D03*
X134800Y13200D02*
D03*
X141400Y29400D02*
D03*
X152780Y24295D02*
D03*
X121500Y10500D02*
D03*
X134400Y-4000D02*
D03*
X135700Y-10200D02*
D03*
X141800Y-14400D02*
D03*
X164700Y19200D02*
D03*
X121200Y4900D02*
D03*
Y-800D02*
D03*
X125700Y-4500D02*
D03*
X188700Y-25400D02*
D03*
X23000Y14000D02*
D03*
Y-9700D02*
D03*
X252600Y-33800D02*
D03*
X250671Y35000D02*
D03*
X232600Y-32600D02*
D03*
X83050Y15700D02*
D03*
X79600Y27700D02*
D03*
X142800Y-24100D02*
D03*
X136600Y-22800D02*
D03*
X147500Y-35293D02*
D03*
X211900Y13400D02*
D03*
X145200Y-18300D02*
D03*
X152800Y617D02*
D03*
X152800Y51200D02*
D03*
X169300Y47300D02*
D03*
X174630Y-30550D02*
D03*
X97700Y14800D02*
D03*
X181031Y51185D02*
D03*
X204661Y51207D02*
D03*
X228275D02*
D03*
X255200Y51100D02*
D03*
X255175Y24348D02*
D03*
X255194Y670D02*
D03*
X255186Y-22957D02*
D03*
X254900Y-51000D02*
D03*
X228268Y-51196D02*
D03*
X204653D02*
D03*
X153000Y-51000D02*
D03*
X181023Y-51218D02*
D03*
X152791Y-23010D02*
D03*
X42900Y57900D02*
D03*
X63200Y11900D02*
D03*
X59900Y18800D02*
D03*
X53400Y22700D02*
D03*
X23000Y-15400D02*
D03*
X37900Y-9700D02*
D03*
X53400Y2200D02*
D03*
X19200Y40300D02*
D03*
X103000Y53500D02*
D03*
X184700Y-29200D02*
D03*
X181500Y32500D02*
D03*
X66200Y20900D02*
D03*
X55477Y16505D02*
D03*
X232334Y33234D02*
D03*
X196500Y36400D02*
D03*
X219300Y-33800D02*
D03*
X53400Y-9600D02*
D03*
X23000Y25000D02*
D03*
Y19300D02*
D03*
X213200Y-68400D02*
D03*
X194700Y17000D02*
D03*
X167100Y-31300D02*
D03*
X210100Y-12600D02*
D03*
X158100Y-25000D02*
D03*
X42400Y51700D02*
D03*
X199600Y-6500D02*
D03*
X121654Y22575D02*
D03*
Y26905D02*
D03*
Y31236D02*
D03*
Y35567D02*
D03*
X117323D02*
D03*
Y31236D02*
D03*
Y26905D02*
D03*
Y22575D02*
D03*
X112993D02*
D03*
Y26905D02*
D03*
Y31236D02*
D03*
Y35567D02*
D03*
X108662D02*
D03*
Y31236D02*
D03*
Y26905D02*
D03*
Y22575D02*
D03*
X169400Y17500D02*
D03*
X238300Y18700D02*
D03*
X247200Y5500D02*
D03*
X226500Y32100D02*
D03*
X219500D02*
D03*
X213000Y26300D02*
D03*
X200000Y26400D02*
D03*
X213000Y31400D02*
D03*
X206100D02*
D03*
X200000D02*
D03*
X226400Y-400D02*
D03*
X231900Y-2400D02*
D03*
X236800Y-5500D02*
D03*
X238300Y-11000D02*
D03*
X238600Y-17400D02*
D03*
X232000Y-8900D02*
D03*
X224400Y-8400D02*
D03*
X217900Y-8600D02*
D03*
X217800Y-3600D02*
D03*
X250200Y9700D02*
D03*
X253200Y13900D02*
D03*
X249800Y900D02*
D03*
X253600Y-11000D02*
D03*
X234300Y-27200D02*
D03*
X228300Y-28500D02*
D03*
X200000Y-23700D02*
D03*
X212400D02*
D03*
X249900Y-42000D02*
D03*
X246200Y-46000D02*
D03*
X222900Y-60200D02*
D03*
X214200D02*
D03*
X209700Y-63500D02*
D03*
X218700Y-57100D02*
D03*
X219100Y-46100D02*
D03*
X225100Y-46000D02*
D03*
X231100D02*
D03*
X237100Y-46200D02*
D03*
X174600Y-16300D02*
D03*
X222600Y60400D02*
D03*
X219800Y56200D02*
D03*
X215100Y59500D02*
D03*
X233900Y-63800D02*
D03*
X229400Y-67300D02*
D03*
X41900Y-58400D02*
D03*
X47900D02*
D03*
X53900D02*
D03*
X59900D02*
D03*
X65900D02*
D03*
X71900D02*
D03*
X77900D02*
D03*
X83900D02*
D03*
X89900D02*
D03*
X95900D02*
D03*
X111300Y-56900D02*
D03*
X117300D02*
D03*
X123300D02*
D03*
X129300D02*
D03*
X135300D02*
D03*
X141300D02*
D03*
X147300D02*
D03*
X153300D02*
D03*
X159300D02*
D03*
X165300D02*
D03*
X111200Y-14900D02*
D03*
Y-20900D02*
D03*
Y-26900D02*
D03*
Y-32900D02*
D03*
Y-38900D02*
D03*
Y-44900D02*
D03*
Y-50900D02*
D03*
X117400Y-51000D02*
D03*
Y-45000D02*
D03*
Y-39000D02*
D03*
Y-33000D02*
D03*
Y-27000D02*
D03*
X92800Y-52000D02*
D03*
Y-46000D02*
D03*
Y-27400D02*
D03*
Y-21400D02*
D03*
X55100Y-21900D02*
D03*
Y-27900D02*
D03*
Y-33900D02*
D03*
Y-39900D02*
D03*
Y-45900D02*
D03*
Y-51900D02*
D03*
X99800Y-44500D02*
D03*
Y-50500D02*
D03*
X85100Y-21100D02*
D03*
X79100Y-21400D02*
D03*
X73100D02*
D03*
X61100Y-21100D02*
D03*
X67100Y-21400D02*
D03*
X92800Y-33400D02*
D03*
X49500Y-52300D02*
D03*
Y-46300D02*
D03*
X43900Y-52300D02*
D03*
Y-46300D02*
D03*
X99800Y-33200D02*
D03*
Y-20600D02*
D03*
X207300Y-56800D02*
D03*
X201300Y-56900D02*
D03*
X195300D02*
D03*
X189300D02*
D03*
X183300D02*
D03*
X177300D02*
D03*
X171300D02*
D03*
X213400Y67100D02*
D03*
X210400Y62800D02*
D03*
X238700Y-59900D02*
D03*
X242600Y-56100D02*
D03*
X228667Y68519D02*
D03*
X233226Y64550D02*
D03*
X242128Y56676D02*
D03*
X237900Y60500D02*
D03*
X262800Y-54000D02*
D03*
Y-48000D02*
D03*
Y-42000D02*
D03*
Y-36000D02*
D03*
Y-30000D02*
D03*
Y-24000D02*
D03*
Y-18000D02*
D03*
Y-12000D02*
D03*
Y-6000D02*
D03*
Y0D02*
D03*
Y6000D02*
D03*
Y12000D02*
D03*
Y18000D02*
D03*
Y24000D02*
D03*
Y30000D02*
D03*
Y36000D02*
D03*
Y42000D02*
D03*
Y48000D02*
D03*
Y54000D02*
D03*
X250300Y-57200D02*
D03*
X256300D02*
D03*
X249800Y57200D02*
D03*
X255800D02*
D03*
X159300Y-45000D02*
D03*
X165300D02*
D03*
X171300D02*
D03*
X177300D02*
D03*
X183300D02*
D03*
X189300D02*
D03*
X195300D02*
D03*
X201300D02*
D03*
X207300D02*
D03*
X169100Y-51300D02*
D03*
X192800Y-51200D02*
D03*
X216500Y-51600D02*
D03*
X216400Y51000D02*
D03*
X209200Y51200D02*
D03*
X223100D02*
D03*
X233400D02*
D03*
X246600Y51300D02*
D03*
X250782Y51199D02*
D03*
X199900Y51300D02*
D03*
X247500Y-51200D02*
D03*
X233000D02*
D03*
X223500D02*
D03*
X209300D02*
D03*
X200100D02*
D03*
X185800D02*
D03*
X176300Y-51300D02*
D03*
X162800Y-51200D02*
D03*
X157903Y-51220D02*
D03*
X185700Y51200D02*
D03*
X152900Y-45100D02*
D03*
X255207Y-46137D02*
D03*
X176400Y51200D02*
D03*
X255200Y19900D02*
D03*
Y29100D02*
D03*
X255196Y46791D02*
D03*
X255200Y42600D02*
D03*
Y5400D02*
D03*
Y-4100D02*
D03*
Y-18200D02*
D03*
Y-27500D02*
D03*
Y-41600D02*
D03*
X257700Y-35700D02*
D03*
X77000Y-52500D02*
D03*
X71000D02*
D03*
X38000Y-46500D02*
D03*
Y-52500D02*
D03*
X209500Y-34000D02*
D03*
X128700Y69700D02*
D03*
X255600Y36800D02*
D03*
X176013Y-2362D02*
D03*
X180738Y-7087D02*
D03*
X190187Y7087D02*
D03*
X180738D02*
D03*
X185462D02*
D03*
X180738Y-2362D02*
D03*
X176013Y-7087D02*
D03*
Y2362D02*
D03*
Y7087D02*
D03*
X190187Y2362D02*
D03*
X185462D02*
D03*
X180738D02*
D03*
X185462Y-2362D02*
D03*
X190187D02*
D03*
Y-7087D02*
D03*
X185462D02*
D03*
X77700Y15500D02*
D03*
X84100Y32700D02*
D03*
X89800Y31600D02*
D03*
X140200Y47800D02*
D03*
X166000Y78300D02*
D03*
M02*
