G04 Layer_Physical_Order=2*
G04 Layer_Color=16711680*
%FSLAX25Y25*%
%MOIN*%
G70*
G01*
G75*
%ADD11C,0.01000*%
%ADD93C,0.01900*%
%ADD96C,0.01200*%
%ADD97C,0.00700*%
%ADD100C,0.00800*%
%ADD106C,0.09100*%
G04:AMPARAMS|DCode=107|XSize=86.61mil|YSize=173.23mil|CornerRadius=4.33mil|HoleSize=0mil|Usage=FLASHONLY|Rotation=180.000|XOffset=0mil|YOffset=0mil|HoleType=Round|Shape=RoundedRectangle|*
%AMROUNDEDRECTD107*
21,1,0.08661,0.16457,0,0,180.0*
21,1,0.07795,0.17323,0,0,180.0*
1,1,0.00866,-0.03898,0.08228*
1,1,0.00866,0.03898,0.08228*
1,1,0.00866,0.03898,-0.08228*
1,1,0.00866,-0.03898,-0.08228*
%
%ADD107ROUNDEDRECTD107*%
G04:AMPARAMS|DCode=108|XSize=129.92mil|YSize=314.96mil|CornerRadius=32.48mil|HoleSize=0mil|Usage=FLASHONLY|Rotation=0.000|XOffset=0mil|YOffset=0mil|HoleType=Round|Shape=RoundedRectangle|*
%AMROUNDEDRECTD108*
21,1,0.12992,0.25000,0,0,0.0*
21,1,0.06496,0.31496,0,0,0.0*
1,1,0.06496,0.03248,-0.12500*
1,1,0.06496,-0.03248,-0.12500*
1,1,0.06496,-0.03248,0.12500*
1,1,0.06496,0.03248,0.12500*
%
%ADD108ROUNDEDRECTD108*%
%ADD109C,0.03500*%
%ADD110C,0.03940*%
%ADD111C,0.02559*%
G36*
X19777Y56656D02*
X15656Y52536D01*
X15292Y51990D01*
X15164Y51346D01*
Y41137D01*
X14664Y40983D01*
X13939Y41539D01*
X12979Y41937D01*
X11948Y42073D01*
X5452D01*
X4421Y41937D01*
X3461Y41539D01*
X2636Y40906D01*
X2003Y40082D01*
X1606Y39121D01*
X1571Y38855D01*
X1071Y38888D01*
Y51941D01*
X1571Y52040D01*
X1814Y51452D01*
X2656Y50356D01*
X3752Y49514D01*
X5029Y48985D01*
X6400Y48805D01*
X7771Y48985D01*
X9048Y49514D01*
X10144Y50356D01*
X10986Y51452D01*
X11515Y52729D01*
X11695Y54100D01*
X11515Y55471D01*
X11115Y56436D01*
X11797Y57118D01*
X19585D01*
X19777Y56656D01*
D02*
G37*
G36*
X233429Y68600D02*
X233511Y68190D01*
X233743Y67843D01*
X241543Y60043D01*
X241543Y60043D01*
X241890Y59811D01*
X242300Y59729D01*
X242300Y59729D01*
X273729D01*
Y-59729D01*
X242300D01*
X242300Y-59729D01*
X241890Y-59811D01*
X241543Y-60043D01*
X241543Y-60043D01*
X233743Y-67843D01*
X233511Y-68190D01*
X233429Y-68600D01*
Y-89229D01*
X194000D01*
Y-61900D01*
X41014D01*
X39157Y-60043D01*
X38810Y-59811D01*
X38400Y-59729D01*
X8619D01*
X8519Y-59229D01*
X9199Y-58948D01*
X10358Y-58058D01*
X11248Y-56899D01*
X11807Y-55549D01*
X11932Y-54600D01*
X6400D01*
Y-54100D01*
X5900D01*
Y-48568D01*
X4951Y-48693D01*
X3601Y-49252D01*
X2442Y-50142D01*
X1571Y-51277D01*
X1540Y-51279D01*
X1071Y-51016D01*
Y-39920D01*
X1571Y-39821D01*
X1741Y-40233D01*
X2422Y-41120D01*
X3310Y-41801D01*
X4343Y-42229D01*
X5452Y-42375D01*
X6700D01*
Y-25591D01*
Y-8806D01*
X5452D01*
X4343Y-8952D01*
X3310Y-9380D01*
X2422Y-10061D01*
X1741Y-10948D01*
X1571Y-11360D01*
X1071Y-11261D01*
Y0D01*
Y12293D01*
X1571Y12326D01*
X1606Y12060D01*
X2003Y11100D01*
X2636Y10275D01*
X3461Y9642D01*
X4421Y9244D01*
X5452Y9109D01*
X11948D01*
X12979Y9244D01*
X13939Y9642D01*
X14764Y10275D01*
X15397Y11100D01*
X15794Y12060D01*
X15929Y13084D01*
X16074Y13197D01*
X16392Y13329D01*
X17222Y12499D01*
X17202Y12400D01*
X17392Y11444D01*
X17934Y10634D01*
X18744Y10092D01*
X19135Y10014D01*
X19280Y9536D01*
X18907Y9163D01*
X18664Y8799D01*
X18578Y8370D01*
X18578Y8370D01*
Y4597D01*
X17934Y4166D01*
X17392Y3356D01*
X17202Y2400D01*
X17392Y1444D01*
X17934Y634D01*
X18744Y92D01*
X19700Y-98D01*
X20656Y92D01*
X21466Y634D01*
X22008Y1444D01*
X22198Y2400D01*
X22008Y3356D01*
X21466Y4166D01*
X20821Y4597D01*
Y7905D01*
X23343Y10426D01*
X23343Y10426D01*
X23586Y10790D01*
X23672Y11220D01*
X23672Y11220D01*
Y13580D01*
X23672Y13580D01*
X23586Y14010D01*
X23343Y14374D01*
X21674Y16043D01*
X21310Y16286D01*
X20880Y16372D01*
X20880Y16372D01*
X20214D01*
X20018Y16568D01*
Y37031D01*
X23037Y40051D01*
X23403Y39899D01*
X24100Y39807D01*
X24797Y39899D01*
X25447Y40168D01*
X26004Y40596D01*
X26432Y41153D01*
X26701Y41803D01*
X26793Y42500D01*
X26701Y43197D01*
X26432Y43846D01*
X26004Y44404D01*
X25447Y44832D01*
X24797Y45101D01*
X24100Y45193D01*
X23403Y45101D01*
X22753Y44832D01*
X22196Y44404D01*
X21768Y43846D01*
X21499Y43197D01*
X21407Y42500D01*
X21499Y41803D01*
X21533Y41719D01*
X18990Y39176D01*
X18528Y39368D01*
Y50649D01*
X24997Y57118D01*
X39392D01*
X40036Y57246D01*
X40581Y57610D01*
X51190Y68219D01*
X51554Y68765D01*
X51682Y69408D01*
Y82703D01*
X54597Y85618D01*
X92777D01*
X93034Y85234D01*
X93844Y84692D01*
X94800Y84502D01*
X95756Y84692D01*
X96566Y85234D01*
X97108Y86044D01*
X97298Y87000D01*
X97108Y87956D01*
X96591Y88729D01*
X96699Y89202D01*
X96707Y89229D01*
X233429D01*
Y68600D01*
D02*
G37*
%LPC*%
G36*
X16233Y-27591D02*
X10700D01*
Y-42375D01*
X11948D01*
X13057Y-42229D01*
X14090Y-41801D01*
X14978Y-41120D01*
X15659Y-40233D01*
X16087Y-39200D01*
X16233Y-38091D01*
Y-27591D01*
D02*
G37*
G36*
X211900Y15898D02*
X210944Y15708D01*
X210134Y15166D01*
X209592Y14356D01*
X209402Y13400D01*
X209592Y12444D01*
X210134Y11634D01*
X210575Y11339D01*
Y2894D01*
X210234Y2666D01*
X209692Y1856D01*
X209502Y900D01*
X209692Y-56D01*
X210234Y-866D01*
X211044Y-1408D01*
X212000Y-1598D01*
X212956Y-1408D01*
X213766Y-866D01*
X214308Y-56D01*
X214498Y900D01*
X214308Y1856D01*
X213766Y2666D01*
X213226Y3028D01*
Y11339D01*
X213666Y11634D01*
X214208Y12444D01*
X214398Y13400D01*
X214208Y14356D01*
X213666Y15166D01*
X212856Y15708D01*
X211900Y15898D01*
D02*
G37*
G36*
X232600Y-30102D02*
X231644Y-30292D01*
X230834Y-30834D01*
X230403Y-31478D01*
X220500D01*
X220500Y-31478D01*
X220296Y-31519D01*
X220256Y-31492D01*
X219300Y-31302D01*
X218344Y-31492D01*
X217534Y-32034D01*
X216992Y-32844D01*
X216802Y-33800D01*
X216992Y-34756D01*
X217534Y-35566D01*
X218344Y-36108D01*
X219300Y-36298D01*
X220256Y-36108D01*
X221066Y-35566D01*
X221608Y-34756D01*
X221798Y-33800D01*
X221862Y-33722D01*
X230403D01*
X230834Y-34366D01*
X231644Y-34908D01*
X232600Y-35098D01*
X233219Y-34975D01*
X233293Y-35025D01*
X233800Y-35125D01*
X250539D01*
X250834Y-35566D01*
X251644Y-36108D01*
X252600Y-36298D01*
X253556Y-36108D01*
X254366Y-35566D01*
X254908Y-34756D01*
X255098Y-33800D01*
X254908Y-32844D01*
X254366Y-32034D01*
X253556Y-31492D01*
X252600Y-31302D01*
X251644Y-31492D01*
X250834Y-32034D01*
X250539Y-32474D01*
X235073D01*
X234908Y-31644D01*
X234366Y-30834D01*
X233556Y-30292D01*
X232600Y-30102D01*
D02*
G37*
G36*
X11948Y-8806D02*
X10700D01*
Y-23591D01*
X16233D01*
Y-13091D01*
X16087Y-11982D01*
X15659Y-10948D01*
X14978Y-10061D01*
X14090Y-9380D01*
X13057Y-8952D01*
X11948Y-8806D01*
D02*
G37*
G36*
X250671Y37498D02*
X249715Y37308D01*
X248905Y36766D01*
X248474Y36122D01*
X234100D01*
X234100Y36122D01*
X233671Y36036D01*
X233307Y35793D01*
X233307Y35793D01*
X233094Y35580D01*
X232334Y35732D01*
X231378Y35541D01*
X230567Y35000D01*
X230026Y34190D01*
X229836Y33234D01*
X230026Y32278D01*
X230567Y31467D01*
X231378Y30926D01*
X232334Y30736D01*
X233290Y30926D01*
X234100Y31467D01*
X234642Y32278D01*
X234832Y33234D01*
X234780Y33492D01*
X235098Y33878D01*
X248474D01*
X248905Y33234D01*
X249715Y32692D01*
X250671Y32502D01*
X251627Y32692D01*
X252438Y33234D01*
X252979Y34044D01*
X253169Y35000D01*
X252979Y35956D01*
X252438Y36766D01*
X251627Y37308D01*
X250671Y37498D01*
D02*
G37*
G36*
X149000Y83793D02*
X148303Y83701D01*
X147653Y83432D01*
X147096Y83004D01*
X146668Y82446D01*
X146399Y81797D01*
X146307Y81100D01*
X146399Y80403D01*
X146492Y80178D01*
X141435Y75122D01*
X104200D01*
X103771Y75036D01*
X103407Y74793D01*
X103407Y74793D01*
X94461Y65847D01*
X93700Y65998D01*
X92744Y65808D01*
X91934Y65266D01*
X91392Y64456D01*
X91202Y63500D01*
X91270Y63158D01*
X90953Y62772D01*
X73103D01*
X72692Y63269D01*
X72698Y63300D01*
X72508Y64256D01*
X71966Y65066D01*
X71271Y65531D01*
Y65800D01*
X71189Y66210D01*
X70957Y66557D01*
X70957Y66557D01*
X69335Y68179D01*
X69498Y69000D01*
X69308Y69956D01*
X68766Y70766D01*
X67956Y71308D01*
X67000Y71498D01*
X66044Y71308D01*
X65234Y70766D01*
X64692Y69956D01*
X64502Y69000D01*
X64692Y68044D01*
X65234Y67234D01*
X66044Y66692D01*
X67000Y66502D01*
X67821Y66665D01*
X68746Y65740D01*
X68697Y65242D01*
X68434Y65066D01*
X67892Y64256D01*
X67702Y63300D01*
X67892Y62344D01*
X68434Y61534D01*
X68565Y61446D01*
X68443Y60926D01*
X68129Y60885D01*
X64521Y64493D01*
X64157Y64736D01*
X63728Y64822D01*
X63728Y64822D01*
X55900D01*
X55900Y64822D01*
X55471Y64736D01*
X55107Y64493D01*
X44435Y53822D01*
X42497D01*
X42066Y54466D01*
X41256Y55008D01*
X40300Y55198D01*
X39344Y55008D01*
X38534Y54466D01*
X37992Y53656D01*
X37802Y52700D01*
X37992Y51744D01*
X38534Y50934D01*
X39344Y50392D01*
X40300Y50202D01*
X41256Y50392D01*
X42066Y50934D01*
X42497Y51578D01*
X43660D01*
X43852Y51117D01*
X42817Y50082D01*
X42444Y50008D01*
X41634Y49466D01*
X41092Y48656D01*
X40902Y47700D01*
X41092Y46744D01*
X41634Y45934D01*
X42444Y45392D01*
X43400Y45202D01*
X44356Y45392D01*
X45166Y45934D01*
X45708Y46744D01*
X45898Y47700D01*
X45708Y48656D01*
X45249Y49342D01*
X56886Y60978D01*
X62601D01*
X66472Y57107D01*
X66472Y57107D01*
X66836Y56864D01*
X67265Y56778D01*
X67265Y56778D01*
X71069D01*
X71070Y56778D01*
X71499Y56864D01*
X71570Y56911D01*
X72125Y56681D01*
X72192Y56344D01*
X72734Y55534D01*
X73429Y55069D01*
Y28818D01*
X72967Y28626D01*
X65337Y36257D01*
X64990Y36489D01*
X64580Y36571D01*
X57081D01*
X57080Y36571D01*
X56671Y36489D01*
X56323Y36257D01*
X52794Y32728D01*
X52150Y32791D01*
X51966Y33066D01*
X51156Y33608D01*
X50200Y33798D01*
X49244Y33608D01*
X48434Y33066D01*
X47944Y32334D01*
X47941Y32333D01*
X47595Y32296D01*
X47396Y32324D01*
X46966Y32966D01*
X46571Y33231D01*
Y37257D01*
X47779Y38465D01*
X48600Y38302D01*
X49556Y38492D01*
X50366Y39034D01*
X50908Y39844D01*
X51098Y40800D01*
X50908Y41756D01*
X50366Y42566D01*
X49556Y43108D01*
X48600Y43298D01*
X47644Y43108D01*
X46834Y42566D01*
X46292Y41756D01*
X46102Y40800D01*
X46265Y39979D01*
X44743Y38457D01*
X44511Y38110D01*
X44429Y37700D01*
Y33545D01*
X44244Y33508D01*
X43434Y32966D01*
X42912Y32185D01*
X42679Y32156D01*
X42621D01*
X42388Y32185D01*
X41866Y32966D01*
X41056Y33508D01*
X40100Y33698D01*
X39144Y33508D01*
X38334Y32966D01*
X37792Y32156D01*
X37602Y31200D01*
X37792Y30244D01*
X38334Y29434D01*
X39144Y28892D01*
X40100Y28702D01*
X41056Y28892D01*
X41642Y29284D01*
X43283Y27643D01*
X43630Y27411D01*
X44040Y27329D01*
X44040Y27329D01*
X45557D01*
X46943Y25943D01*
X47290Y25711D01*
X47700Y25629D01*
X52240D01*
X52650Y25711D01*
X52997Y25943D01*
X53675Y26621D01*
X54136Y26375D01*
X54002Y25700D01*
X54192Y24744D01*
X54734Y23934D01*
X55544Y23392D01*
X56292Y23243D01*
X56490Y23111D01*
X56900Y23029D01*
X57310Y23111D01*
X57657Y23343D01*
X57879Y23674D01*
X58266Y23934D01*
X58808Y24744D01*
X58821Y24810D01*
X65837D01*
X72703Y17943D01*
X73051Y17711D01*
X73460Y17629D01*
X80791D01*
X81059Y17129D01*
X80742Y16656D01*
X80552Y15700D01*
X80742Y14744D01*
X81284Y13934D01*
X82094Y13392D01*
X83050Y13202D01*
X84006Y13392D01*
X84129Y13475D01*
X95639D01*
X95934Y13034D01*
X96744Y12492D01*
X97700Y12302D01*
X98656Y12492D01*
X99466Y13034D01*
X100008Y13844D01*
X100198Y14800D01*
X100008Y15756D01*
X99466Y16566D01*
X98656Y17108D01*
X97700Y17298D01*
X96744Y17108D01*
X95934Y16566D01*
X95639Y16126D01*
X85463D01*
X85358Y16656D01*
X85041Y17129D01*
X85309Y17629D01*
X90620D01*
X91029Y17711D01*
X91377Y17943D01*
X98957Y25523D01*
X99189Y25871D01*
X99271Y26280D01*
Y39503D01*
X103797Y44029D01*
X107150D01*
X107560Y44111D01*
X107907Y44343D01*
X108743Y45179D01*
X118449D01*
X125329Y38299D01*
Y35580D01*
X125411Y35171D01*
X125643Y34823D01*
X128229Y32237D01*
Y20023D01*
X123543Y15336D01*
X123311Y14989D01*
X123229Y14579D01*
Y12892D01*
X122729Y12625D01*
X122456Y12808D01*
X121500Y12998D01*
X120544Y12808D01*
X119734Y12266D01*
X119192Y11456D01*
X119002Y10500D01*
X119192Y9544D01*
X119734Y8734D01*
X120544Y8192D01*
X121500Y8002D01*
X122456Y8192D01*
X123266Y8734D01*
X123808Y9544D01*
X123919Y10106D01*
X124468Y10654D01*
X124929Y10462D01*
Y10000D01*
X125011Y9590D01*
X125243Y9243D01*
X125565Y8921D01*
X125402Y8100D01*
X125592Y7144D01*
X126134Y6334D01*
X126846Y5858D01*
X126831Y5453D01*
X126793Y5337D01*
X126644Y5308D01*
X125834Y4766D01*
X125292Y3956D01*
X125138Y3183D01*
X124635Y2979D01*
X123535Y4079D01*
X123698Y4900D01*
X123508Y5856D01*
X122966Y6666D01*
X122156Y7208D01*
X121200Y7398D01*
X120244Y7208D01*
X119434Y6666D01*
X118892Y5856D01*
X118702Y4900D01*
X118892Y3944D01*
X119434Y3134D01*
X120244Y2592D01*
X121200Y2402D01*
X122021Y2565D01*
X123108Y1478D01*
X123121Y1461D01*
X122804Y1075D01*
X122724Y1128D01*
X122156Y1508D01*
X121200Y1698D01*
X120244Y1508D01*
X119434Y966D01*
X118892Y156D01*
X118702Y-800D01*
X118892Y-1756D01*
X119434Y-2566D01*
X120244Y-3108D01*
X121200Y-3298D01*
X122156Y-3108D01*
X122966Y-2566D01*
X123030Y-2471D01*
X123508D01*
X123775Y-2971D01*
X123392Y-3544D01*
X123202Y-4500D01*
X123392Y-5456D01*
X123934Y-6266D01*
X124744Y-6808D01*
X125700Y-6998D01*
X126461Y-6847D01*
X131728Y-12115D01*
Y-14612D01*
X130557Y-15784D01*
X130314Y-16148D01*
X130228Y-16577D01*
X130228Y-16577D01*
Y-24250D01*
X130228Y-24250D01*
X130314Y-24679D01*
X130557Y-25043D01*
X133807Y-28293D01*
X133807Y-28293D01*
X134171Y-28536D01*
X134600Y-28622D01*
X139242D01*
X145153Y-34533D01*
X145002Y-35293D01*
X145192Y-36249D01*
X145734Y-37060D01*
X146544Y-37601D01*
X147500Y-37791D01*
X148456Y-37601D01*
X149266Y-37060D01*
X149808Y-36249D01*
X149998Y-35293D01*
X149808Y-34337D01*
X149266Y-33527D01*
X148456Y-32985D01*
X147500Y-32795D01*
X146739Y-32947D01*
X141237Y-27444D01*
X141402Y-26902D01*
X141479Y-26886D01*
X141843Y-26643D01*
X142193Y-26293D01*
X142193Y-26293D01*
X142436Y-25929D01*
X142522Y-25500D01*
Y-24897D01*
X143166Y-24466D01*
X143708Y-23656D01*
X143898Y-22700D01*
X143708Y-21744D01*
X143166Y-20934D01*
X142356Y-20392D01*
X141400Y-20202D01*
X140444Y-20392D01*
X139634Y-20934D01*
X139092Y-21744D01*
X138902Y-22700D01*
X139092Y-23656D01*
X139475Y-24228D01*
X139207Y-24728D01*
X135779D01*
X135589Y-24486D01*
X135637Y-24276D01*
X135788Y-23981D01*
X136656Y-23808D01*
X137466Y-23266D01*
X138008Y-22456D01*
X138198Y-21500D01*
X138008Y-20544D01*
X137466Y-19734D01*
X136822Y-19303D01*
Y-16934D01*
X138936Y-14820D01*
X139414Y-14965D01*
X139492Y-15356D01*
X140034Y-16166D01*
X140844Y-16708D01*
X141800Y-16898D01*
X142710Y-16717D01*
X142833Y-16817D01*
X143044Y-17117D01*
X142892Y-17344D01*
X142702Y-18300D01*
X142892Y-19256D01*
X143434Y-20066D01*
X144244Y-20608D01*
X145200Y-20798D01*
X146156Y-20608D01*
X146966Y-20066D01*
X147508Y-19256D01*
X147698Y-18300D01*
X147508Y-17344D01*
X146966Y-16534D01*
X146322Y-16103D01*
Y-13634D01*
X149993Y-9963D01*
X149993Y-9963D01*
X150236Y-9599D01*
X150322Y-9170D01*
Y56235D01*
X168209Y74123D01*
X168707Y74074D01*
X168734Y74034D01*
X169544Y73492D01*
X170500Y73302D01*
X171456Y73492D01*
X172266Y74034D01*
X172808Y74844D01*
X172998Y75800D01*
X172808Y76756D01*
X172266Y77566D01*
X171456Y78108D01*
X170500Y78298D01*
X169544Y78108D01*
X168881Y77665D01*
X168426Y77937D01*
X168498Y78300D01*
X168308Y79256D01*
X167766Y80066D01*
X166956Y80608D01*
X166000Y80798D01*
X165044Y80608D01*
X164234Y80066D01*
X163692Y79256D01*
X163502Y78300D01*
X163692Y77344D01*
X164234Y76534D01*
X164465Y76379D01*
X164528Y75735D01*
X146707Y57914D01*
X146464Y57551D01*
X146378Y57121D01*
X146378Y57121D01*
Y44382D01*
X145916Y44191D01*
X142633Y47474D01*
X142698Y47800D01*
X142508Y48756D01*
X141966Y49566D01*
X141156Y50108D01*
X140200Y50298D01*
X139244Y50108D01*
X138434Y49566D01*
X137892Y48756D01*
X137702Y47800D01*
X137892Y46844D01*
X138434Y46034D01*
X139244Y45492D01*
X140200Y45302D01*
X141156Y45492D01*
X141328Y45607D01*
X142452Y44484D01*
X142260Y44022D01*
X139565D01*
X136747Y46839D01*
X136898Y47600D01*
X136708Y48556D01*
X136166Y49366D01*
X135356Y49908D01*
X134400Y50098D01*
X133444Y49908D01*
X132634Y49366D01*
X132092Y48556D01*
X132000Y48093D01*
X131457Y47929D01*
X122243Y57143D01*
X121879Y57386D01*
X121450Y57472D01*
X121450Y57472D01*
X102353D01*
X102146Y57972D01*
X104392Y60218D01*
X126143D01*
X126651Y60319D01*
X127081Y60606D01*
X128080Y61605D01*
X128600Y61502D01*
X129556Y61692D01*
X130366Y62234D01*
X130908Y63044D01*
X131098Y64000D01*
X130908Y64956D01*
X130366Y65766D01*
X129556Y66308D01*
X128600Y66498D01*
X127644Y66308D01*
X126834Y65766D01*
X126292Y64956D01*
X126102Y64000D01*
X126205Y63480D01*
X125594Y62869D01*
X103843D01*
X103336Y62768D01*
X102906Y62481D01*
X83163Y42737D01*
X82875Y42307D01*
X82872Y42288D01*
X82372Y42337D01*
Y46476D01*
X82956Y46592D01*
X83766Y47134D01*
X84308Y47944D01*
X84498Y48900D01*
X84308Y49856D01*
X83766Y50666D01*
X83452Y50876D01*
Y53500D01*
X83452Y53500D01*
X83367Y53929D01*
X83124Y54293D01*
X77350Y60066D01*
X77542Y60528D01*
X91850D01*
X91850Y60528D01*
X92279Y60614D01*
X92643Y60857D01*
X92939Y61153D01*
X93700Y61002D01*
X94656Y61192D01*
X95466Y61734D01*
X96008Y62544D01*
X96198Y63500D01*
X96047Y64261D01*
X104665Y72878D01*
X141900D01*
X141900Y72878D01*
X142329Y72964D01*
X142693Y73207D01*
X148078Y78592D01*
X148303Y78499D01*
X149000Y78407D01*
X149697Y78499D01*
X150347Y78768D01*
X150904Y79196D01*
X151332Y79754D01*
X151601Y80403D01*
X151693Y81100D01*
X151601Y81797D01*
X151332Y82446D01*
X150904Y83004D01*
X150347Y83432D01*
X149697Y83701D01*
X149000Y83793D01*
D02*
G37*
G36*
X6900Y-48568D02*
Y-53600D01*
X11932D01*
X11807Y-52651D01*
X11248Y-51301D01*
X10358Y-50142D01*
X9199Y-49252D01*
X7849Y-48693D01*
X6900Y-48568D01*
D02*
G37*
G36*
X192200Y44198D02*
X191244Y44008D01*
X190434Y43466D01*
X189892Y42656D01*
X189702Y41700D01*
X189853Y40939D01*
X189435Y40522D01*
X182248D01*
X181819Y40436D01*
X181455Y40193D01*
X181455Y40193D01*
X172227Y30965D01*
X171984Y30602D01*
X171899Y30172D01*
X171899Y30172D01*
Y19742D01*
X171458Y19506D01*
X171156Y19708D01*
X170200Y19898D01*
X169244Y19708D01*
X168434Y19166D01*
X167892Y18356D01*
X167702Y17400D01*
X167892Y16444D01*
X168434Y15634D01*
X168508Y15584D01*
X168557Y15086D01*
X157807Y4336D01*
X157564Y3972D01*
X157478Y3543D01*
X157478Y3543D01*
Y-22626D01*
X157144Y-22692D01*
X156334Y-23234D01*
X155792Y-24044D01*
X155602Y-25000D01*
X155792Y-25956D01*
X156334Y-26766D01*
X157144Y-27308D01*
X158100Y-27498D01*
X159056Y-27308D01*
X159866Y-26766D01*
X160408Y-25956D01*
X160598Y-25000D01*
X160408Y-24044D01*
X159866Y-23234D01*
X159722Y-23137D01*
Y-12376D01*
X160184Y-12184D01*
X173509Y-25510D01*
Y-28353D01*
X172864Y-28784D01*
X172322Y-29594D01*
X172132Y-30550D01*
X172322Y-31506D01*
X172864Y-32316D01*
X173674Y-32858D01*
X174630Y-33048D01*
X175586Y-32858D01*
X176397Y-32316D01*
X176938Y-31506D01*
X177128Y-30550D01*
X176938Y-29594D01*
X176397Y-28784D01*
X175752Y-28353D01*
Y-26285D01*
X176214Y-26093D01*
X180113Y-29993D01*
X180114Y-29993D01*
X180477Y-30236D01*
X180907Y-30322D01*
X182503D01*
X182934Y-30966D01*
X183744Y-31508D01*
X184700Y-31698D01*
X185656Y-31508D01*
X186466Y-30966D01*
X187008Y-30156D01*
X187198Y-29200D01*
X187008Y-28244D01*
X186466Y-27434D01*
X186287Y-27314D01*
X186426Y-26805D01*
X186682Y-26790D01*
X186934Y-27166D01*
X187744Y-27708D01*
X188700Y-27898D01*
X189656Y-27708D01*
X190466Y-27166D01*
X191008Y-26356D01*
X191198Y-25400D01*
X191008Y-24444D01*
X190466Y-23634D01*
X189656Y-23092D01*
X188700Y-22902D01*
X187744Y-23092D01*
X186934Y-23634D01*
X186412Y-24415D01*
X179829D01*
X169702Y-14287D01*
X169893Y-13826D01*
X201739D01*
X202234Y-14566D01*
X203044Y-15108D01*
X204000Y-15298D01*
X204956Y-15108D01*
X205766Y-14566D01*
X206308Y-13756D01*
X206498Y-12800D01*
X206308Y-11844D01*
X205766Y-11034D01*
X204956Y-10492D01*
X204000Y-10302D01*
X203044Y-10492D01*
X202234Y-11034D01*
X202139Y-11174D01*
X168121D01*
X165825Y-8879D01*
Y-7761D01*
X166266Y-7466D01*
X166808Y-6656D01*
X166998Y-5700D01*
X166808Y-4744D01*
X166518Y-4311D01*
Y764D01*
X178357Y12602D01*
X178794Y13257D01*
X178948Y14029D01*
Y20188D01*
X178918Y20336D01*
Y27064D01*
X181945Y30090D01*
X182456Y30192D01*
X183266Y30734D01*
X183808Y31544D01*
X183998Y32500D01*
X183808Y33456D01*
X183266Y34266D01*
X182456Y34808D01*
X182065Y34886D01*
X181920Y35364D01*
X183249Y36694D01*
X193761D01*
X194002Y36400D01*
X194192Y35444D01*
X194734Y34634D01*
X195544Y34092D01*
X196500Y33902D01*
X197456Y34092D01*
X198266Y34634D01*
X198808Y35444D01*
X198998Y36400D01*
X198808Y37356D01*
X198266Y38166D01*
X197456Y38708D01*
X196500Y38898D01*
X195686Y38736D01*
X195514Y38851D01*
X195085Y38937D01*
X195085Y38937D01*
X193306D01*
X193229Y39170D01*
X193223Y39437D01*
X193966Y39934D01*
X194508Y40744D01*
X194698Y41700D01*
X194508Y42656D01*
X193966Y43466D01*
X193156Y44008D01*
X192200Y44198D01*
D02*
G37*
%LPD*%
G36*
X81209Y53035D02*
Y51241D01*
X81044Y51208D01*
X80234Y50666D01*
X79692Y49856D01*
X79502Y48900D01*
X79692Y47944D01*
X80128Y47291D01*
Y31319D01*
X80128Y31319D01*
X80214Y30890D01*
X80457Y30526D01*
X81926Y29057D01*
X81926Y29057D01*
X82290Y28814D01*
X82719Y28728D01*
X82720Y28728D01*
X85280D01*
X85281Y28728D01*
X85710Y28814D01*
X86074Y29057D01*
X87281Y30264D01*
X87779Y30215D01*
X88034Y29834D01*
X88844Y29292D01*
X89800Y29102D01*
X90756Y29292D01*
X90762Y29296D01*
X91295Y29051D01*
X91321Y28835D01*
X87857Y25371D01*
X76223D01*
X75915Y25679D01*
X75889Y25810D01*
X75657Y26157D01*
X75571Y26243D01*
Y55069D01*
X76266Y55534D01*
X76808Y56344D01*
X76886Y56735D01*
X77364Y56880D01*
X81209Y53035D01*
D02*
G37*
G36*
X143378Y41435D02*
Y-5084D01*
X138634Y-9828D01*
X138091Y-9664D01*
X138008Y-9244D01*
X137466Y-8434D01*
X136656Y-7892D01*
X135700Y-7702D01*
X134744Y-7892D01*
X133985Y-8399D01*
X131422Y-5835D01*
Y-3365D01*
X139093Y4307D01*
X139093Y4307D01*
X139336Y4671D01*
X139422Y5100D01*
X139422Y5100D01*
Y41200D01*
X139406Y41278D01*
X139792Y41778D01*
X143035D01*
X143378Y41435D01*
D02*
G37*
D11*
X135300Y40000D02*
X136600Y38700D01*
Y14900D02*
Y38700D01*
D93*
X53900Y87300D02*
X94800D01*
X16846Y15254D02*
X19700Y12400D01*
X16846Y15254D02*
Y51346D01*
X50000Y83400D02*
X53900Y87300D01*
X50000Y69408D02*
Y83400D01*
X16846Y51346D02*
X24300Y58800D01*
X6400Y54100D02*
X11100Y58800D01*
X24300D01*
X39392D02*
X50000Y69408D01*
X24300Y58800D02*
X39392D01*
D96*
X167572Y-12500D02*
X204000D01*
X84100Y32700D02*
Y41800D01*
X89800Y31600D02*
Y41800D01*
X211900Y900D02*
Y13400D01*
X126143Y61543D02*
X128600Y64000D01*
X164500Y-9428D02*
X167572Y-12500D01*
X164500Y-9428D02*
Y-5700D01*
X84100Y41800D02*
X103843Y61543D01*
X135300Y40000D02*
Y40096D01*
X121896Y53500D02*
X135300Y40096D01*
X103000Y53500D02*
X121896D01*
X103843Y61543D02*
X126143D01*
X134900Y13200D02*
X136600Y14900D01*
X232600Y-32600D02*
X233800Y-33800D01*
X252600D01*
X101500Y53500D02*
X103000D01*
X89800Y41800D02*
X101500Y53500D01*
X83100Y14800D02*
X97700D01*
X134800Y13200D02*
X134900D01*
D97*
X45500Y31500D02*
Y37700D01*
X48600Y40800D01*
X88300Y24300D02*
X92600Y28600D01*
X75780Y24300D02*
X88300D01*
X75200Y22900D02*
X88880D01*
X73460Y18700D02*
X90620D01*
X66280Y25880D02*
X73460Y18700D01*
X92600Y28600D02*
Y42266D01*
X94000Y28020D02*
Y41686D01*
X95400Y27440D02*
Y41106D01*
X96800Y26860D02*
Y40527D01*
X98200Y26280D02*
Y39947D01*
X74620Y21500D02*
X89460D01*
X74040Y20100D02*
X90040D01*
X90620Y18700D02*
X98200Y26280D01*
X90040Y20100D02*
X96800Y26860D01*
X89460Y21500D02*
X95400Y27440D01*
X88880Y22900D02*
X94000Y28020D01*
X122800Y10500D02*
X124300Y12000D01*
X121500Y10500D02*
X122800D01*
X129270Y100D02*
X132400Y3230D01*
X126000Y100D02*
X129270D01*
X133800Y2651D02*
Y10240D01*
X133740Y16000D02*
X134950Y17210D01*
X129749Y-1400D02*
X133800Y2651D01*
X133160Y17400D02*
X133550Y17790D01*
X70200Y63300D02*
Y65800D01*
X67000Y69000D02*
X70200Y65800D01*
X98200Y39947D02*
X103353Y45100D01*
X96800Y40527D02*
X102773Y46500D01*
X95400Y41106D02*
X102194Y47900D01*
X94000Y41686D02*
X101614Y49300D01*
X92600Y42266D02*
X101034Y50700D01*
X130100Y3000D02*
X131000Y3900D01*
X127600Y3000D02*
X130100D01*
X132000Y37900D02*
Y41062D01*
X121212Y51850D02*
X132000Y41062D01*
X130600Y37320D02*
Y40483D01*
X129200Y36740D02*
Y39903D01*
X120053Y49050D02*
X129200Y39903D01*
X127800Y36160D02*
Y39323D01*
X119473Y47650D02*
X127800Y39323D01*
X126400Y35580D02*
Y38743D01*
X118893Y46250D02*
X126400Y38743D01*
X132000Y37900D02*
X134950Y34950D01*
X130600Y37320D02*
X133550Y34370D01*
X129200Y36740D02*
X132150Y33790D01*
X127800Y36160D02*
X130750Y33210D01*
X126400Y35580D02*
X129300Y32680D01*
X134950Y17210D02*
Y34950D01*
X133550Y17790D02*
Y34370D01*
X108300Y46250D02*
X118893D01*
X107580Y47650D02*
X119473D01*
X107000Y49050D02*
X120053D01*
X105310Y51850D02*
X121212D01*
X121800Y-1400D02*
X129749D01*
X121200Y-800D02*
X121800Y-1400D01*
X104160Y50700D02*
X105310Y51850D01*
X101034Y50700D02*
X104160D01*
X101614Y49300D02*
X104740D01*
X105850Y47900D02*
X107000Y49050D01*
X102194Y47900D02*
X105850D01*
X106430Y46500D02*
X107580Y47650D01*
X102773Y46500D02*
X106430D01*
X107150Y45100D02*
X108300Y46250D01*
X103353Y45100D02*
X107150D01*
X57080Y35500D02*
X64580D01*
X52880Y31300D02*
X57080Y35500D01*
X58240Y32700D02*
X63420D01*
X74620Y21500D01*
X64000Y34100D02*
X75200Y22900D01*
X64580Y35500D02*
X75780Y24300D01*
X56900Y25880D02*
X66280D01*
X57660Y34100D02*
X64000D01*
X48200Y28200D02*
X51760D01*
X57660Y34100D01*
X45200Y31200D02*
X45500Y31500D01*
X50200Y31300D02*
X52880D01*
X45200Y31200D02*
X48200Y28200D01*
X52240Y26700D02*
X58240Y32700D01*
X47700Y26700D02*
X52240D01*
X44040Y28400D02*
X46000D01*
X47700Y26700D01*
X40100Y31200D02*
X41240D01*
X44040Y28400D01*
X56500Y24500D02*
X56900Y24100D01*
X56500Y24500D02*
Y25700D01*
X59625Y30125D02*
X64015D01*
X74040Y20100D01*
X59400Y29900D02*
X59625Y30125D01*
X74500Y25800D02*
X74900Y25400D01*
X74500Y25800D02*
Y57300D01*
X124300Y12000D02*
Y14579D01*
X133060Y17400D02*
X133160D01*
X133640Y16000D02*
X133740D01*
X126000Y10000D02*
Y14299D01*
X124300Y14579D02*
X129300Y19579D01*
Y32680D01*
X130750Y19049D02*
Y33210D01*
X126000Y14299D02*
X130750Y19049D01*
X121200Y4900D02*
X126000Y100D01*
Y10000D02*
X127900Y8100D01*
X131000Y3900D02*
Y9080D01*
X129200Y10880D02*
X131000Y9080D01*
X129200Y10880D02*
Y15520D01*
X132150Y18470D01*
Y33790D01*
X130600Y14940D02*
X133060Y17400D01*
X130600Y11460D02*
Y14940D01*
Y11460D02*
X132400Y9660D01*
Y3230D02*
Y9660D01*
X132000Y12040D02*
X133800Y10240D01*
X132000Y12040D02*
Y14360D01*
X133640Y16000D01*
X120633Y50450D02*
X130600Y40483D01*
X104740Y49300D02*
X105890Y50450D01*
X120633D01*
D100*
X18896Y37496D02*
X24100Y42700D01*
X81250Y48750D02*
X82000Y49500D01*
X141400Y-25500D02*
Y-22700D01*
X135700Y-21500D02*
Y-16469D01*
X132850Y-23450D02*
X135250Y-25850D01*
X132850Y-23450D02*
Y-17198D01*
X131350Y-24250D02*
Y-16577D01*
X141050Y-25850D02*
X141400Y-25500D01*
X131350Y-16577D02*
X132850Y-15077D01*
X131350Y-24250D02*
X134600Y-27500D01*
X132850Y-17198D02*
X144500Y-5548D01*
X135700Y-16469D02*
X146000Y-6169D01*
X135250Y-25850D02*
X141050D01*
X145200Y-18300D02*
Y-13170D01*
X158100Y-25000D02*
X158600Y-24500D01*
Y3543D01*
X18896Y16103D02*
Y37496D01*
Y16103D02*
X19749Y15250D01*
X20880D01*
X22550Y13580D01*
Y11220D02*
Y13580D01*
X19700Y8370D02*
X22550Y11220D01*
X19700Y2400D02*
Y8370D01*
X140200Y47800D02*
X140721D01*
X168300Y75800D02*
X170500D01*
X166000Y75621D02*
Y78300D01*
X86950Y31519D02*
Y41480D01*
X85281Y29850D02*
X86950Y31519D01*
X82719Y29850D02*
X85281D01*
X130300Y-2900D02*
X138300Y5100D01*
Y41200D01*
X63065Y62100D02*
X67265Y57900D01*
X63728Y63700D02*
X67728Y59700D01*
X149200Y56700D02*
X168300Y75800D01*
X147500Y57121D02*
X166000Y75621D01*
X141900Y74000D02*
X149000Y81100D01*
X104200Y74000D02*
X141900D01*
X179364Y-25536D02*
X188564D01*
X174630Y-30550D02*
Y-25045D01*
X189900Y39400D02*
X192200Y41700D01*
X182248Y39400D02*
X189900D01*
X182785Y37815D02*
X195085D01*
X86950Y41480D02*
X101820Y56350D01*
X145200Y-13170D02*
X149200Y-9170D01*
X140721Y47800D02*
X146000Y42521D01*
Y-6169D02*
Y42521D01*
X143500Y42900D02*
X144500Y41900D01*
X134400Y47600D02*
X139100Y42900D01*
X143500D01*
X136650Y42850D02*
X138300Y41200D01*
X134950Y42850D02*
X136650D01*
X121450Y56350D02*
X134950Y42850D01*
X101820Y56350D02*
X121450D01*
X130300Y-6300D02*
Y-2900D01*
Y-6300D02*
X134200Y-10200D01*
X135700D01*
X141800Y-14400D02*
X147500Y-8700D01*
X132850Y-15077D02*
Y-11650D01*
X125700Y-4500D02*
X132850Y-11650D01*
X220500Y-32600D02*
X232600D01*
X219300Y-33800D02*
X220500Y-32600D01*
X232334Y33234D02*
X234100Y35000D01*
X250671D01*
X147500Y-8700D02*
Y57121D01*
X149200Y-9170D02*
Y56700D01*
X81250Y31319D02*
Y48750D01*
X139707Y-27500D02*
X147500Y-35293D01*
X134600Y-27500D02*
X139707D01*
X144500Y-5548D02*
Y41900D01*
X180907Y-29200D02*
X184700D01*
X195085Y37815D02*
X196500Y36400D01*
X164500Y-10672D02*
Y-9428D01*
X160100Y-10515D02*
X174630Y-25045D01*
X161600Y-9893D02*
X180907Y-29200D01*
X164500Y-10672D02*
X179364Y-25536D01*
X81250Y31319D02*
X82719Y29850D01*
X93700Y63500D02*
X104200Y74000D01*
X24100Y42500D02*
Y42700D01*
X82000Y48900D02*
Y49500D01*
Y48900D02*
X82331Y49231D01*
Y53500D01*
X82000Y49500D02*
X82100Y49600D01*
X73320Y60150D02*
X75681D01*
X67728Y59700D02*
X70748D01*
X72698Y61650D01*
X91850D01*
X67265Y57900D02*
X71070D01*
X73320Y60150D01*
X75681D02*
X82331Y53500D01*
X91850Y61650D02*
X93700Y63500D01*
X174521Y29551D02*
X182785Y37815D01*
X161600Y-9893D02*
Y2300D01*
X160100Y-10515D02*
Y2921D01*
X173021Y30172D02*
X182248Y39400D01*
X173021Y18610D02*
X173050Y18580D01*
X173021Y18610D02*
Y30172D01*
X174521Y19231D02*
X174550Y19202D01*
X174521Y19231D02*
Y29551D01*
X174550Y15250D02*
Y19202D01*
X173050Y15871D02*
Y18580D01*
X160100Y2921D02*
X173050Y15871D01*
X161600Y2300D02*
X174550Y15250D01*
X170200Y15143D02*
Y17400D01*
X158600Y3543D02*
X170200Y15143D01*
X55900Y63700D02*
X63728D01*
X56421Y62100D02*
X63065D01*
X43400Y49079D02*
X56421Y62100D01*
X40300Y52700D02*
X44900D01*
X55900Y63700D01*
X43400Y47700D02*
Y49079D01*
D106*
X6400Y54100D02*
D03*
Y-54100D02*
D03*
D107*
X228836Y80513D02*
D03*
X208364D02*
D03*
Y-80513D02*
D03*
X228836D02*
D03*
D108*
X8700Y-25591D02*
D03*
Y25591D02*
D03*
D109*
X141400Y-22700D02*
D03*
X135700Y-21500D02*
D03*
X145200Y-18300D02*
D03*
X152791Y-23010D02*
D03*
X158100Y-25000D02*
D03*
X19700Y2400D02*
D03*
X14500Y54900D02*
D03*
X28700Y40100D02*
D03*
X88000Y74400D02*
D03*
X140200Y47800D02*
D03*
X170500Y75800D02*
D03*
X166000Y78300D02*
D03*
X84100Y32700D02*
D03*
X89800Y31600D02*
D03*
X86300Y27100D02*
D03*
X19700Y12400D02*
D03*
X83050Y15700D02*
D03*
X79600Y27700D02*
D03*
X77700Y15500D02*
D03*
X121500Y10500D02*
D03*
X165300Y18800D02*
D03*
X141400Y29400D02*
D03*
X62000Y69000D02*
D03*
X70200Y63300D02*
D03*
X59200Y46532D02*
D03*
X56416Y49316D02*
D03*
X53632Y52100D02*
D03*
X59200Y52100D02*
D03*
X56416Y54884D02*
D03*
X64768Y52100D02*
D03*
X61984Y54884D02*
D03*
X59200Y57668D02*
D03*
X61984Y49316D02*
D03*
X67000Y69000D02*
D03*
X106200Y69900D02*
D03*
X160300Y60900D02*
D03*
X151000Y70700D02*
D03*
X197800Y71300D02*
D03*
X143700Y81700D02*
D03*
X107400Y79100D02*
D03*
X128600Y64000D02*
D03*
X212000Y900D02*
D03*
X204000Y-12800D02*
D03*
X192200Y41700D02*
D03*
X164500Y-5700D02*
D03*
X88200Y50500D02*
D03*
X135300Y40000D02*
D03*
X134400Y47600D02*
D03*
X127600Y3000D02*
D03*
X152780Y24295D02*
D03*
X134400Y-4000D02*
D03*
X135700Y-10200D02*
D03*
X141800Y-14400D02*
D03*
X121200Y-800D02*
D03*
X125700Y-4500D02*
D03*
X188700Y-25400D02*
D03*
X252600Y-33800D02*
D03*
X250671Y35000D02*
D03*
X232600Y-32600D02*
D03*
X147500Y-35293D02*
D03*
X211900Y13400D02*
D03*
X152800Y617D02*
D03*
X152800Y51200D02*
D03*
X169300Y47300D02*
D03*
X174630Y-30550D02*
D03*
X97700Y14800D02*
D03*
X181031Y51185D02*
D03*
X204661Y51207D02*
D03*
X228275D02*
D03*
X255200Y51100D02*
D03*
X255175Y24348D02*
D03*
X255194Y670D02*
D03*
X255186Y-22957D02*
D03*
X254900Y-51000D02*
D03*
X228268Y-51196D02*
D03*
X204653D02*
D03*
X153000Y-51000D02*
D03*
X181023Y-51218D02*
D03*
X103000Y53500D02*
D03*
X184700Y-29200D02*
D03*
X181500Y32500D02*
D03*
X232334Y33234D02*
D03*
X196500Y36400D02*
D03*
X219300Y-33800D02*
D03*
X213200Y-68400D02*
D03*
X194700Y17000D02*
D03*
X167100Y-31300D02*
D03*
X210100Y-12600D02*
D03*
X199600Y-6500D02*
D03*
X121654Y22575D02*
D03*
Y26905D02*
D03*
Y31236D02*
D03*
Y35567D02*
D03*
X117323D02*
D03*
Y31236D02*
D03*
Y26905D02*
D03*
Y22575D02*
D03*
X112993D02*
D03*
Y26905D02*
D03*
Y31236D02*
D03*
Y35567D02*
D03*
X108662D02*
D03*
Y31236D02*
D03*
Y26905D02*
D03*
Y22575D02*
D03*
X238300Y18700D02*
D03*
X247200Y5500D02*
D03*
X226500Y32100D02*
D03*
X219500D02*
D03*
X213000Y26300D02*
D03*
X200000Y26400D02*
D03*
X213000Y31400D02*
D03*
X206100D02*
D03*
X200000D02*
D03*
X226400Y-400D02*
D03*
X231900Y-2400D02*
D03*
X236800Y-5500D02*
D03*
X238300Y-11000D02*
D03*
X238600Y-17400D02*
D03*
X232000Y-8900D02*
D03*
X224400Y-8400D02*
D03*
X217900Y-8600D02*
D03*
X217800Y-3600D02*
D03*
X250200Y9700D02*
D03*
X253200Y13900D02*
D03*
X249800Y900D02*
D03*
X253600Y-11000D02*
D03*
X234300Y-27200D02*
D03*
X228300Y-28500D02*
D03*
X200000Y-23700D02*
D03*
X212400D02*
D03*
X249900Y-42000D02*
D03*
X246200Y-46000D02*
D03*
X222900Y-60200D02*
D03*
X214200D02*
D03*
X209700Y-63500D02*
D03*
X218700Y-57100D02*
D03*
X219100Y-46100D02*
D03*
X225100Y-46000D02*
D03*
X231100D02*
D03*
X237100Y-46200D02*
D03*
X174600Y-16300D02*
D03*
X222600Y60400D02*
D03*
X219800Y56200D02*
D03*
X215100Y59500D02*
D03*
X233900Y-63800D02*
D03*
X229400Y-67300D02*
D03*
X44100Y-58400D02*
D03*
X50100D02*
D03*
X56100D02*
D03*
X62100D02*
D03*
X68100D02*
D03*
X74100D02*
D03*
X80100D02*
D03*
X86100D02*
D03*
X92100D02*
D03*
X98100D02*
D03*
X117300Y-56900D02*
D03*
X123300D02*
D03*
X129300D02*
D03*
X135300D02*
D03*
X141300D02*
D03*
X147300D02*
D03*
X153300D02*
D03*
X159300D02*
D03*
X165300D02*
D03*
X111200Y-14900D02*
D03*
Y-20900D02*
D03*
Y-26900D02*
D03*
Y-32900D02*
D03*
Y-38900D02*
D03*
Y-44900D02*
D03*
Y-50900D02*
D03*
X117400Y-51000D02*
D03*
Y-45000D02*
D03*
Y-39000D02*
D03*
Y-33000D02*
D03*
Y-27000D02*
D03*
X92800Y-52000D02*
D03*
Y-46000D02*
D03*
Y-27400D02*
D03*
Y-21400D02*
D03*
X55100Y-21900D02*
D03*
Y-27900D02*
D03*
Y-33900D02*
D03*
Y-39900D02*
D03*
Y-45900D02*
D03*
Y-51900D02*
D03*
X99800Y-46000D02*
D03*
Y-52000D02*
D03*
X85100Y-21100D02*
D03*
X79100Y-21400D02*
D03*
X73100D02*
D03*
X61100Y-21100D02*
D03*
X67100Y-21400D02*
D03*
X92800Y-33400D02*
D03*
X49500Y-52300D02*
D03*
Y-46300D02*
D03*
X43900Y-52300D02*
D03*
Y-46300D02*
D03*
X99800Y-33200D02*
D03*
Y-20600D02*
D03*
X207300Y-56800D02*
D03*
X201300Y-56900D02*
D03*
X195300D02*
D03*
X189300D02*
D03*
X183300D02*
D03*
X177300D02*
D03*
X171300D02*
D03*
X213400Y67100D02*
D03*
X210400Y62800D02*
D03*
X238700Y-59900D02*
D03*
X242600Y-56100D02*
D03*
X228667Y68519D02*
D03*
X233226Y64550D02*
D03*
X242128Y56676D02*
D03*
X237900Y60500D02*
D03*
X262800Y-54000D02*
D03*
Y-48000D02*
D03*
Y-42000D02*
D03*
Y-36000D02*
D03*
Y-30000D02*
D03*
Y-24000D02*
D03*
Y-18000D02*
D03*
Y-12000D02*
D03*
Y-6000D02*
D03*
Y0D02*
D03*
Y6000D02*
D03*
Y12000D02*
D03*
Y18000D02*
D03*
Y24000D02*
D03*
Y30000D02*
D03*
Y36000D02*
D03*
Y42000D02*
D03*
Y48000D02*
D03*
Y54000D02*
D03*
X250300Y-57200D02*
D03*
X256300D02*
D03*
X249800Y57200D02*
D03*
X255800D02*
D03*
X159300Y-45000D02*
D03*
X165300D02*
D03*
X171300D02*
D03*
X177300D02*
D03*
X183300D02*
D03*
X189300D02*
D03*
X195300D02*
D03*
X201300D02*
D03*
X207300D02*
D03*
X169100Y-51300D02*
D03*
X192800Y-51200D02*
D03*
X216500Y-51600D02*
D03*
X216400Y51000D02*
D03*
X209200Y51200D02*
D03*
X223100D02*
D03*
X233400D02*
D03*
X246600Y51300D02*
D03*
X250782Y51199D02*
D03*
X199900Y51300D02*
D03*
X247500Y-51200D02*
D03*
X233000D02*
D03*
X223500D02*
D03*
X209300D02*
D03*
X200100D02*
D03*
X185800D02*
D03*
X176300Y-51300D02*
D03*
X162800Y-51200D02*
D03*
X157903Y-51220D02*
D03*
X185700Y51200D02*
D03*
X152900Y-45100D02*
D03*
X255207Y-46137D02*
D03*
X176400Y51200D02*
D03*
X255200Y19900D02*
D03*
Y29100D02*
D03*
X255196Y46791D02*
D03*
X255200Y42600D02*
D03*
Y5400D02*
D03*
Y-4100D02*
D03*
Y-18200D02*
D03*
Y-27500D02*
D03*
Y-41600D02*
D03*
X257700Y-35700D02*
D03*
X77000Y-52500D02*
D03*
X71000D02*
D03*
X38000Y-46500D02*
D03*
Y-52500D02*
D03*
X209500Y-34000D02*
D03*
X128700Y69700D02*
D03*
X255600Y36800D02*
D03*
X176013Y-2362D02*
D03*
X180738Y-7087D02*
D03*
X190187Y7087D02*
D03*
X180738D02*
D03*
X185462D02*
D03*
X180738Y-2362D02*
D03*
X176013Y-7087D02*
D03*
Y2362D02*
D03*
Y7087D02*
D03*
X190187Y2362D02*
D03*
X185462D02*
D03*
X180738D02*
D03*
X185462Y-2362D02*
D03*
X190187D02*
D03*
Y-7087D02*
D03*
X185462D02*
D03*
X93700Y63500D02*
D03*
X59400Y29900D02*
D03*
X26900Y31000D02*
D03*
X40100Y31200D02*
D03*
X45200D02*
D03*
X50200Y31300D02*
D03*
X51700Y22500D02*
D03*
X56500Y25700D02*
D03*
X94800Y87000D02*
D03*
X82000Y48900D02*
D03*
X74500Y57300D02*
D03*
X121200Y4900D02*
D03*
X127900Y8100D02*
D03*
X134800Y13200D02*
D03*
X170200Y17400D02*
D03*
X48600Y40800D02*
D03*
X43400Y47700D02*
D03*
X40300Y52700D02*
D03*
D110*
X149000Y81100D02*
D03*
X24100Y42500D02*
D03*
D111*
X164500Y-5700D02*
Y1600D01*
X176900Y27900D02*
X181500Y32500D01*
X176900Y20217D02*
X176929Y20188D01*
X176900Y20217D02*
Y27900D01*
X176929Y14029D02*
Y20188D01*
X164500Y1600D02*
X176929Y14029D01*
M02*
